<?xml version="1.0" encoding="utf-8"?>
<!-- Generator: Adobe Illustrator 26.5.0, SVG Export Plug-In . SVG Version: 6.00 Build 0)  -->
<svg version="1.1" id="Layer_1" xmlns="http://www.w3.org/2000/svg" xmlns:xlink="http://www.w3.org/1999/xlink" x="0px" y="0px"
	 viewBox="0 0 747 547" style="enable-background:new 0 0 747 547;" xml:space="preserve">
<style type="text/css">
	.st0{opacity:8.454240e-02;fill:#CFCFCF;enable-background:new    ;}
	.st1{opacity:7.026600e-02;fill-rule:evenodd;clip-rule:evenodd;fill:#CFCFCF;enable-background:new    ;}
	.st2{opacity:7.393970e-02;fill-rule:evenodd;clip-rule:evenodd;fill:#CFCFCF;enable-background:new    ;}
	.st3{fill-rule:evenodd;clip-rule:evenodd;fill:#0F131C;}
	.st4{fill-rule:evenodd;clip-rule:evenodd;fill:#121721;}
	.st5{fill-rule:evenodd;clip-rule:evenodd;fill:#1F232D;}
	.st6{fill-rule:evenodd;clip-rule:evenodd;fill:#CFCFCF;}
	.st7{fill:#A6A8A8;}
	.st8{fill-rule:evenodd;clip-rule:evenodd;fill:#252A35;}
	.st9{opacity:0.4541;fill-rule:evenodd;clip-rule:evenodd;fill:#696A71;enable-background:new    ;}
	.st10{fill-rule:evenodd;clip-rule:evenodd;fill:#3B5157;}
	.st11{fill-rule:evenodd;clip-rule:evenodd;fill:#696A71;}
	.st12{fill:#3B5157;}
	.st13{fill:none;stroke:#C0C1C2;stroke-width:4.004;stroke-linecap:round;}
	.st14{opacity:0.4147;fill-rule:evenodd;clip-rule:evenodd;fill:#D0D1D2;enable-background:new    ;}
	.st15{fill:#C0C1C2;}
	.st16{fill-rule:evenodd;clip-rule:evenodd;fill:#C0C1C2;fill-opacity:0.4019;}
	.st17{fill:#C0C1C2;fill-opacity:0.4517;}
	.st18{fill-rule:evenodd;clip-rule:evenodd;fill:#E3DEFF;}
	.st19{opacity:0.5757;fill-rule:evenodd;clip-rule:evenodd;fill:#3B5157;enable-background:new    ;}
	.st20{fill-rule:evenodd;clip-rule:evenodd;fill:#CDCECF;}
	.st21{fill-rule:evenodd;clip-rule:evenodd;fill:#A6A8A8;}
	.st22{fill-rule:evenodd;clip-rule:evenodd;fill:#333333;}
	.st23{fill-rule:evenodd;clip-rule:evenodd;fill:url(#Path_35_00000181058640645104446880000000501822639321029529_);}
	.st24{fill-rule:evenodd;clip-rule:evenodd;fill:url(#Path_36_00000010306320405561704100000000191719420566799778_);}
	.st25{fill:none;stroke:#F77B7B;stroke-width:1.5;stroke-linecap:round;}
	.st26{fill:none;stroke:#F49494;stroke-linecap:round;}
	.st27{fill:none;stroke:#F77B7B;stroke-linecap:round;}
	.st28{fill-rule:evenodd;clip-rule:evenodd;fill:url(#Path_40_00000169545979638082416540000017420963951889822392_);}
	.st29{fill-rule:evenodd;clip-rule:evenodd;fill:#414141;}
	.st30{fill-rule:evenodd;clip-rule:evenodd;fill:#FFFFFF;fill-opacity:0.541;}
	.st31{fill-rule:evenodd;clip-rule:evenodd;fill:#565656;}
	.st32{fill-rule:evenodd;clip-rule:evenodd;fill:url(#Path_43_00000182520721398431030430000008196537311496935304_);}
	.st33{fill-rule:evenodd;clip-rule:evenodd;fill-opacity:0.3028;}
	.st34{fill-rule:evenodd;clip-rule:evenodd;fill:#777777;}
	.st35{fill-rule:evenodd;clip-rule:evenodd;fill-opacity:0.1994;}
	.st36{fill-rule:evenodd;clip-rule:evenodd;fill:url(#Path_48_00000152976917993416638960000011294239021905139889_);}
	.st37{fill-rule:evenodd;clip-rule:evenodd;fill:#F8CFCF;}
	.st38{fill-rule:evenodd;clip-rule:evenodd;fill:#4B4B4B;}
	.st39{fill:none;stroke:#FFFFFF;stroke-width:2;stroke-linecap:round;}
	.st40{fill-rule:evenodd;clip-rule:evenodd;fill:#383838;}
	.st41{opacity:0.2836;fill-rule:evenodd;clip-rule:evenodd;fill:#FFFFFF;fill-opacity:0.1925;enable-background:new    ;}
	.st42{fill-rule:evenodd;clip-rule:evenodd;fill:#2E2E2E;}
	.st43{fill-rule:evenodd;clip-rule:evenodd;fill:#F28585;}
	.st44{fill-rule:evenodd;clip-rule:evenodd;fill-opacity:0.1599;}
	.st45{fill:none;stroke:#333333;stroke-linecap:round;}
	.st46{fill-rule:evenodd;clip-rule:evenodd;fill:#F8C5C5;}
	.st47{fill-rule:evenodd;clip-rule:evenodd;fill:url(#Path_64_00000092436953970972042110000013150423990398575777_);}
	.st48{fill-rule:evenodd;clip-rule:evenodd;fill:#424242;}
	.st49{fill:none;stroke:#CC6969;stroke-linecap:round;}
	.st50{fill:none;stroke:#DE6767;stroke-linecap:round;}
	.st51{fill:#414141;}
	.st52{fill:#CFCFCF;}
	.st53{fill:#EAEFFF;}
	.st54{fill-rule:evenodd;clip-rule:evenodd;fill:#02D3AF;}
	.st55{fill-rule:evenodd;clip-rule:evenodd;fill:#02B596;}
	.st56{fill:#02D3AF;}
	.st57{fill:#C2FFF4;}
	.st58{fill-rule:evenodd;clip-rule:evenodd;fill:url(#Path_80_00000007397686590797114240000012570951419285288849_);}
	.st59{fill-rule:evenodd;clip-rule:evenodd;fill:url(#Path_82_00000050643200837280067640000008911104275570480826_);}
	.st60{fill-rule:evenodd;clip-rule:evenodd;fill:url(#Path_87_00000036951053151590328590000003373387937430765502_);}
	.st61{fill-rule:evenodd;clip-rule:evenodd;fill:#EC7AA5;}
	.st62{fill-rule:evenodd;clip-rule:evenodd;fill:url(#Path_91_00000124850866497253568590000011422403265515093670_);}
	.st63{fill-rule:evenodd;clip-rule:evenodd;fill:#EA5455;}
	.st64{fill-rule:evenodd;clip-rule:evenodd;fill:#0C243C;}
	.st65{fill-rule:evenodd;clip-rule:evenodd;fill:url(#Path_95_00000152981093308119458810000008884002282817811883_);}
	.st66{fill-rule:evenodd;clip-rule:evenodd;fill:url(#Path_96_00000006691628558646562790000013198398030668271539_);}
	.st67{fill-rule:evenodd;clip-rule:evenodd;fill:#A8A8A8;}
	.st68{fill-rule:evenodd;clip-rule:evenodd;fill:url(#Path_101_00000144338605744110284820000015089835920874405042_);}
	.st69{fill-rule:evenodd;clip-rule:evenodd;fill:url(#Path_109_00000173881044931965786280000003485000776637858437_);}
	.st70{fill-rule:evenodd;clip-rule:evenodd;fill:url(#Rectangle_28_00000177466813348094491200000002219021665302137477_);}
	.st71{fill-rule:evenodd;clip-rule:evenodd;fill:#9D9F9F;}
	.st72{fill:#FFFFFF;}
	.st73{fill-rule:evenodd;clip-rule:evenodd;fill:#E5E4E0;}
	.st74{fill-rule:evenodd;clip-rule:evenodd;fill:#CBC9C2;}
	.st75{fill-rule:evenodd;clip-rule:evenodd;fill:#D4D3CD;}
	.st76{fill-rule:evenodd;clip-rule:evenodd;fill:#92691F;}
	.st77{fill-rule:evenodd;clip-rule:evenodd;fill:#391B0B;}
	.st78{fill-rule:evenodd;clip-rule:evenodd;fill:#81411E;}
	.st79{fill-rule:evenodd;clip-rule:evenodd;fill:#7A3636;}
	.st80{fill-rule:evenodd;clip-rule:evenodd;fill:#FFFFFF;fill-opacity:0.1925;}
	.st81{fill:#FFFFFF;fill-opacity:0.1925;}
	.st82{fill-rule:evenodd;clip-rule:evenodd;fill:url(#Path_121_00000150097519444415705710000007436454924775630752_);}
	.st83{fill-rule:evenodd;clip-rule:evenodd;fill:url(#Path_123_00000030450162555431459510000004135289048594300590_);}
	.st84{fill-rule:evenodd;clip-rule:evenodd;fill:#2C272E;}
	.st85{fill-rule:evenodd;clip-rule:evenodd;fill:#E5AA41;}
	.st86{fill-rule:evenodd;clip-rule:evenodd;fill:url(#Path_128_00000067212177428485700480000009293592539307564938_);}
	.st87{fill-rule:evenodd;clip-rule:evenodd;fill:url(#Rectangle_43_00000004535359440072063270000015497057679793145233_);}
	.st88{fill-rule:evenodd;clip-rule:evenodd;fill:url(#Rectangle_46_00000100376562198752158650000007803252839130148516_);}
	.st89{fill-rule:evenodd;clip-rule:evenodd;fill:url(#Path_135_00000003101760867532477700000016550873218300731799_);}
	.st90{fill-rule:evenodd;clip-rule:evenodd;fill:#FFB66F;}
	.st91{fill-rule:evenodd;clip-rule:evenodd;fill:#FFEDC2;}
	.st92{fill-rule:evenodd;clip-rule:evenodd;fill:url(#Path_137_00000113323961706378671480000010363791038418284213_);}
	.st93{fill-rule:evenodd;clip-rule:evenodd;fill:#33373E;}
	.st94{fill-rule:evenodd;clip-rule:evenodd;fill:url(#Path_140_00000134935890292257462820000014371582339791008128_);}
	.st95{fill-rule:evenodd;clip-rule:evenodd;fill:#42474F;}
	.st96{fill-rule:evenodd;clip-rule:evenodd;fill:url(#Path_144_00000034804694208633646490000011564608341494427577_);}
	.st97{fill-rule:evenodd;clip-rule:evenodd;fill:#9E5229;}
	.st98{fill:#FB9934;}
	.st99{fill-rule:evenodd;clip-rule:evenodd;fill:#FF9F43;}
	.st100{fill-rule:evenodd;clip-rule:evenodd;fill:#FFF6E1;}
	.st101{fill-rule:evenodd;clip-rule:evenodd;fill:url(#Path_148_00000012431708793351450880000000967444872233014690_);}
</style>
<g id="Illustration">
	<g id="Shape">
		<g>
			<g id="Group_59_00000103236064625018450240000006577802881997477011_">
				<path id="Path_00000065056612502333125890000013851852127609904528_" class="st0" d="M668.9,164.2c9.4-12.5,27.1-15.1,39.7-5.7
					c12.4,9.3,15,26.8,6,39.3l-0.3,0.4L640,297.4c-9.5,12.6-27,15.8-40.3,7.4l-0.4-0.3l-46.8-30.6l-47.2,68.6
					c-8.8,12.8-26.1,16.1-39,7.6l-0.4-0.3c-12.8-8.8-16.1-26.1-7.6-39l0.3-0.4l61.8-90c9.2-13.4,27.3-17.1,41-8.4l0.4,0.3l47.6,31.2
					L668.9,164.2z"/>
				<path id="Path_2_00000143582384256067849180000015780942392710186145_" class="st0" d="M425.7,3.3c2.4-3.5,7.1-4.3,10.6-2
					c3.4,2.3,4.3,7,2.1,10.4l-0.1,0.1l-18.5,26.9c-2.7,3.8-8,4.7-11.8,2.1l-0.1-0.1l-10.6-7.6l-11.7,18.4c-2.2,3.5-6.8,4.6-10.4,2.5
					l-0.1-0.1c-3.5-2.2-4.6-6.8-2.5-10.3l0.1-0.1L388,19.3c2.5-4,7.8-5.2,11.8-2.7l0.2,0.1l0.2,0.1l10.9,7.7L425.7,3.3z"/>
				<path id="_x2B__00000083805864066293664070000003198973152295549605_" class="st1" d="M628,129.3c1.4,0,2.5-1.1,2.5-2.5v-18h18
					c1.4,0,2.5-1.1,2.5-2.5v-8.7c0-1.4-1.1-2.5-2.5-2.5h-18v-18c0-1.4-1.1-2.5-2.5-2.5h-8.8c-1.4,0-2.5,1.1-2.5,2.5v18.1h-18
					c-1.4,0-2.5,1.1-2.5,2.5v8.7c0,1.4,1.1,2.5,2.5,2.5h18v18c0,1.4,1.1,2.5,2.5,2.5L628,129.3L628,129.3z"/>
				<path id="Oval_00000150801480562659921050000002304761944726610094_" class="st2" d="M87.2,20c50.6,0,91.6,41,91.6,91.6
					s-41,91.5-91.6,91.5s-91.6-41-91.6-91.5C-4.4,61,36.6,20,87.2,20z M87.2,65.3c-25.6,0-46.3,20.7-46.3,46.3
					c0,25.5,20.7,46.2,46.3,46.2s46.3-20.7,46.3-46.2C133.5,86,112.8,65.3,87.2,65.3z"/>
			</g>
		</g>
	</g>
	<g id="Meeting">
		<g id="Group_63">
			<path id="Rectangle" class="st3" d="M56.2,101c0-8.8,7.2-16,16-16h470.1c8.8,0,16,7.2,16,16v204.2c0,8.8-7.2,16-16,16H72.2
				c-8.8,0-16-7.2-16-16C56.2,305.2,56.2,101,56.2,101z"/>
			<path id="Rectangle_2" class="st4" d="M63.7,101c0-8.8,7.2-16,16-16h462.6c8.8,0,16,7.2,16,16v204.2c0,8.8-7.2,16-16,16H79.7
				c-8.8,0-16-7.2-16-16C63.7,305.2,63.7,101,63.7,101z"/>
			<path id="Rectangle_3" class="st5" d="M71.3,102.6c0-5.5,4.5-10,10-10h459.5c5.5,0,10,4.5,10,10v201.1c0,5.5-4.5,10-10,10H81.3
				c-5.5,0-10-4.5-10-10V102.6z"/>
			<path id="Rectangle_4" class="st6" d="M270.5,299.8c0-3.3,2.7-6,6-6h69.1c3.3,0,6,2.7,6,6v13.8h-81.2L270.5,299.8L270.5,299.8z"
				/>
			<path id="Rectangle_5" class="st7" d="M278,299.8c0-3.3,2.7-6,6-6h69.2c3.3,0,6,2.7,6,6v21.4H278V299.8L278,299.8z"/>
		</g>
		<g id="ElementCard20">
			<g id="Rectangle_6">
				<path class="st8" d="M85.5,107.4c0-3,2.4-5.4,5.4-5.4h125c3,0,5.4,2.4,5.4,5.4V148c0,3-2.4,5.4-5.4,5.4h-125
					c-3,0-5.4-2.4-5.4-5.4C85.5,148,85.5,107.4,85.5,107.4z"/>
			</g>
			<path id="Rectangle_7" class="st9" d="M125.6,132.6c0-0.8,0.7-1.5,1.5-1.5h25.5c0.8,0,1.5,0.7,1.5,1.5l0,0c0,0.8-0.7,1.5-1.5,1.5
				h-25.4C126.3,134.1,125.6,133.4,125.6,132.6L125.6,132.6z"/>
			<path id="Rectangle_8" class="st10" d="M125.6,123.9c0-0.8,0.7-1.5,1.5-1.5h15.3c0.8,0,1.5,0.7,1.5,1.5l0,0
				c0,0.8-0.7,1.5-1.5,1.5h-15.3C126.3,125.4,125.6,124.7,125.6,123.9L125.6,123.9z"/>
			<g id="Group_9">
				<path id="Path_3" class="st10" d="M200.4,120.3c2.2-2.9,6.2-3.4,9.1-1.2c0.7,0.5,1.2,1.1,1.6,1.8c0.2,0.4,0.1,0.8-0.3,1.1
					c-0.4,0.2-0.8,0.1-1.1-0.3c-0.3-0.5-0.7-1-1.2-1.4c-2.1-1.6-5.2-1.3-6.8,0.8l-0.1,0.1l-2.4,3.1c-3.7,4.9-10,7.1-16,5.5l-0.3-0.1
					l-1.9-0.5c-0.1,0-0.2-0.1-0.4-0.1c-3.5-0.8-7,1.4-7.8,4.9v0.2l-0.4,1.8c-0.1,0.6-0.4,1.2-0.8,1.8c-1.5,2.1-4.4,2.5-6.5,1
					c-0.3-0.3-0.4-0.7-0.2-1.1c0.3-0.3,0.7-0.4,1.1-0.2c1.4,1,3.3,0.7,4.4-0.7c0.2-0.3,0.4-0.7,0.5-1v-0.2l0.4-1.8
					c1-4.4,5.3-7.2,9.7-6.2l0.2,0.1l0.2,0.1l1.9,0.5c5.3,1.5,11-0.4,14.4-4.7l0.2-0.2L200.4,120.3z"/>
				<path id="Path_4" class="st11" d="M193.5,119.4c1.6-3.5,5.7-5.1,9.2-3.5c0.7,0.3,1.3,0.7,1.9,1.3c1.3,1.2,2.5,3.2,3.7,5.9
					c0.2,0.4,0,0.8-0.4,1s-0.8,0-1-0.4c-1.1-2.5-2.2-4.3-3.3-5.4c-0.4-0.4-0.9-0.7-1.5-1c-2.7-1.2-5.8-0.1-7.1,2.6l-0.1,0.1
					l-0.5,1.1c-0.1,0.3-0.2,0.5-0.4,0.7c-1.8,2.9-5.7,3.8-8.6,2c-0.3-0.2-0.7-0.4-1.1-0.5c-2-0.4-3.9,0.7-4.4,2.7v0.1l-0.9,3.7
					c-0.3,1.1-0.8,2.2-1.6,3c-2.4,2.7-6.5,2.9-9.2,0.5l-0.1-0.1l-3.5-3.2c-0.3-0.3-0.3-0.8,0-1.1c0.3-0.3,0.7-0.3,1-0.1l0.1,0.1
					l3.5,3.2c2.1,1.9,5.3,1.8,7.2-0.3c0.6-0.6,1-1.3,1.2-2.1v-0.2l0.9-3.7c0.6-2.8,3.5-4.6,6.3-3.9c0.5,0.1,1,0.3,1.4,0.6l0.2,0.1
					c2.2,1.4,5.1,0.7,6.5-1.5c0.1-0.1,0.1-0.2,0.2-0.4l0.1-0.2L193.5,119.4z"/>
			</g>
			<ellipse id="Oval_2" class="st12" cx="108.1" cy="128.2" rx="10.4" ry="10.4"/>
		</g>
		<g id="ElementCard3">
			<g id="Rectangle_9">
				<path class="st8" d="M85.5,165.6c0-2.8,2.2-5,5-5h158.9c2.8,0,5,2.2,5,5v132.7c0,2.8-2.2,5-5,5H90.5c-2.8,0-5-2.2-5-5V165.6z"/>
			</g>
			<g>
				<g id="Path_3_00000173129335224408220570000006062353475063121320_">
					<path class="st13" d="M108.1,270.2c0,0,20.1-5.8,28.9-17.6c8.9-11.8,11.8-23.2,27.1-23.2c15.2,0,17.2,17.5,33.6,17.5
						s17.4-22.3,22.8-31.2c5.5-8.9,14.9-8.9,14.9-8.9"/>
				</g>
				<path id="Path_3_x5F_2" class="st14" d="M108.1,269c0,0,20.1-5.8,28.9-17.5c8.9-11.7,11.8-23.1,27.1-23.1
					c15.2,0,17.2,17.4,33.6,17.4s17.4-22.2,22.8-31c5.5-8.8,14.9-8.8,14.9-8.8v74.4c0,1.7-1.4,3.1-3.1,3.1H111.2
					c-1.7,0-3.1-1.4-3.1-3.1V269z"/>
				<path id="Rectangle_11" class="st15" d="M101.5,174.8h47.2c1.6,0,2.8,1.3,2.8,2.8l0,0c0,1.6-1.3,2.8-2.8,2.8h-47.2
					c-1.6,0-2.8-1.3-2.8-2.8l0,0C98.7,176,99.9,174.8,101.5,174.8z"/>
				<path id="Rectangle_12" class="st16" d="M98.7,191.8c0-1.6,1.3-2.8,2.8-2.8h18.9c1.6,0,2.8,1.3,2.8,2.8l0,0
					c0,1.6-1.3,2.8-2.8,2.8h-18.9C99.9,194.6,98.7,193.3,98.7,191.8L98.7,191.8z"/>
				<ellipse id="Oval_3" class="st17" cx="221.8" cy="178.1" rx="3.3" ry="3.3"/>
				<ellipse id="Oval_4" class="st17" cx="231.3" cy="178.1" rx="3.3" ry="3.3"/>
				<ellipse id="Oval_5" class="st17" cx="240.7" cy="178.1" rx="3.3" ry="3.3"/>
			</g>
		</g>
		<g id="ElementCard11">
			<g id="Rectangle_13">
				<path class="st8" d="M280.8,122.7c0-4.1,3.4-7.5,7.5-7.5h225.2c4.1,0,7.5,3.4,7.5,7.5v150.5c0,4.1-3.4,7.5-7.5,7.5H288.3
					c-4.1,0-7.5-3.4-7.5-7.5V122.7z"/>
			</g>
			<g id="Group_26">
				<path id="Path_5" class="st18" d="M321.5,200.1v59.2h-8.9v-59.2H321.5L321.5,200.1z"/>
				<path id="Path_6" class="st11" d="M321.5,214.2v45h-8.9v-45H321.5L321.5,214.2z"/>
				<path id="Path_7" class="st10" d="M321.5,242.5v16.8h-8.9v-16.8H321.5L321.5,242.5z"/>
			</g>
			<g id="Group_26_x5F_2">
				<path id="Path_8" class="st18" d="M342.6,186v73.3h-8.8V186H342.6z"/>
				<path id="Path_9" class="st11" d="M342.6,207.2v52.1h-8.8v-52.1H342.6L342.6,207.2z"/>
				<path id="Path_10" class="st10" d="M342.6,242.5v16.8h-8.8v-16.8H342.6L342.6,242.5z"/>
			</g>
			<g id="Group_26_x5F_3">
				<path id="Path_11" class="st18" d="M363.8,196.6v62.7H355v-62.7H363.8L363.8,196.6z"/>
				<path id="Path_12" class="st11" d="M363.8,217.8v41.5H355v-41.5H363.8L363.8,217.8z"/>
				<path id="Path_13" class="st10" d="M363.8,246.1v13.2H355v-13.2H363.8L363.8,246.1z"/>
			</g>
			<g id="Group_26_x5F_4">
				<path id="Path_14" class="st18" d="M385,178.9v80.4h-8.8v-80.4L385,178.9L385,178.9z"/>
				<path id="Path_15" class="st11" d="M385,200.1v59.2h-8.8v-59.2H385L385,200.1z"/>
				<path id="Path_16" class="st10" d="M385,228.4v30.9h-8.8v-30.9H385z"/>
			</g>
			<g id="Group_26_x5F_5">
				<path id="Path_17" class="st18" d="M406.2,164.7v94.5h-8.8v-94.5H406.2L406.2,164.7z"/>
				<path id="Path_18" class="st11" d="M406.2,193v66.3h-8.8V193H406.2z"/>
				<path id="Path_19" class="st10" d="M406.2,235.5v23.8h-8.8v-23.8H406.2L406.2,235.5z"/>
			</g>
			<g id="Group_26_x5F_6">
				<path id="Path_20" class="st18" d="M427.4,186v73.3h-8.8V186H427.4z"/>
				<path id="Path_21" class="st11" d="M427.4,207.2v52.1h-8.8v-52.1H427.4L427.4,207.2z"/>
				<path id="Path_22" class="st10" d="M427.4,239.7v19.6h-8.8v-19.6H427.4L427.4,239.7z"/>
			</g>
			<g id="Group_26_x5F_7">
				<path id="Path_23" class="st18" d="M448.6,193v66.3h-8.8V193H448.6z"/>
				<path id="Path_24" class="st11" d="M448.6,207.2v52.1h-8.8v-52.1H448.6L448.6,207.2z"/>
				<path id="Path_25" class="st10" d="M448.6,234.8v24.5h-8.8v-24.5H448.6L448.6,234.8z"/>
			</g>
			<g id="Group_26_x5F_8">
				<path id="Path_26" class="st18" d="M469.8,178.9v80.4H461v-80.4L469.8,178.9L469.8,178.9z"/>
				<path id="Path_27" class="st11" d="M469.8,207.2v52.1H461v-52.1H469.8L469.8,207.2z"/>
				<path id="Path_28" class="st10" d="M469.8,241.8v17.5H461v-17.5H469.8L469.8,241.8z"/>
			</g>
			<g id="Group_26_x5F_9">
				<path id="Path_29" class="st18" d="M491,193v66.3h-8.8V193H491z"/>
				<path id="Path_30" class="st11" d="M491,207.2v52.1h-8.8v-52.1H491L491,207.2z"/>
				<path id="Path_31" class="st10" d="M491,241.8v17.5h-8.8v-17.5H491L491,241.8z"/>
			</g>
			<path id="Rectangle_14" class="st19" d="M309.8,145.6c0-1.2,0.9-2.1,2.1-2.1h70.7c1.2,0,2.1,1,2.1,2.1l0,0c0,1.2-1,2.1-2.1,2.1
				H312C310.7,147.8,309.8,146.8,309.8,145.6L309.8,145.6z"/>
			<path id="Rectangle_15" class="st12" d="M311.9,131.5h35.3c1.2,0,2.1,0.9,2.1,2.1l0,0c0,1.2-0.9,2.1-2.1,2.1h-35.3
				c-1.2,0-2.1-0.9-2.1-2.1l0,0C309.8,132.5,310.7,131.5,311.9,131.5z"/>
		</g>
		<g id="Chair4">
			<path id="Path_32" class="st20" d="M553.6,449.9l11.4,90.4l-6-0.1l-11.4-89.5L553.6,449.9z"/>
			<path id="Path_33" class="st21" d="M476.2,464.1c-5.2,0-9.4-4.2-9.4-9.4l0,0c0-5.2,4.2-9.4,9.4-9.4H514c5.7,0,10.5-4.4,11-10
				l6-64.2c0.5-5.7,5.3-10,11-10h23.7c6.5,0,11.5,5.5,11.1,11.9l-6.2,81c-0.4,5.8-5.3,10.2-11.1,10.2h-83.3V464.1L476.2,464.1z"/>
			<path id="Combined_Shape" class="st20" d="M466.8,454.6c0.1,0,0.1,0,0.2,0h83.1c5.8,0,10.6-4.5,11.1-10.2l6.2-80.7
				c0.1-0.9,0-1.7-0.1-2.6c-0.6-0.1-1.1-0.1-1.7-0.1H542c-5.7,0-10.5,4.4-11,10l-6,64c-0.5,5.7-5.3,10-11,10h-37.6
				c-5.2,0-9.4,4.2-9.4,9.4C466.8,454.4,466.8,454.5,466.8,454.6z"/>
		</g>
		<g id="Wom1.4">
			<g id="Head">
				<path id="Path_34" class="st22" d="M540.9,345.3c12.2-2.8,13-19.6,3.7-25.4c9.6-20.1-12.6-40-27.7-27.7
					c-9.9-4.3-18.2,12.3-8.9,25.2c-3.9,22.1,4,27.9,18.2,28.1L540.9,345.3z"/>
				
					<linearGradient id="Path_35_00000039113803076103323810000002634908108180420237_" gradientUnits="userSpaceOnUse" x1="534.6724" y1="846.6528" x2="523.5927" y2="896.1299" gradientTransform="matrix(1 0 0 1 0 -538.0001)">
					<stop  offset="0" style="stop-color:#FFAFAF"/>
					<stop  offset="1" style="stop-color:#F07777"/>
				</linearGradient>
				
					<path id="Path_35" style="fill-rule:evenodd;clip-rule:evenodd;fill:url(#Path_35_00000039113803076103323810000002634908108180420237_);" d="
					M540.7,341.3c0,0-5.9-1.4-6.1-11.1c-0.2-9.7-0.1-13-0.1-13l-13.1-0.2c0,0-0.1,10.8-0.1,14.8c0,10.5-7.3,9.6-7.3,9.6
					s1.5,8.5,13.4,9.2C536.6,351.1,540.7,341.3,540.7,341.3z"/>
				
					<linearGradient id="Path_36_00000119100413817017729930000005247123609151654017_" gradientUnits="userSpaceOnUse" x1="527.9847" y1="836.3553" x2="521.3367" y2="868.8742" gradientTransform="matrix(1 0 0 1 0 -538.0001)">
					<stop  offset="0" style="stop-color:#FDC6C6"/>
					<stop  offset="1" style="stop-color:#FAB2B2"/>
				</linearGradient>
				
					<path id="Path_36" style="fill-rule:evenodd;clip-rule:evenodd;fill:url(#Path_36_00000119100413817017729930000005247123609151654017_);" d="
					M537.6,312.3c5.8-0.2,4.9,8.3-1.2,8.3c0,0-3.5,12.1-15.7,12.1c-9.9,0-10.6-14.1-10.7-17c-0.1-3-0.1-12.9-0.1-12.9h27.9
					L537.6,312.3z"/>
				<path id="Path_37" class="st25" d="M523,324.6c0,0-2.9,2.5-6.3,0.2"/>
				<path id="Path_38" class="st26" d="M521.1,327.5c-0.9,0.4-1.8,0.4-2.6,0"/>
				<path id="Path_8_00000133529139370164985260000008518532246865250992_" class="st27" d="M537,316.9c-0.1-1.4,0.4-2.5,1.8-2.7"/>
				<path id="Path_39" class="st22" d="M538.5,311.3c0,0-3.2,4.3-3.8,4.3s-0.9-5.6-0.9-5.6c-3.9-0.3-13.8-2.3-16.3-6.9
					c-1.7,4.1-5,5.9-7.1,5.5l-0.4,8.6l-1-17.4h30.3L538.5,311.3z"/>
			</g>
			<g id="LLeg">
				
					<linearGradient id="Path_40_00000178196438412123725760000008824146597900840347_" gradientUnits="userSpaceOnUse" x1="483.0123" y1="1042.3771" x2="481.4192" y2="1072.1581" gradientTransform="matrix(1 0 0 1 0 -538.0001)">
					<stop  offset="0" style="stop-color:#FDC6C6"/>
					<stop  offset="1" style="stop-color:#FAB2B2"/>
				</linearGradient>
				
					<path id="Path_40" style="fill-rule:evenodd;clip-rule:evenodd;fill:url(#Path_40_00000178196438412123725760000008824146597900840347_);" d="
					M481,512.9c0,0,5.2,10.6,0.9,13.9c-4.3,3.3-15.6,9.6-15.6,9.6l30.1-1.9l-6.7-23.1L481,512.9z"/>
				<path id="Path_41" class="st29" d="M493.5,523c-1.5,0.2,0.1,5.2-3.1,5.5c-3.2,0.4-4.8-4.4-8.4-2.9s-16.9,9.3-17.4,12.4
					c-0.5,3.2,4.4,4.1,11.2,3.4s8-3.1,13.1-2.2c5.1,1,8.9-0.6,8.7-4.3C497.4,531.3,494.9,522.8,493.5,523z"/>
				<path id="Path_14_00000150798895867756582590000016884181560335743618_" class="st30" d="M480.3,526.4l0.7,1
					c0.3,0.5,0.2,1.1-0.3,1.4l-9,5c-0.3,0.2-0.6,0.2-0.9,0l-1.4-0.7c2.2-1.6,4-2.8,5.9-3.9C476.8,528.3,478.4,527.4,480.3,526.4z"/>
				<path id="Path_42" class="st31" d="M526.3,419.7c-9.1,0.4-59.7,11.6-68.9,13.5c-9.2,1.9-17,12.2-10,24.1
					c7.9,13.4,28.2,51.4,33.1,60c2.4,4.2,14.8,1.9,11.9-5.3c-5.4-13.3-7.9-46.6-21.7-58.8c0,0,46.3,8.1,66.3-1.2
					C551.5,445.4,548.2,418.7,526.3,419.7z"/>
			</g>
			<g id="LArm">
				
					<linearGradient id="Path_43_00000121967278934110102150000005052272753915154832_" gradientUnits="userSpaceOnUse" x1="452.8269" y1="877.9888" x2="450.6749" y2="906.5917" gradientTransform="matrix(1 0 0 1 0 -538.0001)">
					<stop  offset="0" style="stop-color:#FDC6C6"/>
					<stop  offset="1" style="stop-color:#FAB2B2"/>
				</linearGradient>
				
					<path id="Path_43" style="fill-rule:evenodd;clip-rule:evenodd;fill:url(#Path_43_00000121967278934110102150000005052272753915154832_);" d="
					M461.8,365.9c0,0,0.1-7.4-2.5-11.3s-2.7-8-4.7-7.8c-2,0.1,0,9.7,0,9.7s-2.5-1-4.3-2.2s-7.2-7.1-8.5-6.1
					c-2.1,1.8,1.3,11.9,3.2,13.9c1.9,2,12.2,8.7,12.2,8.7L461.8,365.9z"/>
				<path id="Path_44" class="st31" d="M517.7,361.5c-4.2,9.8-12,27.9-15.2,33.2c-4,6.7-10.3,9.7-17.7,4.7
					c-7.8-5.3-29.2-25.8-29.8-30.4c-0.6-4.6,4.6-10.2,9.3-7.3c4.7,2.9,24.4,19.3,24.4,19.3s7.9-20.4,14.3-32.2
					C508.7,338.6,524.2,346.5,517.7,361.5z"/>
				<path id="Path_45" class="st33" d="M488.7,381c0,0-2.1,7.2-2.6,6.8c-0.5-0.4,0.4-8.7,0.4-8.7L488.7,381z"/>
			</g>
			<g id="Body">
				<path id="Path_46" class="st34" d="M560,349.6c0,0-10.2,34.2-10.5,40.6c-0.3,6.5,8.3,25.5,6.9,30.3
					c-3.4,11.1-46.7,15.9-48.4,0.9c-0.8-7,0.8-13.2-1-21.4c-1.8-8.2-9.3-20.4-5.1-31.9c4.2-11.5,3.1-22.1,6.1-24.1s10-4.1,10-4.1
					c3.4,5,15,5,20.5-0.4C538.5,339.6,552.2,342.3,560,349.6z"/>
				<path id="Path_47" class="st35" d="M550.9,355.2c-6.8,10.8-6.8,29.6-10.4,32.1c-3.7,2.5-17.9,0-17.9,2
					c0,1.9,19.6,19.8,16.4,28.4c-1.7,4.5-1.2,8.5,1.4,12l0.8-0.2c7.7-1.7,14-4.9,15.2-8.8c1.5-4.8-8.2-23.8-7.9-30.3
					c0.3-5.5,8.4-30.9,10.8-38.5C557.3,348.2,554.5,349.4,550.9,355.2z"/>
			</g>
			<g id="RArm">
				
					<linearGradient id="Path_48_00000059306862653302989020000000934284197502453927_" gradientUnits="userSpaceOnUse" x1="525.0834" y1="907.8195" x2="524.4526" y2="926.2894" gradientTransform="matrix(1 0 0 1 0 -538.0001)">
					<stop  offset="0" style="stop-color:#FDC6C6"/>
					<stop  offset="1" style="stop-color:#FAB2B2"/>
				</linearGradient>
				
					<path id="Path_48" style="fill-rule:evenodd;clip-rule:evenodd;fill:url(#Path_48_00000059306862653302989020000000934284197502453927_);" d="
					M539.3,383.8c0,0-8.6-7.6-11.2-8.5c-2.6-0.9-18-1.9-17.9,0.1c0.1,2.1,8.4,2,9.2,3.1c0.9,1.1,1.1,8.2,4.3,9s12.9,2.2,12.9,2.2
					L539.3,383.8z"/>
				<path id="Path_49" class="st31" d="M562.1,351.6c9.1,12.8,16.8,32.2,19.7,39.8c3,7.6,0,19-13.1,16.8c-13-2.2-33.7-14.4-36-18
					s1.2-10,5.6-9.2c4.1,0.8,24.2,9.4,24.2,9.4s-13-23-16.1-29.2C541.2,351,554.2,340.3,562.1,351.6z"/>
				<path id="Path_50" class="st33" d="M562.4,390.3c0,0,6.8,3.4,6,2s-8.6-6.4-8.6-6.4L562.4,390.3z"/>
			</g>
		</g>
		<g id="Men3.2">
			<g id="LLeg_2">
				<path id="Path_51" class="st37" d="M229.7,509.2c0,0-0.1,8.7,5.2,11.8s13.6,8.8,13.6,8.8l-31.5,1.1l0.9-21.8L229.7,509.2z"/>
				<path id="Path_52" class="st38" d="M215.9,518.8l-0.5,14.1h7.3l0.5-1.8c0,0,2.8-0.1,4.3,0.7c1.7,0.8,1.9,1.2,1.9,1.2h23.2
					c0,0,1.1-4.6-5.9-7.9c-7.1-3.3-12.2-8-13.2-8.5s-3-0.8-4.4,0.4c-1.4,1.1-2.5,4.1-5.7,4.2C219.4,521.4,217,516.4,215.9,518.8z"/>
				<path id="Path_38_00000042695160271256276090000011610721199623492027_" class="st39" d="M235.7,518.2l-2.4,2.3"/>
				<path id="Path_38_x5F_2" class="st39" d="M239.2,520l-2.4,2.3"/>
				<path id="Path_38_x5F_3" class="st39" d="M242.7,521.8l-2.4,2.3"/>
				<path id="Path_53" class="st40" d="M206.6,321c0,0,8.8,96.4,9,103.1c0.3,6.7-2.8,18.3-2.8,30.8c0.1,12.5,1.1,56.7,1.1,56.7
					l19.3,0.4c0,0,8.1-79.8,8.2-91.8c0.1-12,0.8-98,0.8-98L206.6,321z"/>
				<path id="Path_54" class="st41" d="M220.5,427.1v0.2c0.3,4.1-2.2,17.5-7.6,40.3l-0.1-12.8l0,0c-0.1-12.3,2.9-23.7,2.8-30.4V424
					c-0.1-2.3-1.1-14.7-2.5-30.2l0.6,2.3C217.5,409.6,219.7,419.9,220.5,427.1z"/>
			</g>
			<g id="RLeg">
				<path id="Path_55" class="st37" d="M183.1,508l-3.7,22.6l13.7-0.1l0.4-22.8L183.1,508z"/>
				<path id="Path_56" class="st38" d="M181.6,517.7c-1.3,0.3-2.3,1.5-2.4,2.8l-0.1,3.4c-1.9,2.2-2.9,8.4-3,9.1v0.1
					c0.3,3,20.3,3,22.1,0.1c0.1-0.1,0.1-0.3,0.1-0.4c-0.2-1.3-1.3-7.4-3.5-9.1v-3.3c0-1.4-0.9-2.5-2.2-2.9l-2.1-0.6
					c-2-2.9-4.7-2.8-7.1,0.4L181.6,517.7z"/>
				<path id="Path_39_00000021818493368394007170000012408291342687092658_" class="st39" d="M184.3,519.7h5.6"/>
				<path id="Path_39_x5F_2" class="st39" d="M184.3,522.4h5.6"/>
				<path id="Path_39_x5F_3" class="st39" d="M185.2,525h3.8"/>
				<path id="Path_57" class="st42" d="M190,322.3c0,0-6.1,66.1-6.1,78.7c0.1,12.7,1.9,18.2-0.7,27.3c-2.6,9.1-4.8,81.5-4.8,81.5
					l19,2.1c0,0,12.1-77.5,13.5-88.3c1.3-10.7,17.6-102.2,17.6-102.2L190,322.3z"/>
				<path id="Path_58" class="st41" d="M195.1,367.1l-1.2,4.2c-3.4,12.4-6.5,25.5-5.7,44.2v0.9c0.2,4-2.4,27.6-7.7,70.5l-0.5,3
					c-0.5,3.1-1,5.7-1.4,7.9l0.1-3.8c0.7-21,2.5-58.7,4.5-65.6c2.6-9.1,0.8-14.6,0.7-27.3c-0.1-8.9,2.9-43.9,4.7-64.1l1.3-14.6
					l8-0.2v2.2C198.2,345.1,197.2,359.4,195.1,367.1L195.1,367.1z"/>
			</g>
			<g id="LArm_2">
				<g id="Group_6">
					<path id="Path_59" class="st37" d="M283.4,240.6c0,0-1.6-8.7-1-10.5c0.5-1.5,5.1-3.7,5.1-3.7s8-12.5,9.8-11.2
						c1.4,1-4.2,10.3-4.2,10.3s5.1,5.3,5,7.7s-8.3,9.8-8.3,9.8L283.4,240.6z"/>
					<path id="Path_60" class="st43" d="M287.7,226.2c0,0,3.5-0.5,4.1,0.6c0.5,0.9-2.5,3.6-2.5,4.3s0,6.4,0.3,6.4
						c0.2,0.1,3.6-9.2,2.8-11.1C291.9,224.8,287.7,226.2,287.7,226.2z"/>
				</g>
				<path id="Path_61" class="st34" d="M241.1,251.7c-9.3-8-23.2,6.4-7.7,19.9c5.9,5.1,24.6,17.9,29.1,20.7
					c7.3,4.5,13.2,0.4,15.7-6.6c2.1-6,14.5-38,13-42.7c-1-3.1-6.6-6-9.4-3.6c-4.1,3.5-16.5,34.4-16.5,34.4S251.7,260.8,241.1,251.7z
					"/>
				<path id="Path_62" class="st44" d="M265.4,273.8c0,0,4.1,4.9,4.4,4.2c0.3-0.8-3.2-7.1-3.2-7.1L265.4,273.8z"/>
				<path id="Path_41_00000119818908205638503590000013046752857132193170_" class="st45" d="M280.8,241.4c3.2-1.5,6.8,0.4,8.7,3.3"
					/>
			</g>
			<g id="Head_2">
				<path id="Path_63" class="st46" d="M201.3,242.4c0,0,5.3-1.2,5.5-9.8s0.1-11.5,0.1-11.5l12.7-0.2c0,0,0.1,9.6,0.1,13
					c0,7.5,5.7,9.6,5.7,9.6s-0.5,8.2-11.1,8.8C206,252.8,201.3,242.4,201.3,242.4z"/>
				<g id="Head1">
					
						<linearGradient id="Path_64_00000021110364863148907980000003037917223841711489_" gradientUnits="userSpaceOnUse" x1="238.0373" y1="752.2159" x2="228.1483" y2="753.1409" gradientTransform="matrix(1 0 0 1 0 -538.0001)">
						<stop  offset="0" style="stop-color:#4D63A0"/>
						<stop  offset="1" style="stop-color:#222735"/>
					</linearGradient>
					
						<path id="Path_64" style="fill-rule:evenodd;clip-rule:evenodd;fill:url(#Path_64_00000021110364863148907980000003037917223841711489_);" d="
						M230.8,211.9l-0.2,8.1c2.4-2.8,4-6.2,4.5-10.6L230.8,211.9z"/>
					<path id="Path_65" class="st37" d="M205.8,216.8c-5.2-0.2-4.4,7.3,1.1,7.3c0,0,5.9,11.5,15.1,11.6c4.4,0,5.9-3.9,7.2-6.6
						c1.3-2.7,2.3-6.8,2.4-9.3c0.1-2.7,0.1-11.4,0.1-11.4h-26L205.8,216.8z"/>
					<path id="Path_66" class="st48" d="M231.5,212.5h-18.3c-0.2,3.2-1.3,5.9-4.1,7.9c0.1,4.7,1.7,8.2,4.5,10.6
						c2.4-6.9,17.4-5,16.3-0.5c-2.3,9.4-23.7,9.6-22.4-12c-0.9-1.1-3.9-1.4-4.9-0.2c-1.7-4.7-1-11.4,4-12.4
						C202.8,195.8,255.8,193.6,231.5,212.5z"/>
					<path id="Path_67" class="st49" d="M219.8,230.1c0,0,2.4,1.7,5.5-0.2"/>
					<path id="Path_8_x5F_2" class="st50" d="M206.6,221.1c0.1-1.2-0.3-2.2-1.6-2.4"/>
				</g>
			</g>
			<g id="Body_2">
				<path id="Path_68" class="st34" d="M203.7,241l15.1,9.8l6.8-7.9c0,0,14.3,4.4,17,9.6c3.8,7.5-1.2,67.5,1,71.1
					c4.7,7.7-1.5,13-22.2,15c-20.7,1.9-39,0.4-35.7-9.9s-9.5-77.5,1.8-81.2C191,246.3,203.7,241,203.7,241z"/>
				<path id="Path_69" class="st44" d="M193.5,259.5c0.9,1.6,0.4,7.2-1.4,16.8c-1.6,8.2,0.2,16.6,5,23.4l0.3,0.4
					c1.6,2.2,3.1,5.2,4.5,8.8c3.3,8.9-4.4,16.4,1.5,30.4h-0.7c-11.6-0.6-19.3-3.6-17-10.5c2.7-8.4-5.4-55.1-2.2-73.7
					C189,256,192.4,257.6,193.5,259.5z"/>
				<path id="Path_70" class="st29" d="M203.7,241l13.5,8.8c-2,2.3-3,5-3.4,7.9c-5.2-4.1-10.6-9.7-12.3-15.8L203.7,241z"/>
				<path id="Path_71" class="st29" d="M219.9,249.6c2.3,1.5,4.1,4.3,5.6,7.4c1.8-3.6,2.5-8.3,2.5-13.3l-2.2-0.9L219.9,249.6z"/>
				<path id="Path_72" class="st29" d="M217.2,249.8l0.2,0.1c0.8,0.5,1.8,0.3,2.5-0.3l0,0c5.1,18.6,8.7,39.2,9.8,60l-5.3,8.8
					l-6.2-8.2C218.9,288.5,218.9,267.3,217.2,249.8z"/>
			</g>
			<g id="RArm_2">
				<g id="Example_Book_Back">
					<g id="Group_3">
						<path id="Rectangle_16" class="st51" d="M230.7,297c0.1-1.4,1.4-2.4,2.8-2.2l12.3,1.8c1.3,0.2,2.2,1.4,2.1,2.7l-2.2,21
							c-0.1,1.4-1.4,2.4-2.8,2.2l-12.3-1.8c-1.3-0.2-2.2-1.4-2.1-2.7L230.7,297z"/>
						<path id="Rectangle_17" class="st31" d="M232.1,296.6c0.2-1.4,1.5-2.4,2.9-2.2l12.9,2.5l8.8-0.1c1.5,0,2.6,1.2,2.5,2.7
							l-2.2,21c-0.1,1.2-1.2,2.2-2.4,2.2l-9.4,0.2l-13.3-2.6c-1.3-0.2-2.1-1.4-2-2.7L232.1,296.6z"/>
						<path id="Rectangle_18" class="st52" d="M234.5,301.5c0.1-0.9,1-1.6,1.9-1.4l5.9,1.1c0.8,0.2,1.4,0.9,1.3,1.7l-0.3,2.4
							c-0.1,0.9-1,1.6-1.9,1.4l-5.9-1.1c-0.8-0.2-1.4-0.9-1.3-1.7L234.5,301.5z"/>
						<path id="Rectangle_19" class="st53" d="M247,297.6c0-0.4,0.4-0.8,0.9-0.7l0.5,0.1c0.4,0,0.8,0.4,0.7,0.9l-2.5,24.2
							c0,0.4-0.4,0.8-0.9,0.7l-0.5-0.1c-0.4,0-0.8-0.4-0.7-0.9L247,297.6z"/>
						<path id="Rectangle_20" class="st52" d="M247.7,297.7c0-0.4,0.4-0.8,0.9-0.7l0.5,0.1c0.4,0,0.8,0.4,0.7,0.9l-2.5,24.2
							c0,0.4-0.4,0.8-0.9,0.7l-0.5-0.1c-0.4,0-0.8-0.4-0.7-0.9L247.7,297.7z"/>
					</g>
				</g>
				<path id="Path_73" class="st37" d="M217.5,306.4c0,0,4.6-0.9,6.5-2.4s7.6-2.5,7.6-2.5l-1.8,3.8c0,0,13.9-1.3,14.3,0.1
					c0.3,1.4-3.7,2.9-3.7,2.9s-2,3.7-3.9,5.8c-1.8,2-10.9,1.8-14,0.5c-2.7-1.1-5.7-0.5-5.7-0.5L217.5,306.4z"/>
				<path id="Path_74" class="st34" d="M180.6,253.2c5-10.7,22-3.5,17.7,8c-4.2,11.1-14.3,37-14.3,37s32,4,34.5,5.9
					c3.3,2.5,1.3,9.7-1.6,10.9c-2.4,1.1-20.2,1.7-37.5,0.3c-8.6-0.7-15-4.3-15.8-13.9C163,294.9,175.8,263.5,180.6,253.2z"/>
				<path id="Path_75" class="st44" d="M184.1,298.2c0,0-2.7,5-1.9,5.1s4.6-4.8,4.6-4.8L184.1,298.2z"/>
				<path id="Path_40_00000136374492160453884920000001987789782676077456_" class="st45" d="M216.3,303.6c1,3.1,0.3,6.8-1.1,9.4"/>
			</g>
		</g>
		<g id="Vase2">
			<g id="Group_39">
				<path id="Rectangle_21" class="st54" d="M81,443.3L81,443.3c8.3-3.7,18,0,21.6,8.3l2.9,6.5l0,0c-8.3,3.7-18,0-21.6-8.3L81,443.3
					z"/>
				<path id="Path_76" class="st55" d="M92.8,447.3c8.2,5.9,13.6,12.4,16.1,19.6s3.5,19.4,3,36.4c0,0.3,0.2,0.5,0.5,0.5
					s0.5-0.2,0.5-0.5c0.5-17.1-0.6-29.4-3.1-36.8s-8-14.1-16.4-20.1c-0.2-0.2-0.5-0.1-0.7,0.1C92.5,446.9,92.6,447.1,92.8,447.3z"/>
				<path id="Rectangle_22" class="st54" d="M151.1,439.3L151.1,439.3c-8.1-3.8-17.8-0.3-21.6,7.9l-3.2,7l0,0
					c8.1,3.8,17.8,0.3,21.6-7.9L151.1,439.3z"/>
				<g id="Group_88">
					<path id="Rectangle_23" class="st56" d="M86.1,423.4L86.1,423.4c7.8-1.7,15.6,3.3,17.2,11.2l1.3,6.4l0,0
						c-7.8,1.7-15.6-3.3-17.2-11.2L86.1,423.4z"/>
					<path id="Path_77" class="st55" d="M91.9,428.5c6,4.2,10.1,8.8,12.3,13.6l0.1,0.3l0.1,0.3c2.2,5.5,5.8,19.7,10.9,42.8
						c0.1,0.3,0.3,0.4,0.6,0.4c0.3-0.1,0.4-0.3,0.4-0.6l-0.6-2.8l-0.7-3.3c-4.6-20.4-7.9-32.9-9.9-37.5c-2.2-5.1-6.4-9.7-12.6-14
						c-0.2-0.1-0.5-0.1-0.7,0.1C91.6,428,91.6,428.3,91.9,428.5z"/>
				</g>
				<path id="Rectangle_24" class="st54" d="M139.2,418.6L139.2,418.6c-8.6-0.2-15.8,6.7-15.9,15.4l-0.1,7.7l0,0
					c8.6,0.2,15.8-6.7,15.9-15.4L139.2,418.6z"/>
				<path id="Path_78" class="st55" d="M133.6,421.7c-5.6,8.2-9.6,16-12.2,23.6s-5.1,19.3-7.7,35.1c0,0.3,0.1,0.5,0.4,0.5
					s0.5-0.1,0.5-0.4l0.3-1.9l0.2-1.3c2.4-14.2,4.7-24.8,7.1-31.8c2.5-7.5,6.6-15.3,12.1-23.4c0.1-0.2,0.1-0.5-0.1-0.7
					C134,421.4,133.7,421.4,133.6,421.7z"/>
				<g id="Group_87">
					<path id="Path_79" class="st55" d="M121.5,416.3c0,0-4.5,12.8-6.5,31.8c-2,18.9-0.8,37.8-0.8,37.8l2.2,0.2c0,0-1.2-22.1,0.2-38
						c1.4-15.9,6-31.8,6-31.8H121.5z"/>
					
						<ellipse id="Oval_6" transform="matrix(0.2419 -0.9703 0.9703 0.2419 -303.9222 430.981)" class="st57" cx="123.8" cy="410" rx="11.1" ry="7.3"/>
					
						<ellipse id="Oval_7" transform="matrix(0.2419 -0.9703 0.9703 0.2419 -304.578 431.6339)" class="st56" cx="123.9" cy="410.7" rx="7.3" ry="5.1"/>
					
						<linearGradient id="Path_80_00000038392640539830728250000005511703027444679556_" gradientUnits="userSpaceOnUse" x1="124" y1="939.4495" x2="124" y2="956.0145" gradientTransform="matrix(1 0 0 1 0 -538.0001)">
						<stop  offset="0" style="stop-color:#FE62BE"/>
						<stop  offset="1" style="stop-color:#FDB3A8"/>
					</linearGradient>
					
						<path id="Path_80" style="fill-rule:evenodd;clip-rule:evenodd;fill:url(#Path_80_00000038392640539830728250000005511703027444679556_);" d="
						M123.3,417l4.1-12.7c0.2-0.8-0.2-1.6-0.9-1.8c-0.7-0.2-1.5,0.2-1.8,0.9l-4.1,12.7c-0.2,0.8,0.2,1.6,0.9,1.8
						C122.3,418.2,123.1,417.8,123.3,417z"/>
				</g>
				<g id="Group_87_x5F_2">
					<path id="Path_81" class="st55" d="M99.5,403.6c0,0,5.8,12.3,9.8,30.9s4.8,37.6,4.8,37.6l-2.2,0.4c0,0-1.1-22.1-4.2-37.7
						s-9.3-31-9.3-31L99.5,403.6z"/>
					
						<ellipse id="Oval_8" transform="matrix(0.9397 -0.342 0.342 0.9397 -130.1193 57.0043)" class="st57" cx="96.6" cy="397.5" rx="7.3" ry="11.1"/>
					
						<ellipse id="Oval_9" transform="matrix(0.9397 -0.342 0.342 0.9397 -130.3646 57.0119)" class="st56" cx="96.5" cy="398.2" rx="5.1" ry="7.3"/>
					
						<linearGradient id="Path_82_00000060747238613333935180000000299216181413783967_" gradientUnits="userSpaceOnUse" x1="95.4819" y1="927.0634" x2="97.2129" y2="943.5385" gradientTransform="matrix(1 0 0 1 0 -538.0001)">
						<stop  offset="0" style="stop-color:#FE62BE"/>
						<stop  offset="1" style="stop-color:#FDB3A8"/>
					</linearGradient>
					
						<path id="Path_82" style="fill-rule:evenodd;clip-rule:evenodd;fill:url(#Path_82_00000060747238613333935180000000299216181413783967_);" d="
						M97.8,404.5l-5.4-12.2c-0.3-0.7,0-1.6,0.7-1.9s1.6,0,1.9,0.7l5.4,12.2c0.3,0.7,0,1.6-0.7,1.9S98.1,405.2,97.8,404.5z"/>
				</g>
				<path id="Path_83" class="st55" d="M146.6,441.3c-11.2,4.4-19.1,9.5-23.5,15.3s-7.4,14.7-8.8,26.9c0,0.3,0.2,0.5,0.4,0.5
					c0.3,0,0.5-0.2,0.5-0.4c1.4-12,4.3-20.8,8.6-26.4c4.3-5.6,12-10.6,23.1-14.9c0.2-0.1,0.4-0.4,0.3-0.6
					C147.1,441.4,146.9,441.3,146.6,441.3z"/>
			</g>
			<g id="Group_38">
				<path id="Path_151" class="st55" d="M116.5,476.6c-5.3-19-26.4-13.4-26.4-13.4s15.8,5.2,23.8,13.4H116.5z"/>
				<path id="Path_151_x5F_2" class="st55" d="M116.5,473.7c5.3-19,23.1-16.2,23.1-16.2s-10.8,8.9-20.5,16.2H116.5z"/>
				<path id="Path_151_x5F_3" class="st55" d="M116.4,477.5c-4.8-16.9,6.4-31.4,6.4-31.4s-0.6,20-4.4,30.1L116.4,477.5z"/>
				<path id="Path_114" class="st54" d="M111.8,473.7c-2.1-6.1-4.2-14.6-5.8-22.8c7.8,3.1,10.3,15.6,7.8,22.8H111.8z"/>
				<g id="Group_89">
					<path id="Rectangle_25" class="st22" d="M96.6,469.8c-0.1-1.2,0.8-2.2,2-2.2h30.7c1.2,0,2.1,1,2,2.2l-5.9,67.6
						c-0.1,1-1,1.8-2,1.8h-18.8c-1,0-1.9-0.8-2-1.8L96.6,469.8z"/>
					<g>
						<g>
							<path id="Rectangle_27_00000100382338661760413700000010442526146674652336_" class="st29" d="M92,463.1h12.9
								c-8,30.5,16.1,51.4,0,81.8H92V463.1z"/>
						</g>
					</g>
				</g>
			</g>
		</g>
		<g id="Chair4_2">
			<path id="Path_25_00000100367317066255676690000008548600683559303595_" class="st21" d="M674.3,449.9l-11.4,90.4l6-0.1
				l11.4-89.5L674.3,449.9z"/>
			<path id="Path_84" class="st21" d="M641,449.9l-11.4,90.4l6-0.1l11.4-89.5L641,449.9z"/>
			<path id="Path_85" class="st20" d="M714.1,449.9l11.4,90.4l-6-0.1l-11.4-89.5L714.1,449.9z"/>
			<path id="Path_86" class="st21" d="M636.7,464.1c-5.2,0-9.4-4.2-9.4-9.4l0,0c0-5.2,4.2-9.4,9.4-9.4h37.8c5.7,0,10.5-4.4,11-10
				l6-64.2c0.5-5.7,5.3-10,11-10h23.7c6.5,0,11.5,5.5,11.1,11.9l-6.2,81c-0.4,5.8-5.3,10.2-11.1,10.2h-83.3V464.1z"/>
			<path id="Combined_Shape_x5F_2" class="st20" d="M627.2,454.6c0.1,0,0.1,0,0.2,0h83.1c5.8,0,10.6-4.5,11.1-10.2l6.2-80.7
				c0.1-0.9,0-1.7-0.1-2.6c-0.6-0.1-1.1-0.1-1.7-0.1h-23.6c-5.7,0-10.5,4.4-11,10l-6,64c-0.5,5.7-5.3,10-11,10h-37.8
				c-5.2,0-9.4,4.2-9.4,9.4C627.2,454.4,627.2,454.5,627.2,454.6z"/>
		</g>
		<g id="Wom2.4">
			<g id="LLeg_3">
				
					<linearGradient id="Path_87_00000000911473450624627100000008701094032694169736_" gradientUnits="userSpaceOnUse" x1="640.6116" y1="1040.8746" x2="639.0156" y2="1070.7246" gradientTransform="matrix(1 0 0 1 0 -538.0001)">
					<stop  offset="0" style="stop-color:#FDC6C6"/>
					<stop  offset="1" style="stop-color:#FAB2B2"/>
				</linearGradient>
				
					<path id="Path_87" style="fill-rule:evenodd;clip-rule:evenodd;fill:url(#Path_87_00000000911473450624627100000008701094032694169736_);" d="
					M638.7,511.4c0,0,5.2,10.6,0.9,13.9s-15.7,9.6-15.7,9.6L654,533l-6.7-23.1L638.7,511.4z"/>
				<path id="Path_88" class="st34" d="M651.1,521c-0.9,0.5,0.6,4.7-2.7,4.4c-3.3-0.3-5.4-4.7-7.9-4.4c-2.5,0.3-4,4.7-8.7,7.8
					s-11.6,6.8-11.2,9.9c0.5,3.1,11.4,3.9,16.9,2.9s8.1-3.3,11.7-3.1c3.6,0.2,5.8-0.3,7-2.6C657.4,533.6,652.2,520.5,651.1,521z"/>
				<path id="Path_89" class="st61" d="M650.9,535.2h-0.3c-4.5-0.4-7.5,2.4-11.7,3.2c-4.2,0.8-15.4,1.1-17.2-1.6
					c-0.1-0.1-0.2-0.3-0.2-0.4c-0.6,0.7-0.9,1.5-0.7,2.4c0.5,3,11.4,3.7,16.9,2.8c5.5-1,8.1-3.1,11.7-2.9h0.6
					c3.2,0.1,5.3-0.4,6.3-2.5c0.3-0.5,0.2-1.6-0.1-2.9C654.7,534.3,652.8,535.2,650.9,535.2L650.9,535.2z"/>
				<path class="st22" d="M694.9,450.4c-20.1,9.3-66.5,1.2-66.5,1.2c13.8,12.2,16.3,45.6,21.7,58.9c2.9,7.2-9.4,9.6-11.9,5.3
					c-3.5-6.2-15.3-28-24.4-44.6c-3.5-6.3-6.6-11.8-8.8-15.5c-7-12,0.8-22.3,10-24.2c3.9-0.8,15-3.2,27.4-5.8
					c17.1-3.6,36.4-7.5,41.7-7.7C706.1,417,709.4,443.8,694.9,450.4z"/>
			</g>
			<g id="LArm_3">
				
					<linearGradient id="Path_91_00000155858638966005522220000010137892444880189621_" gradientUnits="userSpaceOnUse" x1="625.5909" y1="867.5085" x2="621.3509" y2="928.0585" gradientTransform="matrix(1 0 0 1 0 -538.0001)">
					<stop  offset="0" style="stop-color:#FDC6C6"/>
					<stop  offset="1" style="stop-color:#FAB2B2"/>
				</linearGradient>
				
					<path id="Path_91" style="fill-rule:evenodd;clip-rule:evenodd;fill:url(#Path_91_00000155858638966005522220000010137892444880189621_);" d="
					M620.5,361.1c0,0,0.1-5.4-2.5-9.3s-2.7-8-4.7-7.9s0,9.7,0,9.7s-2.5-1-4.3-2.2s-7.2-7.1-8.5-6.1c-2.2,1.8,1.3,11.9,3.2,13.9
					s11.2,7.7,11.2,7.7l27.5,27.7l4.2-14.6L620.5,361.1z"/>
				<path id="Path_92" class="st63" d="M675.5,358.6c-4.2,9.8-12,27.9-15.2,33.3c-4,6.8-10.3,9.7-17.8,4.7c-1.6-1-6-4.7-6-4.7
					c0.7-6.4,3.1-11.8,7.2-16.1l2.8,2.3c0,0,8-20.4,14.4-32.2C666.5,335.7,682,343.7,675.5,358.6z"/>
				<path id="Path_93" class="st44" d="M646.5,378.2c0,0-2.1,7.3-2.6,6.8c-0.5-0.4,0.4-8.7,0.4-8.7L646.5,378.2z"/>
			</g>
			<g id="Head_3">
				<path id="Path_94" class="st64" d="M693.9,320.4v8.7l6.4-5.2c0,0,2-8.3,3.6-14.5c1-3.9,3.4-17-6.4-16.4
					c-8.1-14.2-31.5-5.4-31.7,11.9c-0.2,20.9,0,29,0,29C679,334.7,686.4,332.8,693.9,320.4z"/>
				
					<linearGradient id="Path_95_00000160169432956815223600000013516714333302380456_" gradientUnits="userSpaceOnUse" x1="694.6427" y1="842.285" x2="683.4178" y2="891.8218" gradientTransform="matrix(1 0 0 1 0 -538.0001)">
					<stop  offset="0" style="stop-color:#FFAFAF"/>
					<stop  offset="1" style="stop-color:#F07777"/>
				</linearGradient>
				
					<path id="Path_95" style="fill-rule:evenodd;clip-rule:evenodd;fill:url(#Path_95_00000160169432956815223600000013516714333302380456_);" d="
					M700.4,337c0,0-6-1.4-6.2-11.1c-0.2-9.8-0.1-13.1-0.1-13.1l-13.1-0.2c0,0-0.1,10.9-0.1,14.8c0,9.6-7,10.3-7,10.3
					s1.2,7.9,13.1,8.6C696.3,346.7,700.4,337,700.4,337z"/>
				
					<linearGradient id="Path_96_00000148621564401326960370000007046812439571082936_" gradientUnits="userSpaceOnUse" x1="687.6517" y1="831.9154" x2="680.9919" y2="864.5126" gradientTransform="matrix(1 0 0 1 0 -538.0001)">
					<stop  offset="0" style="stop-color:#FDC6C6"/>
					<stop  offset="1" style="stop-color:#FAB2B2"/>
				</linearGradient>
				
					<path id="Path_96" style="fill-rule:evenodd;clip-rule:evenodd;fill:url(#Path_96_00000148621564401326960370000007046812439571082936_);" d="
					M697.3,307.9c5.8-0.2,4.9,8.3-1.2,8.3c0,0-3.5,12.2-15.8,12.2c-9.9,0-10.6-14.2-10.7-17c-0.1-3-0.1-12.9-0.1-12.9h28
					L697.3,307.9z"/>
				<path id="Path_97" class="st64" d="M697.7,307.8c-2.4,0.4-2.1,2-2.8,1.9c-3.3-0.7-16.9,0.2-18.6-7.2c-2.2,4.7-2.7,5.8-7.5,7
					v-13.6L699,293C699,293,698.6,307.7,697.7,307.8z"/>
				<path id="Path_98" class="st25" d="M682.7,320.2c0,0-2.9,2.5-6.3,0.2"/>
				<path id="Path_99" class="st26" d="M680.7,323.1c-0.9,0.4-1.8,0.4-2.6,0"/>
				<path id="Path_8_x5F_3" class="st27" d="M696.7,312.5c-0.1-1.4,0.4-2.5,1.8-2.7"/>
			</g>
			<g id="Body_3">
				<path id="Path_100" class="st67" d="M699.1,336c-7.5,4.6-16.1,6.3-24.1,1.3c-13.1,25.9-16.4,56.7-13.2,90.8
					c19.1,7.6,35.2,6.1,48.9-2.6L699.1,336z"/>
				<g id="RLeg_2">
					
						<linearGradient id="Path_101_00000129921548985750746080000015412413223795319942_" gradientUnits="userSpaceOnUse" x1="599.2702" y1="1041.9155" x2="597.7092" y2="1075.1886" gradientTransform="matrix(1 0 0 1 0 -538.0001)">
						<stop  offset="0" style="stop-color:#FDC6C6"/>
						<stop  offset="1" style="stop-color:#FAB2B2"/>
					</linearGradient>
					
						<path id="Path_101" style="fill-rule:evenodd;clip-rule:evenodd;fill:url(#Path_101_00000129921548985750746080000015412413223795319942_);" d="
						M606,511.8c0,0,0.2,12.5-10.1,17.1c-10.3,4.7-17.6,4.4-16.7,8c0.9,3.6,27.7,3.5,30.2,0.6c2.1-2.4,6.8-24.7,8-23L606,511.8z"/>
					<path id="Path_102" class="st34" d="M613.5,529.5c-1.6-1.1-2.9,5.4-7.2,3.6s-0.9-7.8-3.6-8.9c-2.7-1.1-7.9,4.8-14.8,6.3
						c-6.9,1.4-12.5,2.7-14.1,5.4c-1.4,2.3,0,3,0,3s6.6,3.3,10.8,4c6,1.1,23.3,1.8,25.2-0.2C611,541.5,614.3,530,613.5,529.5z"/>
					<path id="Path_103" class="st61" d="M573.4,536.1c-1.3,2.1,0.8,3.2,1,3.3l1,0.4c1.9,0.8,6.1,2.5,9.3,3.1
						c5.7,1.1,23.5,1.8,25.5-0.1c0.3-0.3,0.8-1.5,1.2-3.1l-1.2,0.1c-5.9,0.6-19,1.7-25.5,0.2c-5.7-1.4-8.9-3.6-10.3-4.9
						C573.9,535.4,573.6,535.7,573.4,536.1z"/>
					<path id="Path_104" class="st22" d="M712.7,414.2c0,0,13.3,28-5.4,37.6c-18,9.3-72-1.7-72-1.7s1,7.8,0,14.7
						c-2.5,18.1-14.5,48.2-17,52c-3.5,5.2-14.2,1.3-14.4-3.1c-0.2-4.4,8-60,9.3-70.7c1.2-10.6,5.2-12.2,16.7-15.1
						c2.6-0.7,33.9-8.4,36.8-8.2C691.3,421.7,712.7,414.2,712.7,414.2z"/>
					<path id="Path_105" class="st31" d="M698.2,448.9c-17.8,2-65.1-2.1-67-0.2c-1.8,1.8-1.5,32.9-5.6,50.9l0.6-1.7
						c3.8-10.6,7.8-23.5,9.1-33.1c1-6.9,0-14.7,0-14.7l2.2,0.4c10.3,1.9,54,9.5,69.8,1.3c8.6-4.4,12.1-11.8,10.5-22.1
						C715.1,441.3,708.6,447.8,698.2,448.9z"/>
				</g>
				<path id="Path_106" class="st63" d="M698.8,336c-12.4,40.5-19.8,98,18.8,88c-20.5-37.8,7.4-54.8,1.1-74.3
					C716.5,343,698.9,335.5,698.8,336z"/>
				<path id="Path_107" class="st44" d="M712.7,352.8c-14,2.1-2.5,26.5-7.1,30.2s-12.6,4.1-13.5,6.3c-1.7,4.5,6.7,15.9,25.2,34.2
					l0.2,0.4c-17.9-32.9,1-50.1,2-66.8C717.5,353.9,715.2,352.5,712.7,352.8z"/>
				<path id="Path_108" class="st63" d="M675.6,337c-4.7,11.8-7,21.1-9.1,38.5c-1.8,14.5-0.9,44.3-0.9,44.3l-5.8,1.1
					c0,0-4.2-46.1-2.8-52.1c2.3-10,3.9-15.8,7-24.9C665.7,339,675.6,337,675.6,337z"/>
			</g>
			<g id="RArm_3">
				
					<linearGradient id="Path_109_00000134969610393009463360000018101590881440882101_" gradientUnits="userSpaceOnUse" x1="697.6643" y1="901.0285" x2="696.157" y2="940.4124" gradientTransform="matrix(1 0 0 1 0 -538.0001)">
					<stop  offset="0" style="stop-color:#FDC6C6"/>
					<stop  offset="1" style="stop-color:#FAB2B2"/>
				</linearGradient>
				
					<path id="Path_109" style="fill-rule:evenodd;clip-rule:evenodd;fill:url(#Path_109_00000134969610393009463360000018101590881440882101_);" d="
					M696.2,382c0,0-7.6-7.6-10.3-8.5c-2.6-0.9-17.1-1.9-17,0.1c0.1,2.1,9.4,2,10.3,3.1c0.9,1.1,2.1,9.3,5.3,10.1
					c3.2,0.8,10,3.2,10,3.2l29.9,15.5l-3.2-15.5L696.2,382z"/>
				<path id="Path_110" class="st63" d="M719.1,349.7c9.1,12.8,16.8,32.3,19.8,39.9s0,19.1-13.1,16.8c-1.6-0.3-4.1-1.3-4.1-1.3
					c-4.8-6.6-5.7-12.3-3.9-17.3l1.7,0.7c0,0-13-23-16.2-29.2C698,349.1,711.1,338.4,719.1,349.7z"/>
				<path id="Path_111" class="st44" d="M719.5,388.7c0,0,6.6,3.2,5.8,1.8c-0.8-1.4-8.3-6.3-8.3-6.3L719.5,388.7z"/>
			</g>
		</g>
		<g id="Example_Ipad1">
			<g id="Group_3_x5F_2">
				
					<linearGradient id="Rectangle_28_00000155839896550692598290000008018849405598201259_" gradientUnits="userSpaceOnUse" x1="592.9473" y1="869.265" x2="604.8722" y2="917.0919" gradientTransform="matrix(1 0 0 1 0 -538.0001)">
					<stop  offset="0" style="stop-color:#CDCECF"/>
					<stop  offset="1" style="stop-color:#3B5157"/>
				</linearGradient>
				
					<path id="Rectangle_28" style="fill-rule:evenodd;clip-rule:evenodd;fill:url(#Rectangle_28_00000155839896550692598290000008018849405598201259_);" d="
					M581.6,346c-0.3-1.3,0.5-2.7,1.8-3l23.5-5.9c1.3-0.3,2.7,0.5,3,1.8l8.5,34.2c0.3,1.3-0.5,2.7-1.8,3l-23.5,5.9
					c-1.3,0.3-2.7-0.5-3-1.8L581.6,346z"/>
				<path id="Rectangle_29" class="st71" d="M582.5,346.6c-0.3-1.3,0.5-2.7,1.8-3l23.5-5.9c1.3-0.3,2.7,0.5,3,1.8l8.5,34.2
					c0.3,1.3-0.5,2.7-1.8,3l-23.5,5.9c-1.3,0.3-2.7-0.5-3-1.8L582.5,346.6z"/>
				<path id="Rectangle_30" class="st72" d="M583.5,346.9c-0.3-1.2,0.4-2.4,1.6-2.7l22.1-5.5c1.2-0.3,2.4,0.4,2.7,1.6l7.7,30.9
					c0.3,1.2-0.4,2.4-1.6,2.7l-22.1,5.5c-1.2,0.3-2.4-0.4-2.7-1.6L583.5,346.9z"/>
			</g>
		</g>
		<g id="Group_26_x5F_10">
			<g id="Group_25">
				<path id="Rectangle_31" class="st73" d="M378.8,395.9h11.4v144.9h-11.4V395.9z"/>
				<path id="Rectangle_32" class="st74" d="M267,400.6h90.2v26.9H282v113.2h-15V400.6L267,400.6z"/>
				<path id="Rectangle_33" class="st75" d="M266.4,400.6h8v140.1h-8V400.6z"/>
			</g>
			<g id="Group_25_x5F_2">
				<path id="Rectangle_34" class="st73" d="M659,400.6h16v140.1h-16V400.6z"/>
				<path id="Rectangle_35" class="st75" d="M659,395.9h10v144.9h-10V395.9z"/>
				<path id="Rectangle_36" class="st74" d="M526.6,400.6h139v26.6H545.3v113.6h-18.7V400.6z"/>
				<path id="Rectangle_37" class="st75" d="M278.2,395.9h248.9v40.2H278.2V395.9z"/>
				<path id="Rectangle_38" class="st73" d="M521.4,400.6h11.4v35.5h-11.4V400.6z"/>
				<path id="Rectangle_39" class="st75" d="M526.6,400.6h9v140.1h-9V400.6z"/>
				<path id="Rectangle_40" class="st73" d="M528.1,403c0-3.9,3.2-7.1,7.1-7.1h145.1c3.9,0,7.1,3.2,7.1,7.1l0,0
					c0,3.9-3.2,7.1-7.1,7.1H535.2C531.3,410.2,528.1,407,528.1,403L528.1,403z"/>
				<path id="Rectangle_41" class="st73" d="M275.3,398.7h248.9V413H275.3V398.7z"/>
				<path id="Rectangle_42" class="st75" d="M254.4,403c0-3.9,3.2-7.1,7.1-7.1H538c3.9,0,7.1,3.2,7.1,7.1l0,0c0,3.9-3.2,7.1-7.1,7.1
					H261.5C257.6,410.2,254.4,407,254.4,403L254.4,403z"/>
			</g>
		</g>
		<g id="Men2.8">
			<g id="RLeg_3">
				<path id="Path_112" class="st76" d="M299,505.2l-7.9,25.6l16.6,0.6c0,0-1.9-8.8,0.8-17c2.1-6.6,3.9-9.9,3.9-9.9L299,505.2z"/>
				<path id="Path_113" class="st77" d="M307.2,524.4c0,0,6.3,5.9,12.4,8c6.1,2.1,8.4,2.2,8.8,3l0.1,0.2c1.3,2.6,0.5,6-13.4,6.2
					c-3.4,0-6.9-1.9-16.2-4l-0.7,3.6c-5.2-0.1-8.2-0.9-9.1-2.5c-1.3-2.4,0.9-13.9,2.5-14.2c1.5-0.2,1.8,4.5,6,4.6
					C301.8,529.5,307.2,524.4,307.2,524.4z"/>
				<path id="Combined_Shape_x5F_3" class="st78" d="M319.5,532.4c-0.2,0.2-0.4,0.3-0.7,0.5c-0.9,0.6-2.3,1-4.2,0.6
					c-1-0.2-2-0.8-3.1-1.6c-1-0.8-2.1-1.7-3-2.6c-0.9-0.9-1.8-1.8-2.3-2.5c-0.3-0.3-0.5-0.6-0.7-0.8c0,0,0-0.1-0.1-0.1
					c0.1-0.1,0.3-0.2,0.4-0.3c0,0,0,0,0.1,0.1c0.2,0.2,0.4,0.5,0.7,0.8c0.6,0.7,1.4,1.5,2.3,2.4c0.9,0.9,2,1.8,3,2.6
					c1,0.8,2,1.3,2.9,1.5c1.7,0.4,3,0,3.8-0.5c0.1-0.1,0.3-0.2,0.4-0.3C319.1,532.2,319.3,532.3,319.5,532.4z"/>
				<path id="Path_114_00000097487112677178668510000001650824079126732943_" class="st79" d="M261.2,424.9c0,0,65.8,5.3,74.9,5.5
					c9.1,0.3,16,13.2,9,25.2c-7.9,13.4-29.3,52-33.5,60.9c-3.5,7.5-19.6,4.5-16.7-7.1c3.5-13.8,9.9-44.7,23.7-56.9
					c0,0-33.5,12.1-52.3,0.4C255.4,446.2,261.2,424.9,261.2,424.9z"/>
				<path id="Path_115" class="st80" d="M345.1,455.6l-1,1.8c-4,6.9-10.4,18.5-16.6,29.9l0.3-1c4.8-15.1,12.1-33,15.3-38.4
					c1.1-1.9,2.6-3.9,4.5-5.8C348.4,446.1,347.8,451,345.1,455.6z"/>
			</g>
			<g id="LLeg_4">
				<path id="Path_116" class="st76" d="M370.6,505.5c0,0,4.4,19.6,10.1,21.7c2.2,0.8-16.9,3.1-16.9,3.1l-4.8-18.8L370.6,505.5z"/>
				<path id="Path_117" class="st77" d="M361.1,523.6l-0.3,16.5h6.6l0.1-3.7c0,0,5.1,3.1,8.6,4.2c4.7,1.5,23.1,0.7,25.2-1.5
					s2.1-5.8-2.2-6.2c-4.3-0.4-11.4-1.7-14.4-4.1c-3.7-2.8-5.1-7.3-6.2-7.3c-1.6,0-1.8,5.2-10.1,5.3
					C365.2,526.9,361.1,523.6,361.1,523.6z"/>
				<path id="Path_118" class="st78" d="M376.8,523c0,0,4.2,6.6,6.8,7.6c2.5,0.9,4.6-0.1,4.6-0.1s-4.4-1.7-6-4.8
					C378.3,518.9,377.5,522.4,376.8,523z"/>
				<path id="Path_119" class="st79" d="M266.7,430.2c0,0-0.1,21,14,26.3s60.1,3.3,60.1,3.3s14.6,53.7,18.1,58.9
					c3.5,5.2,20.1,5.8,19.2-6.3c-0.9-12-7.4-56.8-8.6-67.4s-5.2-13.1-16.7-15c-4-0.7-2.3-1.7-28.3-3c-5.6-0.3-14.9,1.8-23.5,2.8
					C292.4,430.8,266.7,430.2,266.7,430.2z"/>
				<path id="Path_120" class="st80" d="M312.6,430.7v-2.4l1.2-0.2c4.2-0.6,8-1.1,10.8-1l3,0.1c22.8,1.2,21.4,2.2,25.3,2.8l0.7,0.1
					c10.7,1.8,14.5,4.4,15.8,14.2l0.4,3c1.7,13.6,7.5,53.8,8.3,65.1c0.1,0.9,0,1.7-0.1,2.5l-3.4-16.9c-5-25.1-7.7-40-8.3-44.6
					l-0.1-1c-1.1-8.2-4-18.5-13.5-17.8l-0.8,0.1c-6.7,0.5-19.3-0.8-37.8-3.8L312.6,430.7z"/>
				
					<ellipse id="Oval_10" transform="matrix(0.225 -0.9744 0.9744 0.225 -141.0423 716.6074)" class="st81" cx="379.9" cy="447" rx="6.6" ry="3.8"/>
			</g>
			<g id="RArm_4">
				
					<linearGradient id="Path_121_00000072971046302138715790000012741048510785437882_" gradientUnits="userSpaceOnUse" x1="275.8827" y1="933.1135" x2="287.6336" y2="959.2335" gradientTransform="matrix(1 0 0 1 0 -538.0001)">
					<stop  offset="0" style="stop-color:#FDC6C6"/>
					<stop  offset="1" style="stop-color:#A47070"/>
				</linearGradient>
				
					<path id="Path_121" style="fill-rule:evenodd;clip-rule:evenodd;fill:url(#Path_121_00000072971046302138715790000012741048510785437882_);" d="
					M276.9,402.3c0,0,15.4,3.6,15.2,5c-0.2,1.4-6.9,1.6-6.9,1.6s12.5,8.1,11.5,9.7s-9.2,3.4-12.6,2.1s-12.2-10.5-12.2-10.5
					L276.9,402.3z"/>
				<path id="Path_122" class="st63" d="M277,356.7c-5.2,6.4-22.7,25.8-22.7,25.8s17.6,12.5,22,15.2c7.3,4.3-0.1,15.9-5.4,14.6
					c-7.2-1.7-25.4-14.3-34-19.4s-5.3-13.3,1-20.8c4.9-5.8,15.4-17.5,22.9-27.9C268.2,333.9,287,344.4,277,356.7z"/>
				<path id="Path_15_00000135693456518278735040000017135470471762056346_" class="st44" d="M254.3,382.5c0,0-4.9,4.8-4.4,5.1
					c0.5,0.4,6.5-3.7,6.5-3.7L254.3,382.5z"/>
			</g>
			<g id="Head_4">
				
					<linearGradient id="Path_123_00000065040858868109938000000017124686155267546759_" gradientUnits="userSpaceOnUse" x1="296.3381" y1="828.3536" x2="292.8621" y2="875.2538" gradientTransform="matrix(1 0 0 1 0 -538.0001)">
					<stop  offset="0" style="stop-color:#FDC6C6"/>
					<stop  offset="1" style="stop-color:#A47070"/>
				</linearGradient>
				
					<path id="Path_123" style="fill-rule:evenodd;clip-rule:evenodd;fill:url(#Path_123_00000065040858868109938000000017124686155267546759_);" d="
					M307.7,310c4.3,0.5,4,8.1-1.2,8.5c-1.1,7.3-4.9,10.8-9.6,11.2l0.3,11.1h-20.7c0,0,5.8-7.8,5.5-18.6c-0.3-10.7,0.2-20.8,0.2-20.8
					l26.8,0.5L307.7,310z"/>
				<path id="Path_124" class="st84" d="M299.2,289.3c15.9,4,9.4,21,9.4,21c-4.8-0.7-9.4,5.2-11.2,10.9c-5.1,5.2-11.7,5.2-16,2.2
					c0,0-6-18.6-4.1-24.8C279.3,292.4,284.7,285.6,299.2,289.3z"/>
			</g>
			<g id="Body_4">
				<path id="Path_125" class="st63" d="M261.6,343.3c-1.4,2.4-2.5,12.2,0,51.1c1.3,20.1-4.1,40-2.7,48.7s11,9.8,11,9.8l5.6-18.2
					l2.6,18.2c0,0,39.7-3.7,43.2-12.8c3.5-9.1-0.9-30.4-1.9-50.4c-1-20.1-0.3-40.8-2.2-44c-3.8-6.3-13.7-9.2-19.9-10.1
					c-7.8-1.2-17.8-1.2-23.8,0.7C267.5,338.2,263,340.9,261.6,343.3z"/>
				<path id="Path_126" class="st44" d="M302,357.1c3.1,23.1,7.3,39.4,12.6,48.7c2.2,3.9,4.4,5.4,6.6,4.8l-0.5-5.1
					c-0.5-5.2-1-10.5-1.3-15.8c-0.2-3.7-0.3-7.4-0.4-10.9L302,357.1z"/>
				<path id="Path_127" class="st85" d="M273.5,336.3c-0.4,0.1-0.7,0.2-1.1,0.4c8.6,3.7,22.8,3.2,30.5,0.2c-2-0.6-3.9-1-5.6-1.2
					C289.5,334.4,279.4,334.4,273.5,336.3z"/>
			</g>
			<g id="LArm_4">
				
					<linearGradient id="Path_128_00000106143402108058820340000010526171790273003929_" gradientUnits="userSpaceOnUse" x1="386.8191" y1="880.0266" x2="384.4691" y2="912.6655" gradientTransform="matrix(1 0 0 1 0 -538.0001)">
					<stop  offset="0" style="stop-color:#FDC6C6"/>
					<stop  offset="1" style="stop-color:#A47070"/>
				</linearGradient>
				
					<path id="Path_128" style="fill-rule:evenodd;clip-rule:evenodd;fill:url(#Path_128_00000106143402108058820340000010526171790273003929_);" d="
					M378.8,377.2c0,0,12.8-8.5,15-10.2c2.3-1.7,5.1-14.7,3.3-16.5c-0.8-0.9-7.2,5-8.4,5.8c-1.1,0.8-6.9,4.3-6.9,4.3
					s1.6-9.9,0.2-10.7c-1-0.6-3.1,2-3.4,4.7s-3.2,6.2-3.6,10.3c-0.2,1.8-1.9,5.2-1.9,5.2L378.8,377.2z"/>
				<path id="Path_129" class="st63" d="M302.6,360.8c4.9,10.2,13.2,25.1,17.8,33.8c5.4,10.3,11.9,14.7,24.8,7
					c10.9-6.4,26.6-16.7,34.7-22.3c7.5-5.2-1.4-18.1-8.5-13.8c-9.5,5.8-33.6,17.2-33.6,17.2S325.4,360,320.2,349
					C313.6,335.2,293.1,341.1,302.6,360.8z"/>
				<path id="Path_130" class="st44" d="M337.8,382.7c0,0,2.3,8,2.8,7.7s-0.4-8.8-0.4-8.8L337.8,382.7z"/>
			</g>
		</g>
		<g id="Chair8">
			<path id="Path_131" class="st20" d="M287.4,461.2l-11.4,81l6-0.1l11.4-80L287.4,461.2z"/>
			<path id="Path_132" class="st21" d="M325.5,461.2l11.4,81l-6-0.1l-11.4-80L325.5,461.2z"/>
			<path id="Path_133" class="st20" d="M252.5,461.2l-11.4,81l6-0.1l11.4-80L252.5,461.2z"/>
			<path id="Path_134" class="st20" d="M329.9,466c5.2,0,9.4-4.2,9.4-9.4l0,0c0-5.2-4.2-9.4-9.4-9.4h-37.8c-5.7,0-10.5-4.4-11-10
				l-6-64.2c-0.5-5.7-5.3-10.1-11-10.1h-23.7c-6.5,0-11.6,5.5-11.1,11.9l6.2,81c0.4,5.8,5.3,10.2,11.1,10.2H329.9z"/>
			<path id="Combined_Shape_x5F_4" class="st21" d="M339.4,456.5c-0.1,0-0.1,0-0.2,0h-52c-5.8,0-10.6-4.5-11.1-10.2l-6.3-81.9
				c2.9,1.8,5,4.8,5.4,8.5l6,64c0.5,5.7,5.3,10,11,10h37.6c5.2,0,9.4,4.2,9.4,9.4C339.4,456.3,339.4,456.4,339.4,456.5z"/>
		</g>
		<g id="Front_Laptop3">
			
				<linearGradient id="Rectangle_43_00000005971923835091772510000003917395863489425551_" gradientUnits="userSpaceOnUse" x1="510.85" y1="931.2235" x2="510.85" y2="934.4025" gradientTransform="matrix(1 0 0 1 0 -538.0001)">
				<stop  offset="0" style="stop-color:#CDCECF"/>
				<stop  offset="1" style="stop-color:#3B5157"/>
			</linearGradient>
			
				<path id="Rectangle_43" style="fill-rule:evenodd;clip-rule:evenodd;fill:url(#Rectangle_43_00000005971923835091772510000003917395863489425551_);" d="
				M553.6,394.5c0-0.4-0.3-0.7-0.7-0.7h-84.1c-0.4,0-0.7,0.3-0.7,0.7v1.1c0,0.4,0.3,0.7,0.7,0.7h84.1c0.4,0,0.7-0.3,0.7-0.7V394.5z"
				/>
			<path id="Rectangle_44" class="st71" d="M553.6,394.5c0-0.4-0.3-0.7-0.7-0.7h-32.3c-0.4,0-0.7,0.3-0.7,0.7v1.1
				c0,0.4,0.3,0.7,0.7,0.7h32.3c0.4,0,0.7-0.3,0.7-0.7V394.5z"/>
			<path id="Rectangle_45" class="st71" d="M559.7,358.4c0.3-2.2-1.4-4.1-3.6-4.1h-55.8c-1.8,0-3.3,1.3-3.6,3.1l-4.2,32.4
				c-0.3,2.2,1.4,4.1,3.6,4.1h55.8c1.8,0,3.3-1.3,3.6-3.1L559.7,358.4z"/>
			
				<linearGradient id="Rectangle_46_00000034057793198765182830000001301642317784130953_" gradientUnits="userSpaceOnUse" x1="525" y1="883.2985" x2="525" y2="931.9257" gradientTransform="matrix(1 0 0 1 0 -538.0001)">
				<stop  offset="0" style="stop-color:#CDCECF"/>
				<stop  offset="1" style="stop-color:#3B5157"/>
			</linearGradient>
			
				<path id="Rectangle_46" style="fill-rule:evenodd;clip-rule:evenodd;fill:url(#Rectangle_46_00000034057793198765182830000001301642317784130953_);" d="
				M558,358.4c0.3-2.2-1.4-4.1-3.6-4.1h-54.6c-1.8,0-3.3,1.3-3.6,3.1l-4.2,32.4c-0.3,2.2,1.4,4.1,3.6,4.1h54.6
				c1.8,0,3.3-1.3,3.6-3.1L558,358.4z"/>
			<path id="Rectangle_47" class="st72" d="M556,359.8c0.2-1.9-1.3-3.7-3.2-3.7H501c-1.6,0-3,1.2-3.2,2.8l-3.7,29.2
				c-0.2,1.9,1.3,3.7,3.2,3.7h51.8c1.6,0,3-1.2,3.2-2.8L556,359.8z"/>
		</g>
		<g id="Wom3.8">
			<g id="RArm_5">
				
					<linearGradient id="Path_135_00000171716572215485285060000006217278551410925198_" gradientUnits="userSpaceOnUse" x1="400.64" y1="913.9608" x2="421.1851" y2="960.9058" gradientTransform="matrix(1 0 0 1 0 -538.0001)">
					<stop  offset="0" style="stop-color:#FDC6C6"/>
					<stop  offset="1" style="stop-color:#FFCCA1"/>
				</linearGradient>
				
					<path id="Path_135" style="fill-rule:evenodd;clip-rule:evenodd;fill:url(#Path_135_00000171716572215485285060000006217278551410925198_);" d="
					M419.2,404.2c0,0,13.6,3.2,13.5,4.4c-0.1,1.3-6.1,1.4-6.1,1.4s11.1,7.2,10.2,8.6s-8.1,3-11.1,1.9s-10.8-9.4-10.8-9.4l-21.8-11.7
					l7.3-9.6L419.2,404.2z"/>
				<path id="Path_136" class="st90" d="M419.4,363.6c-4.6,5.7-20.1,23-20.1,23l3.1,2.3l-10,12.1c0,0-6.4-3.9-8.5-5.2
					c-7.6-4.5-4.7-11.8,0.9-18.5c4.3-5.1,13.6-15.6,20.2-24.8S428.2,352.6,419.4,363.6z"/>
				<path id="Path_15_x5F_2" class="st44" d="M399.3,386.6c0,0-4.4,4.2-3.9,4.6c0.5,0.3,5.7-3.3,5.7-3.3L399.3,386.6z"/>
				<path id="Path_76_00000150097789048019836970000004401908376356361651_" class="st91" d="M401.7,387.6l-13,12.9l6.5,4.3
					l8.9-15.3L401.7,387.6z"/>
			</g>
			<g id="LLeg_5">
				
					<linearGradient id="Path_137_00000048477652117510019250000005840321780423625143_" gradientUnits="userSpaceOnUse" x1="445.9388" y1="1034.0349" x2="443.2417" y2="1062.213" gradientTransform="matrix(1 0 0 1 0 -538.0001)">
					<stop  offset="0" style="stop-color:#FDC6C6"/>
					<stop  offset="1" style="stop-color:#FAB2B2"/>
				</linearGradient>
				
					<path id="Path_137" style="fill-rule:evenodd;clip-rule:evenodd;fill:url(#Path_137_00000048477652117510019250000005840321780423625143_);" d="
					M443.2,503.2l-7,22.6l11.8,0.5c0,0-1.7-7.7,0.7-15c1.9-5.8,3.5-8.7,3.5-8.7L443.2,503.2z"/>
				<path id="Path_138" class="st77" d="M448.1,519.8c0,0-0.2,5.8,1.8,7.6c2,1.8,12.7,8.5,13.6,9.9c0.9,1.4-0.4,3-0.4,3
					s-10.9,1.7-16-0.9c-3.7-1.9-6.4-3.5-6.4-3.5l-1.1,2.9l-6-0.9c0,0-1.8-4.6-1-7c0.8-2.3,4.9-13.1,4.9-13.1L448.1,519.8z"/>
				<path id="Path_139" class="st93" d="M408.8,426c8.9,0.9,52.7,11.3,61.7,13.1c9,1.9,16.6,11.9,9.8,23.5
					c-7.7,13-29.5,53.5-29.5,53.5c-0.1,0-0.3,0.1-0.4,0.1c-4.4,0-8.4-0.6-12.2-3.3c0,0,5.8-42.4,19.3-54.3c0,0-34.8,12.5-52.2-1.1
					C394.9,449.5,399.1,425.1,408.8,426z"/>
				<path id="Combined_Shape_x5F_5" class="st80" d="M477.2,442.3l-2.4,30c0.2-0.4,0.4-0.7,0.6-1l2.3-28.6
					C477.5,442.5,477.3,442.4,477.2,442.3z"/>
			</g>
			<g id="RLeg_4">
				
					<linearGradient id="Path_140_00000170260372633583429050000003046968091226725256_" gradientUnits="userSpaceOnUse" x1="511.1614" y1="1033.3265" x2="508.9294" y2="1059.3085" gradientTransform="matrix(1 0 0 1 0 -538.0001)">
					<stop  offset="0" style="stop-color:#FDC6C6"/>
					<stop  offset="1" style="stop-color:#FAB2B2"/>
				</linearGradient>
				
					<path id="Path_140" style="fill-rule:evenodd;clip-rule:evenodd;fill:url(#Path_140_00000170260372633583429050000003046968091226725256_);" d="
					M508.7,501.4c0,0,3.9,17.3,8.9,19.1c1.9,0.7-12,2.7-12,2.7l-4.2-16.6L508.7,501.4z"/>
				<path id="Path_141" class="st77" d="M503.9,518.5l3.7,21.6l6.4-1l-0.8-5.3c0,0,2.8,4.7,5.9,4.5c3.1-0.2,18.8-2.6,18.8-2.6
					s0.4-5.2-6.8-6.4c-6-1-16.2-12.5-16.2-12.5L503.9,518.5z"/>
				<path id="Path_142" class="st95" d="M416.3,423.2c0,0-12.8,27.2,5.2,36.5c17.4,9,63.8-2.6,63.8-2.6s-0.9,7.5,0,14.3
					c2.4,17.5,14.4,39.1,15.5,42.7c0.5,1.8,13.9-0.9,13.9-3c0-2.1-6.8-50.5-8-60.8s-5-11.8-16.2-14.6c-2.6-0.6-35.7-8.2-38.5-8
					C428.3,429.5,416.3,423.2,416.3,423.2z"/>
				<path id="Path_143" class="st80" d="M452.1,427.7c2.8-0.2,35.9,7.3,38.5,8l1.8,0.5c9.5,2.5,13,4.3,14.2,13.5l0.3,2.6
					c1,7.6,3.7,25.6,5.9,40.6c-2.4-5.5-4.4-11.6-6-18.3c-3.7-15.6-2.9-28.4-3.9-30.7c-1-2.2-49.5-9.4-57.8-10.9
					c-3.6-0.6-5.7-2.2-6.1-4.8C443,428.2,447.4,428,452.1,427.7z"/>
			</g>
			<g id="Head_5">
				
					<linearGradient id="Path_144_00000131336047781350263810000001552752528986243470_" gradientUnits="userSpaceOnUse" x1="435.6979" y1="839.3652" x2="432.5999" y2="881.1622" gradientTransform="matrix(1 0 0 1 0 -538.0001)">
					<stop  offset="0" style="stop-color:#FDC6C6"/>
					<stop  offset="1" style="stop-color:#FFCCA1"/>
				</linearGradient>
				
					<path id="Path_144" style="fill-rule:evenodd;clip-rule:evenodd;fill:url(#Path_144_00000131336047781350263810000001552752528986243470_);" d="
					M445.8,318.9c3.9,0.4,3.6,7.2-1.1,7.6c-1,6.5-4.4,9.7-8.5,10l0.2,9.9H418c0,0,5.2-7,4.9-16.5c-0.3-9.6,0.2-18.5,0.2-18.5
					l23.9,0.4L445.8,318.9z"/>
				<path id="Path_145" class="st97" d="M446.6,319.4c-4.5-1.8-7.8,5.9-11.2,11.2c-3.4,5.3-12.3,4.4-13.6,0
					c-4.6-9.7-8.6-22.8-3.2-23.9C419.4,292.7,455.9,296,446.6,319.4z"/>
				<path id="Combined_Shape_x5F_6" class="st35" d="M421.6,301.2h7.9h0.1l0.1,0.1c7,7.9,8.6,19.4,5.3,29.9
					c-0.3,0.3-0.5,0.6-0.8,0.9c3.7-10.5,2.3-22.4-4.8-30.3H421C421.2,301.5,421.4,301.3,421.6,301.2z"/>
				<ellipse id="Oval_11" class="st98" cx="426.5" cy="301.4" rx="4.4" ry="4.4"/>
			</g>
			<g id="Body_5">
				<path id="Path_146" class="st99" d="M450.3,348c4.1,6,10.9,26.3,11.3,30.9c0.4,5.3-5.2,13.7-5.3,21.3
					c-0.1,7.6,4.2,26.7,2.9,28.9c-1.3,2.1-43.9,14.6-46.3,13.5c-2.4-1-10.7-12-8.8-16.5c1.9-4.5,9.8-14.6,8.9-20.7
					s-6.1-28.6-8.6-36.2c-2.6-7.7-1.7-15.7,3.1-19c2.4-1.6,8.7-6.3,19.9-6.2C438.5,344,450,347.5,450.3,348z"/>
				<path id="Path_147" class="st44" d="M459.5,374l-19.6-14.1v2.6c0.1,15.8,1.1,24.2,17.7,50.2l-0.4-2.6c-0.5-3.8-1-7.4-0.9-9.9
					c0.1-4.8,2.3-9.9,3.9-14.4L459.5,374z"/>
				<path id="Path_68_00000044896754182562778010000007287912388059847588_" class="st100" d="M437.6,343.5c0,0,0.5,2.6-1.6,2.6
					s-15.9,0.5-17.8-0.4c-1.9-0.8-1.3-2.2-1.3-2.2H437.6z"/>
			</g>
			<g id="LArm_5">
				
					<linearGradient id="Path_148_00000026869511369101310950000013352680940586838173_" gradientUnits="userSpaceOnUse" x1="499.0577" y1="879.8881" x2="496.0667" y2="933.5661" gradientTransform="matrix(1 0 0 1 0 -538.0001)">
					<stop  offset="0" style="stop-color:#FDC6C6"/>
					<stop  offset="1" style="stop-color:#FFCCA1"/>
				</linearGradient>
				
					<path id="Path_148" style="fill-rule:evenodd;clip-rule:evenodd;fill:url(#Path_148_00000026869511369101310950000013352680940586838173_);" d="
					M506.7,378.9c0,0,11.3-7.5,13.3-9s4.5-12.9,2.9-14.5c-0.7-0.8-6.4,4.4-7.4,5.1s-6.1,3.8-6.1,3.8s1.4-8.7,0.2-9.4
					c-0.9-0.5-2.8,1.7-3,4.1s-2.8,5.5-3.1,9.1c-0.1,1.6-0.7,3.6-0.7,3.6L471.4,385l3.3,14.6L506.7,378.9z"/>
				<path id="Path_149" class="st90" d="M439.5,364.4c4.3,9,11.7,22.1,15.7,29.8c4.8,9.1,10.5,13,21.9,6.2c1.3-0.8,4.2-2.6,4.2-2.6
					l-7.1-15.8l-3.7,1.6c0,0-11-20.1-15.6-29.7C449.2,341.8,431.1,347,439.5,364.4z"/>
				<path id="Path_150" class="st44" d="M470.6,383.8c0,0,2,7.1,2.5,6.8c0.5-0.3-0.3-7.8-0.3-7.8L470.6,383.8z"/>
				<path id="Path_75_00000168818709133597332900000001819753221462712723_" class="st91" d="M474.2,381.4l4.9,19.6l7.4-4l-9.7-17.2
					L474.2,381.4z"/>
			</g>
			<path id="Path_151_00000142875650986722106500000008446055121726459549_" class="st97" d="M426.9,298.1c0,0-4.1-5.3-8.9-3.9
				s-9.1,9.9-7.1,18c2,8,0.4,12.6-2.1,18c-6.7,14.6,16.4,23.8,16.4,23.8s-1.8-10.8,1.7-17.3c3.6-6.7,5.7-15.3,5.7-20.6
				C432.6,307,426.9,298.1,426.9,298.1z"/>
		</g>
		<g id="Chair8_2">
			<path id="Path_152" class="st21" d="M426.3,461.2l11.4,81l-6-0.1l-11.4-80L426.3,461.2z"/>
			<path id="Path_153" class="st21" d="M459.6,461.2l11.4,81l-6-0.1l-11.4-80L459.6,461.2z"/>
			<path id="Path_154" class="st20" d="M386.5,461.2l-11.4,81l6-0.1l11.4-80L386.5,461.2z"/>
			<path id="Path_155" class="st20" d="M463.9,466c5.2,0,9.4-4.2,9.4-9.4l0,0c0-5.2-4.2-9.4-9.4-9.4h-37.8c-5.7,0-10.5-4.4-11-10
				l-6-64.2c-0.5-5.7-5.3-10.1-11-10.1h-23.7c-6.5,0-11.5,5.5-11.1,11.9l6.2,81c0.4,5.8,5.3,10.2,11.1,10.2H463.9z"/>
			<path id="Combined_Shape_x5F_7" class="st21" d="M473.4,456.5c-0.1,0-0.1,0-0.2,0h-52c-5.8,0-10.6-4.5-11.1-10.2l-6.3-81.9
				c2.9,1.8,5,4.8,5.4,8.5l6,64c0.5,5.7,5.3,10,11,10h37.6c5.2,0,9.4,4.2,9.4,9.4C473.4,456.3,473.4,456.4,473.4,456.5z"/>
		</g>
	</g>
</g>
</svg>
