<?xml version="1.0" encoding="utf-8"?>
<!-- Generator: Adobe Illustrator 26.5.0, SVG Export Plug-In . SVG Version: 6.00 Build 0)  -->
<svg version="1.1" id="Layer_1" xmlns="http://www.w3.org/2000/svg" xmlns:xlink="http://www.w3.org/1999/xlink" x="0px" y="0px"
	 viewBox="0 0 747 547" style="enable-background:new 0 0 747 547;" xml:space="preserve">
<style type="text/css">
	.st0{opacity:8.454240e-02;fill:#297DD1;enable-background:new    ;}
	.st1{opacity:7.026600e-02;fill-rule:evenodd;clip-rule:evenodd;fill:#00CFE8;enable-background:new    ;}
	.st2{opacity:7.393970e-02;fill-rule:evenodd;clip-rule:evenodd;fill:#00CFE8;enable-background:new    ;}
	.st3{fill-rule:evenodd;clip-rule:evenodd;fill:#141A2B;}
	.st4{fill-rule:evenodd;clip-rule:evenodd;fill:#181F33;}
	.st5{fill-rule:evenodd;clip-rule:evenodd;fill:#283046;}
	.st6{fill-rule:evenodd;clip-rule:evenodd;fill:#D4EFFF;}
	.st7{fill:#91D6FF;}
	.st8{fill-rule:evenodd;clip-rule:evenodd;fill:#313A53;}
	.st9{opacity:0.4541;fill-rule:evenodd;clip-rule:evenodd;fill:#5096DD;enable-background:new    ;}
	.st10{fill-rule:evenodd;clip-rule:evenodd;fill:#297DD1;}
	.st11{fill-rule:evenodd;clip-rule:evenodd;fill:#5096DD;}
	.st12{fill:#297DD1;}
	.st13{fill:none;stroke:#8EEAF6;stroke-width:4.004;stroke-linecap:round;}
	.st14{opacity:0.4147;fill-rule:evenodd;clip-rule:evenodd;fill:#CEF9FF;enable-background:new    ;}
	.st15{fill:#8EEAF6;}
	.st16{fill-rule:evenodd;clip-rule:evenodd;fill:#8EEAF6;fill-opacity:0.4019;}
	.st17{fill:#8EEAF6;fill-opacity:0.4517;}
	.st18{fill-rule:evenodd;clip-rule:evenodd;fill:#E7E4FF;}
	.st19{opacity:0.5757;fill-rule:evenodd;clip-rule:evenodd;fill:#297DD1;enable-background:new    ;}
	.st20{fill-rule:evenodd;clip-rule:evenodd;fill:#BFE7FF;}
	.st21{fill-rule:evenodd;clip-rule:evenodd;fill:#91D6FF;}
	.st22{fill-rule:evenodd;clip-rule:evenodd;fill:#0C243C;}
	.st23{fill-rule:evenodd;clip-rule:evenodd;fill:url(#Path_35_00000070825075194018247810000012327506902805745581_);}
	.st24{fill-rule:evenodd;clip-rule:evenodd;fill:url(#Path_36_00000057864602305570091240000007786592711755852933_);}
	.st25{fill:none;stroke:#F77B7B;stroke-width:1.5;stroke-linecap:round;}
	.st26{fill:none;stroke:#F49494;stroke-linecap:round;}
	.st27{fill:none;stroke:#F77B7B;stroke-linecap:round;}
	.st28{fill-rule:evenodd;clip-rule:evenodd;fill:url(#Path_40_00000091702467149655509370000016527086574894191243_);}
	.st29{fill-rule:evenodd;clip-rule:evenodd;fill:#222D4E;}
	.st30{fill-rule:evenodd;clip-rule:evenodd;fill:#FFFFFF;fill-opacity:0.541;}
	.st31{fill-rule:evenodd;clip-rule:evenodd;fill:url(#Path_42_00000116192972573876149300000007492871169907903894_);}
	.st32{fill-rule:evenodd;clip-rule:evenodd;fill:url(#Path_43_00000028288635082968768560000011960179499797341107_);}
	.st33{fill-rule:evenodd;clip-rule:evenodd;fill:#2063A7;}
	.st34{fill-rule:evenodd;clip-rule:evenodd;fill-opacity:0.3028;}
	.st35{fill-rule:evenodd;clip-rule:evenodd;fill-opacity:0.1994;}
	.st36{fill-rule:evenodd;clip-rule:evenodd;fill:url(#Path_48_00000037668297791049877440000011414078413689552533_);}
	.st37{fill-rule:evenodd;clip-rule:evenodd;fill:#F8CFCF;}
	.st38{fill-rule:evenodd;clip-rule:evenodd;fill:#4B4B4B;}
	.st39{fill:none;stroke:#FFFFFF;stroke-width:2;stroke-linecap:round;}
	.st40{fill-rule:evenodd;clip-rule:evenodd;fill:#383838;}
	.st41{opacity:0.2836;fill-rule:evenodd;clip-rule:evenodd;fill:#FFFFFF;fill-opacity:0.1925;enable-background:new    ;}
	.st42{fill-rule:evenodd;clip-rule:evenodd;fill:#2E2E2E;}
	.st43{fill-rule:evenodd;clip-rule:evenodd;fill:#F28585;}
	.st44{fill-rule:evenodd;clip-rule:evenodd;fill-opacity:0.1599;}
	.st45{fill:none;stroke:#5386BF;stroke-linecap:round;}
	.st46{fill-rule:evenodd;clip-rule:evenodd;fill:#F8C5C5;}
	.st47{fill-rule:evenodd;clip-rule:evenodd;fill:url(#Path_64_00000139987315842342019660000011273763854652974254_);}
	.st48{fill-rule:evenodd;clip-rule:evenodd;fill:#424242;}
	.st49{fill:none;stroke:#CC6969;stroke-linecap:round;}
	.st50{fill:none;stroke:#DE6767;stroke-linecap:round;}
	.st51{fill-rule:evenodd;clip-rule:evenodd;fill:#184A7C;}
	.st52{fill-rule:evenodd;clip-rule:evenodd;fill:#96EFFA;}
	.st53{fill:#74CFDB;}
	.st54{fill:#EAEFFF;}
	.st55{fill:#7AD2DD;}
	.st56{fill-rule:evenodd;clip-rule:evenodd;fill:#02D3AF;}
	.st57{fill-rule:evenodd;clip-rule:evenodd;fill:#02B596;}
	.st58{fill:#02D3AF;}
	.st59{fill:#C2FFF4;}
	.st60{fill-rule:evenodd;clip-rule:evenodd;fill:url(#Path_80_00000155842797641461359850000017031835585215194303_);}
	.st61{fill-rule:evenodd;clip-rule:evenodd;fill:url(#Path_82_00000074418421624052623520000010516418835736750777_);}
	.st62{fill-rule:evenodd;clip-rule:evenodd;fill:url(#Path_87_00000083073882499424335330000012578388898963526048_);}
	.st63{fill-rule:evenodd;clip-rule:evenodd;fill:#EC7AA5;}
	.st64{fill-rule:evenodd;clip-rule:evenodd;fill:#103051;}
	.st65{fill-rule:evenodd;clip-rule:evenodd;fill:url(#Path_91_00000013160720435649912610000011851311557556843966_);}
	.st66{fill-rule:evenodd;clip-rule:evenodd;fill:#EA5455;}
	.st67{fill-rule:evenodd;clip-rule:evenodd;fill:url(#Path_95_00000152969481336507703020000009955785131585606584_);}
	.st68{fill-rule:evenodd;clip-rule:evenodd;fill:url(#Path_96_00000152958799132442577020000008802097515434818703_);}
	.st69{fill-rule:evenodd;clip-rule:evenodd;fill:url(#Path_101_00000181079149824189524120000003806091503121190555_);}
	.st70{fill-rule:evenodd;clip-rule:evenodd;fill:#FFFFFF;fill-opacity:5.610800e-02;}
	.st71{fill-rule:evenodd;clip-rule:evenodd;fill:url(#Path_109_00000168088551758336761420000016698204878691186068_);}
	.st72{fill-rule:evenodd;clip-rule:evenodd;fill:url(#Rectangle_28_00000031188335619910175040000016931391827283895486_);}
	.st73{fill-rule:evenodd;clip-rule:evenodd;fill:#518DF8;}
	.st74{fill:#FFFFFF;}
	.st75{fill-rule:evenodd;clip-rule:evenodd;fill:#E9E9E9;}
	.st76{fill-rule:evenodd;clip-rule:evenodd;fill:#D3D3D3;}
	.st77{fill-rule:evenodd;clip-rule:evenodd;fill:#DBDBDB;}
	.st78{fill-rule:evenodd;clip-rule:evenodd;fill:#92691F;}
	.st79{fill-rule:evenodd;clip-rule:evenodd;fill:#391B0B;}
	.st80{fill-rule:evenodd;clip-rule:evenodd;fill:#81411E;}
	.st81{fill-rule:evenodd;clip-rule:evenodd;fill:#7A3636;}
	.st82{fill-rule:evenodd;clip-rule:evenodd;fill:#FFFFFF;fill-opacity:0.1925;}
	.st83{fill:#FFFFFF;fill-opacity:0.1925;}
	.st84{fill-rule:evenodd;clip-rule:evenodd;fill:url(#Path_121_00000163061904285964028910000016736734491161810835_);}
	.st85{fill-rule:evenodd;clip-rule:evenodd;fill:url(#Path_123_00000026164786326352736330000006246947671644221578_);}
	.st86{fill-rule:evenodd;clip-rule:evenodd;fill:#2C272E;}
	.st87{fill-rule:evenodd;clip-rule:evenodd;fill:#E5AA41;}
	.st88{fill-rule:evenodd;clip-rule:evenodd;fill:url(#Path_128_00000104695561301155178790000015982865158224547217_);}
	.st89{fill-rule:evenodd;clip-rule:evenodd;fill:url(#Rectangle_43_00000132775593285096082760000016190392930669021594_);}
	.st90{fill-rule:evenodd;clip-rule:evenodd;fill:url(#Rectangle_46_00000113353149156074138020000015982735724889146303_);}
	.st91{fill-rule:evenodd;clip-rule:evenodd;fill:url(#Path_135_00000158003448600549530820000009338228142419457705_);}
	.st92{fill-rule:evenodd;clip-rule:evenodd;fill:#FFB66F;}
	.st93{fill-rule:evenodd;clip-rule:evenodd;fill:#FFEDC2;}
	.st94{fill-rule:evenodd;clip-rule:evenodd;fill:url(#Path_137_00000041977177274387865990000017295452790904767150_);}
	.st95{fill-rule:evenodd;clip-rule:evenodd;fill:#33373E;}
	.st96{fill-rule:evenodd;clip-rule:evenodd;fill:url(#Path_140_00000054950696266399128230000000229821773934737836_);}
	.st97{fill-rule:evenodd;clip-rule:evenodd;fill:#42474F;}
	.st98{fill-rule:evenodd;clip-rule:evenodd;fill:url(#Path_144_00000041993130042988242930000010322495087994885817_);}
	.st99{fill-rule:evenodd;clip-rule:evenodd;fill:#9E5229;}
	.st100{fill:#FB9934;}
	.st101{fill-rule:evenodd;clip-rule:evenodd;fill:#FF9F43;}
	.st102{fill-rule:evenodd;clip-rule:evenodd;fill:#FFF6E1;}
	.st103{fill-rule:evenodd;clip-rule:evenodd;fill:url(#Path_148_00000075868228630673304380000001472314529830440344_);}
</style>
<g id="Illustration">
	<g id="Shape">
		<g id="Group_59">
			<path id="Path" class="st0" d="M674.3,166.2c9.4-12.5,27.1-15.1,39.7-5.7c12.4,9.3,15,26.8,6,39.3l-0.3,0.4l-74.3,99.2
				c-9.5,12.6-27,15.8-40.3,7.4l-0.4-0.3l-46.8-30.6l-47.2,68.6c-8.8,12.8-26.1,16.1-39,7.6l-0.4-0.3c-12.8-8.8-16.1-26.1-7.6-39
				l0.3-0.4l61.8-90c9.2-13.4,27.3-17.1,41-8.4l0.4,0.3l47.6,31.2L674.3,166.2z"/>
			<path id="Path_2" class="st0" d="M431.1,5.3c2.4-3.5,7.1-4.3,10.6-2c3.4,2.3,4.3,7,2.1,10.4l-0.1,0.1l-18.5,26.9
				c-2.7,3.8-8,4.7-11.8,2.1l-0.1-0.1l-10.6-7.6L391,53.5c-2.2,3.5-6.8,4.6-10.4,2.5l-0.1-0.1c-3.5-2.2-4.6-6.8-2.5-10.3l0.1-0.1
				l15.3-24.2c2.5-4,7.8-5.2,11.8-2.7l0.2,0.1l0.2,0.1l10.9,7.7L431.1,5.3z"/>
			<path id="_x2B_" class="st1" d="M633.4,131.3c1.4,0,2.5-1.1,2.5-2.5v-18h18c1.4,0,2.5-1.1,2.5-2.5v-8.7c0-1.4-1.1-2.5-2.5-2.5
				h-18v-18c0-1.4-1.1-2.5-2.5-2.5h-8.8c-1.4,0-2.5,1.1-2.5,2.5v18.1h-18c-1.4,0-2.5,1.1-2.5,2.5v8.7c0,1.4,1.1,2.5,2.5,2.5h18v18
				c0,1.4,1.1,2.5,2.5,2.5L633.4,131.3L633.4,131.3z"/>
			<path id="Oval" class="st2" d="M92.6,22c50.6,0,91.6,41,91.6,91.6s-41,91.5-91.6,91.5S1,164.1,1,113.6C1,63,42,22,92.6,22z
				 M92.6,67.3C67,67.3,46.3,88,46.3,113.6c0,25.5,20.7,46.2,46.3,46.2s46.3-20.7,46.3-46.2C138.9,88,118.2,67.3,92.6,67.3z"/>
		</g>
	</g>
	<g id="Meeting">
		<g id="Group_63">
			<path id="Rectangle" class="st3" d="M61.6,103c0-8.8,7.2-16,16-16h470.1c8.8,0,16,7.2,16,16v204.2c0,8.8-7.2,16-16,16H77.6
				c-8.8,0-16-7.2-16-16V103z"/>
			<path id="Rectangle_2" class="st4" d="M69.1,103c0-8.8,7.2-16,16-16h462.6c8.8,0,16,7.2,16,16v204.2c0,8.8-7.2,16-16,16H85.1
				c-8.8,0-16-7.2-16-16V103z"/>
			<path id="Rectangle_3" class="st5" d="M76.7,104.6c0-5.5,4.5-10,10-10h459.5c5.5,0,10,4.5,10,10v201.1c0,5.5-4.5,10-10,10H86.7
				c-5.5,0-10-4.5-10-10V104.6z"/>
			<path id="Rectangle_4" class="st6" d="M275.9,301.8c0-3.3,2.7-6,6-6H351c3.3,0,6,2.7,6,6v13.8h-81.2v-13.8H275.9z"/>
			<path id="Rectangle_5" class="st7" d="M283.4,301.8c0-3.3,2.7-6,6-6h69.2c3.3,0,6,2.7,6,6v21.4h-81.2L283.4,301.8L283.4,301.8z"
				/>
		</g>
		<g id="ElementCard20">
			<g id="Rectangle_6">
				<path class="st8" d="M90.9,109.4c0-3,2.4-5.4,5.4-5.4h125c3,0,5.4,2.4,5.4,5.4V150c0,3-2.4,5.4-5.4,5.4h-125
					c-3,0-5.4-2.4-5.4-5.4V109.4z"/>
			</g>
			<path id="Rectangle_7" class="st9" d="M131,134.6c0-0.8,0.7-1.5,1.5-1.5H158c0.8,0,1.5,0.7,1.5,1.5l0,0c0,0.8-0.7,1.5-1.5,1.5
				h-25.4C131.7,136.1,131,135.4,131,134.6L131,134.6z"/>
			<path id="Rectangle_8" class="st10" d="M131,125.9c0-0.8,0.7-1.5,1.5-1.5h15.3c0.8,0,1.5,0.7,1.5,1.5l0,0c0,0.8-0.7,1.5-1.5,1.5
				h-15.3C131.7,127.4,131,126.7,131,125.9L131,125.9z"/>
			<g id="Group_9">
				<path id="Path_3" class="st10" d="M205.8,122.3c2.2-2.9,6.2-3.4,9.1-1.2c0.7,0.5,1.2,1.1,1.6,1.8c0.2,0.4,0.1,0.8-0.3,1.1
					c-0.4,0.2-0.8,0.1-1.1-0.3c-0.3-0.5-0.7-1-1.2-1.4c-2.1-1.6-5.2-1.3-6.8,0.8l-0.1,0.1l-2.4,3.1c-3.7,4.9-10,7.1-16,5.5l-0.3-0.1
					l-1.9-0.5c-0.1,0-0.2-0.1-0.4-0.1c-3.5-0.8-7,1.4-7.8,4.9v0.2l-0.4,1.8c-0.1,0.6-0.4,1.2-0.8,1.8c-1.5,2.1-4.4,2.5-6.5,1
					c-0.3-0.3-0.4-0.7-0.2-1.1c0.3-0.3,0.7-0.4,1.1-0.2c1.4,1,3.3,0.7,4.4-0.7c0.2-0.3,0.4-0.7,0.5-1v-0.2l0.4-1.8
					c1-4.4,5.3-7.2,9.7-6.2l0.2,0.1l0.2,0.1l1.9,0.5c5.3,1.5,11-0.4,14.4-4.7l0.2-0.2L205.8,122.3z"/>
				<path id="Path_4" class="st11" d="M198.9,121.4c1.6-3.5,5.7-5.1,9.2-3.5c0.7,0.3,1.3,0.7,1.9,1.3c1.3,1.2,2.5,3.2,3.7,5.9
					c0.2,0.4,0,0.8-0.4,1s-0.8,0-1-0.4c-1.1-2.5-2.2-4.3-3.3-5.4c-0.4-0.4-0.9-0.7-1.5-1c-2.7-1.2-5.8-0.1-7.1,2.6l-0.1,0.1
					l-0.5,1.1c-0.1,0.3-0.2,0.5-0.4,0.7c-1.8,2.9-5.7,3.8-8.6,2c-0.3-0.2-0.7-0.4-1.1-0.5c-2-0.4-3.9,0.7-4.4,2.7v0.1l-0.9,3.7
					c-0.3,1.1-0.8,2.2-1.6,3c-2.4,2.7-6.5,2.9-9.2,0.5l-0.1-0.1L170,132c-0.3-0.3-0.3-0.8,0-1.1s0.7-0.3,1-0.1l0.1,0.1l3.5,3.2
					c2.1,1.9,5.3,1.8,7.2-0.3c0.6-0.6,1-1.3,1.2-2.1v-0.2l0.9-3.7c0.6-2.8,3.5-4.6,6.3-3.9c0.5,0.1,1,0.3,1.4,0.6l0.2,0.1
					c2.2,1.4,5.1,0.7,6.5-1.5c0.1-0.1,0.1-0.2,0.2-0.4l0.1-0.2L198.9,121.4z"/>
			</g>
			<ellipse id="Oval_2" class="st12" cx="113.5" cy="130.2" rx="10.4" ry="10.4"/>
		</g>
		<g id="ElementCard3">
			<g id="Rectangle_9">
				<path class="st8" d="M90.9,167.6c0-2.8,2.2-5,5-5h158.9c2.8,0,5,2.2,5,5v132.7c0,2.8-2.2,5-5,5H95.9c-2.8,0-5-2.2-5-5V167.6z"/>
			</g>
			<g>
				<g id="Path_3_00000173129335224408220570000006062353475063121320_">
					<path class="st13" d="M113.5,272.2c0,0,20.1-5.8,28.9-17.6c8.9-11.8,11.8-23.2,27.1-23.2c15.2,0,17.2,17.5,33.6,17.5
						s17.4-22.3,22.8-31.2c5.5-8.9,14.9-8.9,14.9-8.9"/>
				</g>
				<path id="Path_3_x5F_2" class="st14" d="M113.5,271c0,0,20.1-5.8,28.9-17.5c8.9-11.7,11.8-23.1,27.1-23.1
					c15.2,0,17.2,17.4,33.6,17.4s17.4-22.2,22.8-31c5.5-8.8,14.9-8.8,14.9-8.8v74.4c0,1.7-1.4,3.1-3.1,3.1H116.6
					c-1.7,0-3.1-1.4-3.1-3.1V271z"/>
				<path id="Rectangle_11" class="st15" d="M106.9,176.8h47.2c1.6,0,2.8,1.3,2.8,2.8l0,0c0,1.6-1.3,2.8-2.8,2.8h-47.2
					c-1.6,0-2.8-1.3-2.8-2.8l0,0C104.1,178,105.3,176.8,106.9,176.8z"/>
				<path id="Rectangle_12" class="st16" d="M104.1,193.8c0-1.6,1.3-2.8,2.8-2.8h18.9c1.6,0,2.8,1.3,2.8,2.8l0,0
					c0,1.6-1.3,2.8-2.8,2.8h-18.9C105.3,196.6,104.1,195.3,104.1,193.8L104.1,193.8z"/>
				<ellipse id="Oval_3" class="st17" cx="227.2" cy="180.1" rx="3.3" ry="3.3"/>
				<ellipse id="Oval_4" class="st17" cx="236.7" cy="180.1" rx="3.3" ry="3.3"/>
				<ellipse id="Oval_5" class="st17" cx="246.1" cy="180.1" rx="3.3" ry="3.3"/>
			</g>
		</g>
		<g id="ElementCard11">
			<g id="Rectangle_13">
				<path class="st8" d="M286.2,124.7c0-4.1,3.4-7.5,7.5-7.5h225.2c4.1,0,7.5,3.4,7.5,7.5v150.5c0,4.1-3.4,7.5-7.5,7.5H293.7
					c-4.1,0-7.5-3.4-7.5-7.5V124.7z"/>
			</g>
			<g id="Group_26">
				<path id="Path_5" class="st18" d="M326.9,202.1v59.2H318v-59.2L326.9,202.1L326.9,202.1z"/>
				<path id="Path_6" class="st11" d="M326.9,216.2v45H318v-45L326.9,216.2L326.9,216.2z"/>
				<path id="Path_7" class="st10" d="M326.9,244.5v16.8H318v-16.8L326.9,244.5L326.9,244.5z"/>
			</g>
			<g id="Group_26_x5F_2">
				<path id="Path_8" class="st18" d="M348,188v73.3h-8.8V188H348z"/>
				<path id="Path_9" class="st11" d="M348,209.2v52.1h-8.8v-52.1L348,209.2L348,209.2z"/>
				<path id="Path_10" class="st10" d="M348,244.5v16.8h-8.8v-16.8L348,244.5L348,244.5z"/>
			</g>
			<g id="Group_26_x5F_3">
				<path id="Path_11" class="st18" d="M369.2,198.6v62.7h-8.8v-62.7L369.2,198.6L369.2,198.6z"/>
				<path id="Path_12" class="st11" d="M369.2,219.8v41.5h-8.8v-41.5L369.2,219.8L369.2,219.8z"/>
				<path id="Path_13" class="st10" d="M369.2,248.1v13.2h-8.8v-13.2L369.2,248.1L369.2,248.1z"/>
			</g>
			<g id="Group_26_x5F_4">
				<path id="Path_14" class="st18" d="M390.4,180.9v80.4h-8.8v-80.4H390.4z"/>
				<path id="Path_15" class="st11" d="M390.4,202.1v59.2h-8.8v-59.2L390.4,202.1L390.4,202.1z"/>
				<path id="Path_16" class="st10" d="M390.4,230.4v30.9h-8.8v-30.9H390.4z"/>
			</g>
			<g id="Group_26_x5F_5">
				<path id="Path_17" class="st18" d="M411.6,166.7v94.5h-8.8v-94.5L411.6,166.7L411.6,166.7z"/>
				<path id="Path_18" class="st11" d="M411.6,195v66.3h-8.8V195H411.6z"/>
				<path id="Path_19" class="st10" d="M411.6,237.5v23.8h-8.8v-23.8L411.6,237.5L411.6,237.5z"/>
			</g>
			<g id="Group_26_x5F_6">
				<path id="Path_20" class="st18" d="M432.8,188v73.3H424V188H432.8z"/>
				<path id="Path_21" class="st11" d="M432.8,209.2v52.1H424v-52.1L432.8,209.2L432.8,209.2z"/>
				<path id="Path_22" class="st10" d="M432.8,241.7v19.6H424v-19.6L432.8,241.7L432.8,241.7z"/>
			</g>
			<g id="Group_26_x5F_7">
				<path id="Path_23" class="st18" d="M454,195v66.3h-8.8V195H454z"/>
				<path id="Path_24" class="st11" d="M454,209.2v52.1h-8.8v-52.1L454,209.2L454,209.2z"/>
				<path id="Path_25" class="st10" d="M454,236.8v24.5h-8.8v-24.5L454,236.8L454,236.8z"/>
			</g>
			<g id="Group_26_x5F_8">
				<path id="Path_26" class="st18" d="M475.2,180.9v80.4h-8.8v-80.4H475.2z"/>
				<path id="Path_27" class="st11" d="M475.2,209.2v52.1h-8.8v-52.1L475.2,209.2L475.2,209.2z"/>
				<path id="Path_28" class="st10" d="M475.2,243.8v17.5h-8.8v-17.5L475.2,243.8L475.2,243.8z"/>
			</g>
			<g id="Group_26_x5F_9">
				<path id="Path_29" class="st18" d="M496.4,195v66.3h-8.8V195H496.4z"/>
				<path id="Path_30" class="st11" d="M496.4,209.2v52.1h-8.8v-52.1L496.4,209.2L496.4,209.2z"/>
				<path id="Path_31" class="st10" d="M496.4,243.8v17.5h-8.8v-17.5L496.4,243.8L496.4,243.8z"/>
			</g>
			<path id="Rectangle_14" class="st19" d="M315.2,147.6c0-1.2,0.9-2.1,2.1-2.1H388c1.2,0,2.1,1,2.1,2.1l0,0c0,1.2-1,2.1-2.1,2.1
				h-70.6C316.1,149.8,315.2,148.8,315.2,147.6L315.2,147.6z"/>
			<path id="Rectangle_15" class="st12" d="M317.3,133.5h35.3c1.2,0,2.1,0.9,2.1,2.1l0,0c0,1.2-0.9,2.1-2.1,2.1h-35.3
				c-1.2,0-2.1-0.9-2.1-2.1l0,0C315.2,134.5,316.1,133.5,317.3,133.5z"/>
		</g>
		<g id="Chair4">
			<path id="Path_32" class="st20" d="M559,451.9l11.4,90.4l-6-0.1L553,452.7L559,451.9z"/>
			<path id="Path_33" class="st21" d="M481.6,466.1c-5.2,0-9.4-4.2-9.4-9.4l0,0c0-5.2,4.2-9.4,9.4-9.4h37.8c5.7,0,10.5-4.4,11-10
				l6-64.2c0.5-5.7,5.3-10,11-10h23.7c6.5,0,11.5,5.5,11.1,11.9l-6.2,81c-0.4,5.8-5.3,10.2-11.1,10.2h-83.3V466.1z"/>
			<path id="Combined_Shape" class="st20" d="M472.2,456.6c0.1,0,0.1,0,0.2,0h83.1c5.8,0,10.6-4.5,11.1-10.2l6.2-80.7
				c0.1-0.9,0-1.7-0.1-2.6c-0.6-0.1-1.1-0.1-1.7-0.1h-23.6c-5.7,0-10.5,4.4-11,10l-6,64c-0.5,5.7-5.3,10-11,10h-37.6
				c-5.2,0-9.4,4.2-9.4,9.4C472.2,456.4,472.2,456.5,472.2,456.6z"/>
		</g>
		<g id="Wom1.4">
			<g id="Head">
				<path id="Path_34" class="st22" d="M546.3,347.3c12.2-2.8,13-19.6,3.7-25.4c9.6-20.1-12.6-40-27.7-27.7
					c-9.9-4.3-18.2,12.3-8.9,25.2c-3.9,22.1,4,27.9,18.2,28.1L546.3,347.3z"/>
				
					<linearGradient id="Path_35_00000135655408283383250830000000625632843287166907_" gradientUnits="userSpaceOnUse" x1="540.0764" y1="604.6343" x2="528.9965" y2="654.1113" gradientTransform="matrix(1 0 0 1 0 -294.0001)">
					<stop  offset="0" style="stop-color:#FFAFAF"/>
					<stop  offset="1" style="stop-color:#F07777"/>
				</linearGradient>
				
					<path id="Path_35" style="fill-rule:evenodd;clip-rule:evenodd;fill:url(#Path_35_00000135655408283383250830000000625632843287166907_);" d="
					M546.1,343.3c0,0-5.9-1.4-6.1-11.1c-0.2-9.7-0.1-13-0.1-13l-13.1-0.2c0,0-0.1,10.8-0.1,14.8c0,10.5-7.3,9.6-7.3,9.6
					s1.5,8.5,13.4,9.2C542,353.1,546.1,343.3,546.1,343.3z"/>
				
					<linearGradient id="Path_36_00000004506191769983377690000011653715712940165035_" gradientUnits="userSpaceOnUse" x1="533.3883" y1="594.3368" x2="526.7403" y2="626.8557" gradientTransform="matrix(1 0 0 1 0 -294.0001)">
					<stop  offset="0" style="stop-color:#FDC6C6"/>
					<stop  offset="1" style="stop-color:#FAB2B2"/>
				</linearGradient>
				
					<path id="Path_36" style="fill-rule:evenodd;clip-rule:evenodd;fill:url(#Path_36_00000004506191769983377690000011653715712940165035_);" d="
					M543,314.3c5.8-0.2,4.9,8.3-1.2,8.3c0,0-3.5,12.1-15.7,12.1c-9.9,0-10.6-14.1-10.7-17c-0.1-3-0.1-12.9-0.1-12.9h27.9L543,314.3z
					"/>
				<path id="Path_37" class="st25" d="M528.4,326.6c0,0-2.9,2.5-6.3,0.2"/>
				<path id="Path_38" class="st26" d="M526.5,329.5c-0.9,0.4-1.8,0.4-2.6,0"/>
				<path id="Path_8_00000133529139370164985260000008518532246865250992_" class="st27" d="M542.4,318.9c-0.1-1.4,0.4-2.5,1.8-2.7"
					/>
				<path id="Path_39" class="st22" d="M543.9,313.3c0,0-3.2,4.3-3.8,4.3s-0.9-5.6-0.9-5.6c-3.9-0.3-13.8-2.3-16.3-6.9
					c-1.7,4.1-5,5.9-7.1,5.5l-0.4,8.6l-1-17.4h30.3L543.9,313.3z"/>
			</g>
			<g id="LLeg">
				
					<linearGradient id="Path_40_00000079481592575592150130000006152593715841258684_" gradientUnits="userSpaceOnUse" x1="488.4131" y1="800.3598" x2="486.82" y2="830.1408" gradientTransform="matrix(1 0 0 1 0 -294.0001)">
					<stop  offset="0" style="stop-color:#FDC6C6"/>
					<stop  offset="1" style="stop-color:#FAB2B2"/>
				</linearGradient>
				
					<path id="Path_40" style="fill-rule:evenodd;clip-rule:evenodd;fill:url(#Path_40_00000079481592575592150130000006152593715841258684_);" d="
					M486.4,514.9c0,0,5.2,10.6,0.9,13.9c-4.3,3.3-15.6,9.6-15.6,9.6l30.1-1.9l-6.7-23.1L486.4,514.9z"/>
				<path id="Path_41" class="st29" d="M498.9,525c-1.5,0.2,0.1,5.2-3.1,5.5c-3.2,0.4-4.8-4.4-8.4-2.9s-16.9,9.3-17.4,12.4
					c-0.5,3.2,4.4,4.1,11.2,3.4s8-3.1,13.1-2.2c5.1,1,8.9-0.6,8.7-4.3C502.8,533.3,500.3,524.8,498.9,525z"/>
				<path id="Path_14_00000150798895867756582590000016884181560335743618_" class="st30" d="M485.7,528.4l0.7,1
					c0.3,0.5,0.2,1.1-0.3,1.4l-9,5c-0.3,0.2-0.6,0.2-0.9,0l-1.4-0.7c2.2-1.6,4-2.8,5.9-3.9C482.2,530.3,483.8,529.4,485.7,528.4z"/>
				
					<linearGradient id="Path_42_00000026867658433097111690000018242838093775485577_" gradientUnits="userSpaceOnUse" x1="536.8453" y1="807.9471" x2="488.7703" y2="715.6702" gradientTransform="matrix(1 0 0 1 0 -294.0001)">
					<stop  offset="0" style="stop-color:#28324F"/>
					<stop  offset="1" style="stop-color:#222735"/>
				</linearGradient>
				
					<path id="Path_42" style="fill-rule:evenodd;clip-rule:evenodd;fill:url(#Path_42_00000026867658433097111690000018242838093775485577_);" d="
					M531.7,421.7c-9.1,0.4-59.7,11.6-68.9,13.5c-9.2,1.9-17,12.2-10,24.1c7.9,13.4,28.2,51.4,33.1,60c2.4,4.2,14.8,1.9,11.9-5.3
					c-5.4-13.3-7.9-46.6-21.7-58.8c0,0,46.3,8.1,66.3-1.2C556.9,447.4,553.6,420.7,531.7,421.7z"/>
			</g>
			<g id="LArm">
				
					<linearGradient id="Path_43_00000018915223111856341100000016280670566458281108_" gradientUnits="userSpaceOnUse" x1="458.2281" y1="635.9714" x2="456.0761" y2="664.5743" gradientTransform="matrix(1 0 0 1 0 -294.0001)">
					<stop  offset="0" style="stop-color:#FDC6C6"/>
					<stop  offset="1" style="stop-color:#FAB2B2"/>
				</linearGradient>
				
					<path id="Path_43" style="fill-rule:evenodd;clip-rule:evenodd;fill:url(#Path_43_00000018915223111856341100000016280670566458281108_);" d="
					M467.2,367.9c0,0,0.1-7.4-2.5-11.3s-2.7-8-4.7-7.8c-2,0.1,0,9.7,0,9.7s-2.5-1-4.3-2.2s-7.2-7.1-8.5-6.1
					c-2.1,1.8,1.3,11.9,3.2,13.9c1.9,2,12.2,8.7,12.2,8.7L467.2,367.9z"/>
				<path id="Path_44" class="st33" d="M523.1,363.5c-4.2,9.8-12,27.9-15.2,33.2c-4,6.7-10.3,9.7-17.7,4.7
					c-7.8-5.3-29.2-25.8-29.8-30.4c-0.6-4.6,4.6-10.2,9.3-7.3c4.7,2.9,24.4,19.3,24.4,19.3s7.9-20.4,14.3-32.2
					C514.1,340.6,529.6,348.5,523.1,363.5z"/>
				<path id="Path_45" class="st34" d="M494.1,383c0,0-2.1,7.2-2.6,6.8c-0.5-0.4,0.4-8.7,0.4-8.7L494.1,383z"/>
			</g>
			<g id="Body">
				<path id="Path_46" class="st10" d="M565.4,351.6c0,0-10.2,34.2-10.5,40.6c-0.3,6.5,8.3,25.5,6.9,30.3
					c-3.4,11.1-46.7,15.9-48.4,0.9c-0.8-7,0.8-13.2-1-21.4c-1.8-8.2-9.3-20.4-5.1-31.9c4.2-11.5,3.1-22.1,6.1-24.1s10-4.1,10-4.1
					c3.4,5,15,5,20.5-0.4C543.9,341.6,557.6,344.3,565.4,351.6z"/>
				<path id="Path_47" class="st35" d="M556.3,357.2c-6.8,10.8-6.8,29.6-10.4,32.1c-3.7,2.5-17.9,0-17.9,2
					c0,1.9,19.6,19.8,16.4,28.4c-1.7,4.5-1.2,8.5,1.4,12l0.8-0.2c7.7-1.7,14-4.9,15.2-8.8c1.5-4.8-8.2-23.8-7.9-30.3
					c0.3-5.5,8.4-30.9,10.8-38.5C562.7,350.2,559.9,351.4,556.3,357.2z"/>
			</g>
			<g id="RArm">
				
					<linearGradient id="Path_48_00000058579228770399120140000006670877150151591063_" gradientUnits="userSpaceOnUse" x1="530.4839" y1="665.8024" x2="529.8531" y2="684.2724" gradientTransform="matrix(1 0 0 1 0 -294.0001)">
					<stop  offset="0" style="stop-color:#FDC6C6"/>
					<stop  offset="1" style="stop-color:#FAB2B2"/>
				</linearGradient>
				
					<path id="Path_48" style="fill-rule:evenodd;clip-rule:evenodd;fill:url(#Path_48_00000058579228770399120140000006670877150151591063_);" d="
					M544.7,385.8c0,0-8.6-7.6-11.2-8.5c-2.6-0.9-18-1.9-17.9,0.1c0.1,2.1,8.4,2,9.2,3.1c0.9,1.1,1.1,8.2,4.3,9s12.9,2.2,12.9,2.2
					L544.7,385.8z"/>
				<path id="Path_49" class="st33" d="M567.5,353.6c9.1,12.8,16.8,32.2,19.7,39.8c3,7.6,0,19-13.1,16.8c-13-2.2-33.7-14.4-36-18
					s1.2-10,5.6-9.2c4.1,0.8,24.2,9.4,24.2,9.4s-13-23-16.1-29.2C546.6,353,559.6,342.3,567.5,353.6z"/>
				<path id="Path_50" class="st34" d="M567.8,392.3c0,0,6.8,3.4,6,2s-8.6-6.4-8.6-6.4L567.8,392.3z"/>
			</g>
		</g>
		<g id="Men3.2">
			<g id="LLeg_2">
				<path id="Path_51" class="st37" d="M235.1,511.2c0,0-0.1,8.7,5.2,11.8s13.6,8.8,13.6,8.8l-31.5,1.1l0.9-21.8L235.1,511.2z"/>
				<path id="Path_52" class="st38" d="M221.3,520.8l-0.5,14.1h7.3l0.5-1.8c0,0,2.8-0.1,4.3,0.7c1.7,0.8,1.9,1.2,1.9,1.2H258
					c0,0,1.1-4.6-5.9-7.9c-7.1-3.3-12.2-8-13.2-8.5s-3-0.8-4.4,0.4c-1.4,1.1-2.5,4.1-5.7,4.2C224.8,523.4,222.4,518.4,221.3,520.8z"
					/>
				<path id="Path_38_00000042695160271256276090000011610721199623492027_" class="st39" d="M241.1,520.2l-2.4,2.3"/>
				<path id="Path_38_x5F_2" class="st39" d="M244.6,522l-2.4,2.3"/>
				<path id="Path_38_x5F_3" class="st39" d="M248.1,523.8l-2.4,2.3"/>
				<path id="Path_53" class="st40" d="M212,323c0,0,8.8,96.4,9,103.1c0.3,6.7-2.8,18.3-2.8,30.8c0.1,12.5,1.1,56.7,1.1,56.7
					l19.3,0.4c0,0,8.1-79.8,8.2-91.8c0.1-12,0.8-98,0.8-98L212,323z"/>
				<path id="Path_54" class="st41" d="M225.9,429.1v0.2c0.3,4.1-2.2,17.5-7.6,40.3l-0.1-12.8l0,0c-0.1-12.3,2.9-23.7,2.8-30.4V426
					c-0.1-2.3-1.1-14.7-2.5-30.2l0.6,2.3C222.9,411.6,225.1,421.9,225.9,429.1z"/>
			</g>
			<g id="RLeg">
				<path id="Path_55" class="st37" d="M188.5,510l-3.7,22.6l13.7-0.1l0.4-22.8L188.5,510z"/>
				<path id="Path_56" class="st38" d="M187,519.7c-1.3,0.3-2.3,1.5-2.4,2.8l-0.1,3.4c-1.9,2.2-2.9,8.4-3,9.1v0.1
					c0.3,3,20.3,3,22.1,0.1c0.1-0.1,0.1-0.3,0.1-0.4c-0.2-1.3-1.3-7.4-3.5-9.1v-3.3c0-1.4-0.9-2.5-2.2-2.9l-2.1-0.6
					c-2-2.9-4.7-2.8-7.1,0.4L187,519.7z"/>
				<path id="Path_39_00000021818493368394007170000012408291342687092658_" class="st39" d="M189.7,521.7h5.6"/>
				<path id="Path_39_x5F_2" class="st39" d="M189.7,524.4h5.6"/>
				<path id="Path_39_x5F_3" class="st39" d="M190.6,527h3.8"/>
				<path id="Path_57" class="st42" d="M195.4,324.3c0,0-6.1,66.1-6.1,78.7c0.1,12.7,1.9,18.2-0.7,27.3c-2.6,9.1-4.8,81.5-4.8,81.5
					l19,2.1c0,0,12.1-77.5,13.5-88.3c1.3-10.7,17.6-102.2,17.6-102.2L195.4,324.3z"/>
				<path id="Path_58" class="st41" d="M200.5,369.1l-1.2,4.2c-3.4,12.4-6.5,25.5-5.7,44.2v0.9c0.2,4-2.4,27.6-7.7,70.5l-0.5,3
					c-0.5,3.1-1,5.7-1.4,7.9l0.1-3.8c0.7-21,2.5-58.7,4.5-65.6c2.6-9.1,0.8-14.6,0.7-27.3c-0.1-8.9,2.9-43.9,4.7-64.1l1.3-14.6
					l8-0.2v2.2C203.6,347.1,202.6,361.4,200.5,369.1L200.5,369.1z"/>
			</g>
			<g id="LArm_2">
				<g id="Group_6">
					<path id="Path_59" class="st37" d="M288.8,242.6c0,0-1.6-8.7-1-10.5c0.5-1.5,5.1-3.7,5.1-3.7s8-12.5,9.8-11.2
						c1.4,1-4.2,10.3-4.2,10.3s5.1,5.3,5,7.7s-8.3,9.8-8.3,9.8L288.8,242.6z"/>
					<path id="Path_60" class="st43" d="M293.1,228.2c0,0,3.5-0.5,4.1,0.6c0.5,0.9-2.5,3.6-2.5,4.3s0,6.4,0.3,6.4
						c0.2,0.1,3.6-9.2,2.8-11.1C297.3,226.8,293.1,228.2,293.1,228.2z"/>
				</g>
				<path id="Path_61" class="st10" d="M246.5,253.7c-9.3-8-23.2,6.4-7.7,19.9c5.9,5.1,24.6,17.9,29.1,20.7
					c7.3,4.5,13.2,0.4,15.7-6.6c2.1-6,14.5-38,13-42.7c-1-3.1-6.6-6-9.4-3.6c-4.1,3.5-16.5,34.4-16.5,34.4S257.1,262.8,246.5,253.7z
					"/>
				<path id="Path_62" class="st44" d="M270.8,275.8c0,0,4.1,4.9,4.4,4.2c0.3-0.8-3.2-7.1-3.2-7.1L270.8,275.8z"/>
				<path id="Path_41_00000119818908205638503590000013046752857132193170_" class="st45" d="M286.2,243.4c3.2-1.5,6.8,0.4,8.7,3.3"
					/>
			</g>
			<g id="Head_2">
				<path id="Path_63" class="st46" d="M206.7,244.4c0,0,5.3-1.2,5.5-9.8s0.1-11.5,0.1-11.5l12.7-0.2c0,0,0.1,9.6,0.1,13
					c0,7.5,5.7,9.6,5.7,9.6s-0.5,8.2-11.1,8.8C211.4,254.8,206.7,244.4,206.7,244.4z"/>
				<g id="Head1">
					
						<linearGradient id="Path_64_00000176749963503258690510000001726886536340382082_" gradientUnits="userSpaceOnUse" x1="243.4513" y1="510.2135" x2="233.5623" y2="511.1385" gradientTransform="matrix(1 0 0 1 0 -294.0001)">
						<stop  offset="0" style="stop-color:#4D63A0"/>
						<stop  offset="1" style="stop-color:#222735"/>
					</linearGradient>
					
						<path id="Path_64" style="fill-rule:evenodd;clip-rule:evenodd;fill:url(#Path_64_00000176749963503258690510000001726886536340382082_);" d="
						M236.2,213.9L236,222c2.4-2.8,4-6.2,4.5-10.6L236.2,213.9z"/>
					<path id="Path_65" class="st37" d="M211.2,218.8c-5.2-0.2-4.4,7.3,1.1,7.3c0,0,5.9,11.5,15.1,11.6c4.4,0,5.9-3.9,7.2-6.6
						c1.3-2.7,2.3-6.8,2.4-9.3c0.1-2.7,0.1-11.4,0.1-11.4h-26L211.2,218.8z"/>
					<path id="Path_66" class="st48" d="M236.9,214.5h-18.3c-0.2,3.2-1.3,5.9-4.1,7.9c0.1,4.7,1.7,8.2,4.5,10.6
						c2.4-6.9,17.4-5,16.3-0.5c-2.3,9.4-23.7,9.6-22.4-12c-0.9-1.1-3.9-1.4-4.9-0.2c-1.7-4.7-1-11.4,4-12.4
						C208.2,197.8,261.2,195.6,236.9,214.5z"/>
					<path id="Path_67" class="st49" d="M225.2,232.1c0,0,2.4,1.7,5.5-0.2"/>
					<path id="Path_8_x5F_2" class="st50" d="M212,223.1c0.1-1.2-0.3-2.2-1.6-2.4"/>
				</g>
			</g>
			<g id="Body_2">
				<path id="Path_68" class="st10" d="M209.1,243l15.1,9.8l6.8-7.9c0,0,14.3,4.4,17,9.6c3.8,7.5-1.2,67.5,1,71.1
					c4.7,7.7-1.5,13-22.2,15c-20.7,1.9-39,0.4-35.7-9.9s-9.5-77.5,1.8-81.2C196.4,248.3,209.1,243,209.1,243z"/>
				<path id="Path_69" class="st44" d="M198.9,261.5c0.9,1.6,0.4,7.2-1.4,16.8c-1.6,8.2,0.2,16.6,5,23.4l0.3,0.4
					c1.6,2.2,3.1,5.2,4.5,8.8c3.3,8.9-4.4,16.4,1.5,30.4h-0.7c-11.6-0.6-19.3-3.6-17-10.5c2.7-8.4-5.4-55.1-2.2-73.7
					C194.4,258,197.8,259.6,198.9,261.5z"/>
				<path id="Path_70" class="st51" d="M209.1,243l13.5,8.8c-2,2.3-3,5-3.4,7.9c-5.2-4.1-10.6-9.7-12.3-15.8L209.1,243z"/>
				<path id="Path_71" class="st51" d="M225.3,251.6c2.3,1.5,4.1,4.3,5.6,7.4c1.8-3.6,2.5-8.3,2.5-13.3l-2.2-0.9L225.3,251.6z"/>
				<path id="Path_72" class="st11" d="M222.6,251.8l0.2,0.1c0.8,0.5,1.8,0.3,2.5-0.3l0,0c5.1,18.6,8.7,39.2,9.8,60l-5.3,8.8
					l-6.2-8.2C224.3,290.5,224.3,269.3,222.6,251.8z"/>
			</g>
			<g id="RArm_2">
				<g id="Example_Book_Back">
					<g id="Group_3">
						<path id="Rectangle_16" class="st12" d="M236.1,299c0.1-1.4,1.4-2.4,2.8-2.2l12.3,1.8c1.3,0.2,2.2,1.4,2.1,2.7l-2.2,21
							c-0.1,1.4-1.4,2.4-2.8,2.2l-12.3-1.8c-1.3-0.2-2.2-1.4-2.1-2.7L236.1,299z"/>
						<path id="Rectangle_17" class="st52" d="M237.5,298.6c0.2-1.4,1.5-2.4,2.9-2.2l12.9,2.5l8.8-0.1c1.5,0,2.6,1.2,2.5,2.7
							l-2.2,21c-0.1,1.2-1.2,2.2-2.4,2.2l-9.4,0.2l-13.3-2.6c-1.3-0.2-2.1-1.4-2-2.7L237.5,298.6z"/>
						<path id="Rectangle_18" class="st53" d="M239.9,303.5c0.1-0.9,1-1.6,1.9-1.4l5.9,1.1c0.8,0.2,1.4,0.9,1.3,1.7l-0.3,2.4
							c-0.1,0.9-1,1.6-1.9,1.4l-5.9-1.1c-0.8-0.2-1.4-0.9-1.3-1.7L239.9,303.5z"/>
						<path id="Rectangle_19" class="st54" d="M252.4,299.6c0-0.4,0.4-0.8,0.9-0.7l0.5,0.1c0.4,0,0.8,0.4,0.7,0.9l-2.5,24.2
							c0,0.4-0.4,0.8-0.9,0.7l-0.5-0.1c-0.4,0-0.8-0.4-0.7-0.9L252.4,299.6z"/>
						<path id="Rectangle_20" class="st55" d="M253.1,299.7c0-0.4,0.4-0.8,0.9-0.7l0.5,0.1c0.4,0,0.8,0.4,0.7,0.9l-2.5,24.2
							c0,0.4-0.4,0.8-0.9,0.7l-0.5-0.1c-0.4,0-0.8-0.4-0.7-0.9L253.1,299.7z"/>
					</g>
				</g>
				<path id="Path_73" class="st37" d="M222.9,308.4c0,0,4.6-0.9,6.5-2.4s7.6-2.5,7.6-2.5l-1.8,3.8c0,0,13.9-1.3,14.3,0.1
					c0.3,1.4-3.7,2.9-3.7,2.9s-2,3.7-3.9,5.8c-1.8,2-10.9,1.8-14,0.5c-2.7-1.1-5.7-0.5-5.7-0.5L222.9,308.4z"/>
				<path id="Path_74" class="st10" d="M186,255.2c5-10.7,22-3.5,17.7,8c-4.2,11.1-14.3,37-14.3,37s32,4,34.5,5.9
					c3.3,2.5,1.3,9.7-1.6,10.9c-2.4,1.1-20.2,1.7-37.5,0.3c-8.6-0.7-15-4.3-15.8-13.9C168.4,296.9,181.2,265.5,186,255.2z"/>
				<path id="Path_75" class="st44" d="M189.5,300.2c0,0-2.7,5-1.9,5.1s4.6-4.8,4.6-4.8L189.5,300.2z"/>
				<path id="Path_40_00000136374492160453884920000001987789782676077456_" class="st45" d="M221.7,305.6c1,3.1,0.3,6.8-1.1,9.4"/>
			</g>
		</g>
		<g id="Vase2">
			<g id="Group_39">
				<path id="Rectangle_21" class="st56" d="M86.4,445.3L86.4,445.3c8.3-3.7,18,0,21.6,8.3l2.9,6.5l0,0c-8.3,3.7-18,0-21.6-8.3
					L86.4,445.3z"/>
				<path id="Path_76" class="st57" d="M98.2,449.3c8.2,5.9,13.6,12.4,16.1,19.6s3.5,19.4,3,36.4c0,0.3,0.2,0.5,0.5,0.5
					s0.5-0.2,0.5-0.5c0.5-17.1-0.6-29.4-3.1-36.8s-8-14.1-16.4-20.1c-0.2-0.2-0.5-0.1-0.7,0.1C97.9,448.9,98,449.1,98.2,449.3z"/>
				<path id="Rectangle_22" class="st56" d="M156.5,441.3L156.5,441.3c-8.1-3.8-17.8-0.3-21.6,7.9l-3.2,7l0,0
					c8.1,3.8,17.8,0.3,21.6-7.9L156.5,441.3z"/>
				<g id="Group_88">
					<path id="Rectangle_23" class="st58" d="M91.5,425.4L91.5,425.4c7.8-1.7,15.6,3.3,17.2,11.2l1.3,6.4l0,0
						c-7.8,1.7-15.6-3.3-17.2-11.2L91.5,425.4z"/>
					<path id="Path_77" class="st57" d="M97.3,430.5c6,4.2,10.1,8.8,12.3,13.6l0.1,0.3l0.1,0.3c2.2,5.5,5.8,19.7,10.9,42.8
						c0.1,0.3,0.3,0.4,0.6,0.4c0.3-0.1,0.4-0.3,0.4-0.6l-0.6-2.8l-0.7-3.3c-4.6-20.4-7.9-32.9-9.9-37.5c-2.2-5.1-6.4-9.7-12.6-14
						c-0.2-0.1-0.5-0.1-0.7,0.1C97,430,97,430.3,97.3,430.5z"/>
				</g>
				<path id="Rectangle_24" class="st56" d="M144.6,420.6L144.6,420.6c-8.6-0.2-15.8,6.7-15.9,15.4l-0.1,7.7l0,0
					c8.6,0.2,15.8-6.7,15.9-15.4L144.6,420.6z"/>
				<path id="Path_78" class="st57" d="M139,423.7c-5.6,8.2-9.6,16-12.2,23.6c-2.6,7.6-5.1,19.3-7.7,35.1c0,0.3,0.1,0.5,0.4,0.5
					s0.5-0.1,0.5-0.4l0.3-1.9l0.2-1.3c2.4-14.2,4.7-24.8,7.1-31.8c2.5-7.5,6.6-15.3,12.1-23.4c0.1-0.2,0.1-0.5-0.1-0.7
					C139.4,423.4,139.1,423.4,139,423.7z"/>
				<g id="Group_87">
					<path id="Path_79" class="st57" d="M126.9,418.3c0,0-4.5,12.8-6.5,31.8c-2,18.9-0.8,37.8-0.8,37.8l2.2,0.2c0,0-1.2-22.1,0.2-38
						c1.4-15.9,6-31.8,6-31.8H126.9z"/>
					
						<ellipse id="Oval_6" transform="matrix(0.2419 -0.9703 0.9703 0.2419 -301.7389 437.7107)" class="st59" cx="129.2" cy="412" rx="11.1" ry="7.3"/>
					
						<ellipse id="Oval_7" transform="matrix(0.2419 -0.9703 0.9703 0.2419 -302.368 438.3039)" class="st58" cx="129.3" cy="412.7" rx="7.3" ry="5.1"/>
					
						<linearGradient id="Path_80_00000078724777890162687670000000337166131051866533_" gradientUnits="userSpaceOnUse" x1="129.4" y1="697.433" x2="129.4" y2="713.998" gradientTransform="matrix(1 0 0 1 0 -294.0001)">
						<stop  offset="0" style="stop-color:#FE62BE"/>
						<stop  offset="1" style="stop-color:#FDB3A8"/>
					</linearGradient>
					
						<path id="Path_80" style="fill-rule:evenodd;clip-rule:evenodd;fill:url(#Path_80_00000078724777890162687670000000337166131051866533_);" d="
						M128.7,419l4.1-12.7c0.2-0.8-0.2-1.6-0.9-1.8c-0.7-0.2-1.5,0.2-1.8,0.9l-4.1,12.7c-0.2,0.8,0.2,1.6,0.9,1.8
						C127.7,420.2,128.5,419.8,128.7,419z"/>
				</g>
				<g id="Group_87_x5F_2">
					<path id="Path_81" class="st57" d="M104.9,405.6c0,0,5.8,12.3,9.8,30.9s4.8,37.6,4.8,37.6l-2.2,0.4c0,0-1.1-22.1-4.2-37.7
						s-9.3-31-9.3-31L104.9,405.6z"/>
					
						<ellipse id="Oval_8" transform="matrix(0.9397 -0.342 0.342 0.9397 -130.4805 58.9722)" class="st59" cx="102" cy="399.5" rx="7.3" ry="11.1"/>
					
						<ellipse id="Oval_9" transform="matrix(0.9397 -0.342 0.342 0.9397 -130.7282 58.983)" class="st58" cx="101.9" cy="400.2" rx="5.1" ry="7.3"/>
					
						<linearGradient id="Path_82_00000160910037831364987490000015884814983867637891_" gradientUnits="userSpaceOnUse" x1="100.8805" y1="685.0483" x2="102.6115" y2="701.5233" gradientTransform="matrix(1 0 0 1 0 -294.0001)">
						<stop  offset="0" style="stop-color:#FE62BE"/>
						<stop  offset="1" style="stop-color:#FDB3A8"/>
					</linearGradient>
					
						<path id="Path_82" style="fill-rule:evenodd;clip-rule:evenodd;fill:url(#Path_82_00000160910037831364987490000015884814983867637891_);" d="
						M103.2,406.5l-5.4-12.2c-0.3-0.7,0-1.6,0.7-1.9s1.6,0,1.9,0.7l5.4,12.2c0.3,0.7,0,1.6-0.7,1.9S103.5,407.2,103.2,406.5z"/>
				</g>
				<path id="Path_83" class="st57" d="M152,443.3c-11.2,4.4-19.1,9.5-23.5,15.3c-4.4,5.8-7.4,14.7-8.8,26.9c0,0.3,0.2,0.5,0.4,0.5
					c0.3,0,0.5-0.2,0.5-0.4c1.4-12,4.3-20.8,8.6-26.4c4.3-5.6,12-10.6,23.1-14.9c0.2-0.1,0.4-0.4,0.3-0.6
					C152.5,443.4,152.3,443.3,152,443.3z"/>
			</g>
			<g id="Group_38">
				<path id="Path_151" class="st57" d="M121.9,478.6c-5.3-19-26.4-13.4-26.4-13.4s15.8,5.2,23.8,13.4H121.9z"/>
				<path id="Path_151_x5F_2" class="st57" d="M121.9,475.7c5.3-19,23.1-16.2,23.1-16.2s-10.8,8.9-20.5,16.2H121.9z"/>
				<path id="Path_151_x5F_3" class="st57" d="M121.8,479.5c-4.8-16.9,6.4-31.4,6.4-31.4s-0.6,20-4.4,30.1L121.8,479.5z"/>
				<path id="Path_114" class="st56" d="M117.2,475.7c-2.1-6.1-4.2-14.6-5.8-22.8c7.8,3.1,10.3,15.6,7.8,22.8H117.2z"/>
				<g id="Group_89">
					<path id="Rectangle_25" class="st33" d="M102,471.8c-0.1-1.2,0.8-2.2,2-2.2h30.7c1.2,0,2.1,1,2,2.2l-5.9,67.6
						c-0.1,1-1,1.8-2,1.8H110c-1,0-1.9-0.8-2-1.8L102,471.8z"/>
					<g>
						<path id="Rectangle_27" class="st10" d="M97.4,465.1h12.9c-8,30.5,16.1,51.4,0,81.8H97.4V465.1z"/>
					</g>
				</g>
			</g>
		</g>
		<g id="Chair4_2">
			<path id="Path_25_00000100367317066255676690000008548600683559303595_" class="st21" d="M679.7,451.9l-11.4,90.4l6-0.1
				l11.4-89.5L679.7,451.9z"/>
			<path id="Path_84" class="st21" d="M646.4,451.9L635,542.3l6-0.1l11.4-89.5L646.4,451.9z"/>
			<path id="Path_85" class="st20" d="M719.5,451.9l11.4,90.4l-6-0.1l-11.4-89.5L719.5,451.9z"/>
			<path id="Path_86" class="st21" d="M642.1,466.1c-5.2,0-9.4-4.2-9.4-9.4l0,0c0-5.2,4.2-9.4,9.4-9.4h37.8c5.7,0,10.5-4.4,11-10
				l6-64.2c0.5-5.7,5.3-10,11-10h23.7c6.5,0,11.5,5.5,11.1,11.9l-6.2,81c-0.4,5.8-5.3,10.2-11.1,10.2h-83.3V466.1z"/>
			<path id="Combined_Shape_x5F_2" class="st20" d="M632.6,456.6c0.1,0,0.1,0,0.2,0h83.1c5.8,0,10.6-4.5,11.1-10.2l6.2-80.7
				c0.1-0.9,0-1.7-0.1-2.6c-0.6-0.1-1.1-0.1-1.7-0.1h-23.6c-5.7,0-10.5,4.4-11,10l-6,64c-0.5,5.7-5.3,10-11,10H642
				c-5.2,0-9.4,4.2-9.4,9.4C632.6,456.4,632.6,456.5,632.6,456.6z"/>
		</g>
		<g id="Wom2.4">
			<g id="LLeg_3">
				
					<linearGradient id="Path_87_00000086685561043648681480000018047267388455587503_" gradientUnits="userSpaceOnUse" x1="646.0125" y1="798.8574" x2="644.4164" y2="828.7074" gradientTransform="matrix(1 0 0 1 0 -294.0001)">
					<stop  offset="0" style="stop-color:#FDC6C6"/>
					<stop  offset="1" style="stop-color:#FAB2B2"/>
				</linearGradient>
				
					<path id="Path_87" style="fill-rule:evenodd;clip-rule:evenodd;fill:url(#Path_87_00000086685561043648681480000018047267388455587503_);" d="
					M644.1,513.4c0,0,5.2,10.6,0.9,13.9c-4.3,3.3-15.7,9.6-15.7,9.6l30.1-1.9l-6.7-23.1L644.1,513.4z"/>
				<path id="Path_88" class="st11" d="M656.5,523c-0.9,0.5,0.6,4.7-2.7,4.4s-5.4-4.7-7.9-4.4s-4,4.7-8.7,7.8s-11.6,6.8-11.2,9.9
					c0.5,3.1,11.4,3.9,16.9,2.9s8.1-3.3,11.7-3.1c3.6,0.2,5.8-0.3,7-2.6C662.8,535.6,657.6,522.5,656.5,523z"/>
				<path id="Path_89" class="st63" d="M656.3,537.2H656c-4.5-0.4-7.5,2.4-11.7,3.2s-15.4,1.1-17.2-1.6c-0.1-0.1-0.2-0.3-0.2-0.4
					c-0.6,0.7-0.9,1.5-0.7,2.4c0.5,3,11.4,3.7,16.9,2.8c5.5-1,8.1-3.1,11.7-2.9h0.6c3.2,0.1,5.3-0.4,6.3-2.5
					c0.3-0.5,0.2-1.6-0.1-2.9C660.1,536.3,658.2,537.2,656.3,537.2L656.3,537.2z"/>
				<path class="st64" d="M700.3,452.4c-20.1,9.3-66.5,1.2-66.5,1.2c13.8,12.2,16.3,45.6,21.7,58.9c2.9,7.2-9.4,9.6-11.9,5.3
					c-3.5-6.2-15.3-28-24.4-44.6c-3.5-6.3-6.6-11.8-8.8-15.5c-7-12,0.8-22.3,10-24.2c3.9-0.8,15-3.2,27.4-5.8
					c17.1-3.6,36.4-7.5,41.7-7.7C711.5,419,714.8,445.8,700.3,452.4z"/>
			</g>
			<g id="LArm_3">
				
					<linearGradient id="Path_91_00000063593935881406106770000016353674973516629896_" gradientUnits="userSpaceOnUse" x1="630.992" y1="625.4911" x2="626.752" y2="686.0411" gradientTransform="matrix(1 0 0 1 0 -294.0001)">
					<stop  offset="0" style="stop-color:#FDC6C6"/>
					<stop  offset="1" style="stop-color:#FAB2B2"/>
				</linearGradient>
				
					<path id="Path_91" style="fill-rule:evenodd;clip-rule:evenodd;fill:url(#Path_91_00000063593935881406106770000016353674973516629896_);" d="
					M625.9,363.1c0,0,0.1-5.4-2.5-9.3s-2.7-8-4.7-7.9s0,9.7,0,9.7s-2.5-1-4.3-2.2s-7.2-7.1-8.5-6.1c-2.2,1.8,1.3,11.9,3.2,13.9
					s11.2,7.7,11.2,7.7l27.5,27.7L652,382L625.9,363.1z"/>
				<path id="Path_92" class="st66" d="M680.9,360.6c-4.2,9.8-12,27.9-15.2,33.3c-4,6.8-10.3,9.7-17.8,4.7c-1.6-1-6-4.7-6-4.7
					c0.7-6.4,3.1-11.8,7.2-16.1l2.8,2.3c0,0,8-20.4,14.4-32.2C671.9,337.7,687.4,345.7,680.9,360.6z"/>
				<path id="Path_93" class="st44" d="M651.9,380.2c0,0-2.1,7.3-2.6,6.8c-0.5-0.4,0.4-8.7,0.4-8.7L651.9,380.2z"/>
			</g>
			<g id="Head_3">
				<path id="Path_94" class="st22" d="M699.3,322.4v8.7l6.4-5.2c0,0,2-8.3,3.6-14.5c1-3.9,3.4-17-6.4-16.4
					c-8.1-14.2-31.5-5.4-31.7,11.9c-0.2,20.9,0,29,0,29C684.4,336.7,691.8,334.8,699.3,322.4z"/>
				
					<linearGradient id="Path_95_00000042698755386185448540000014667543724115154358_" gradientUnits="userSpaceOnUse" x1="700.0467" y1="600.2664" x2="688.8218" y2="649.8032" gradientTransform="matrix(1 0 0 1 0 -294.0001)">
					<stop  offset="0" style="stop-color:#FFAFAF"/>
					<stop  offset="1" style="stop-color:#F07777"/>
				</linearGradient>
				
					<path id="Path_95" style="fill-rule:evenodd;clip-rule:evenodd;fill:url(#Path_95_00000042698755386185448540000014667543724115154358_);" d="
					M705.8,339c0,0-6-1.4-6.2-11.1c-0.2-9.8-0.1-13.1-0.1-13.1l-13.1-0.2c0,0-0.1,10.9-0.1,14.8c0,9.6-7,10.3-7,10.3
					s1.2,7.9,13.1,8.6C701.7,348.7,705.8,339,705.8,339z"/>
				
					<linearGradient id="Path_96_00000182521993975988185530000001308645953443608501_" gradientUnits="userSpaceOnUse" x1="693.0552" y1="589.897" x2="686.3953" y2="622.4941" gradientTransform="matrix(1 0 0 1 0 -294.0001)">
					<stop  offset="0" style="stop-color:#FDC6C6"/>
					<stop  offset="1" style="stop-color:#FAB2B2"/>
				</linearGradient>
				
					<path id="Path_96" style="fill-rule:evenodd;clip-rule:evenodd;fill:url(#Path_96_00000182521993975988185530000001308645953443608501_);" d="
					M702.7,309.9c5.8-0.2,4.9,8.3-1.2,8.3c0,0-3.5,12.2-15.8,12.2c-9.9,0-10.6-14.2-10.7-17c-0.1-3-0.1-12.9-0.1-12.9h28
					L702.7,309.9z"/>
				<path id="Path_97" class="st22" d="M703.1,309.8c-2.4,0.4-2.1,2-2.8,1.9c-3.3-0.7-16.9,0.2-18.6-7.2c-2.2,4.7-2.7,5.8-7.5,7
					v-13.6l30.2-2.9C704.4,295,704,309.7,703.1,309.8z"/>
				<path id="Path_98" class="st25" d="M688.1,322.2c0,0-2.9,2.5-6.3,0.2"/>
				<path id="Path_99" class="st26" d="M686.1,325.1c-0.9,0.4-1.8,0.4-2.6,0"/>
				<path id="Path_8_x5F_3" class="st27" d="M702.1,314.5c-0.1-1.4,0.4-2.5,1.8-2.7"/>
			</g>
			<g id="Body_3">
				<path id="Path_100" class="st11" d="M704.5,338c-7.5,4.6-16.1,6.3-24.1,1.3c-13.1,25.9-16.4,56.7-13.2,90.8
					c19.1,7.6,35.2,6.1,48.9-2.6L704.5,338z"/>
				<g id="RLeg_2">
					
						<linearGradient id="Path_101_00000114790165681346599360000001469914698941326222_" gradientUnits="userSpaceOnUse" x1="604.671" y1="799.8984" x2="603.11" y2="833.1714" gradientTransform="matrix(1 0 0 1 0 -294.0001)">
						<stop  offset="0" style="stop-color:#FDC6C6"/>
						<stop  offset="1" style="stop-color:#FAB2B2"/>
					</linearGradient>
					
						<path id="Path_101" style="fill-rule:evenodd;clip-rule:evenodd;fill:url(#Path_101_00000114790165681346599360000001469914698941326222_);" d="
						M611.4,513.8c0,0,0.2,12.5-10.1,17.1c-10.3,4.7-17.6,4.4-16.7,8c0.9,3.6,27.7,3.5,30.2,0.6c2.1-2.4,6.8-24.7,8-23L611.4,513.8z
						"/>
					<path id="Path_102" class="st11" d="M618.9,531.5c-1.6-1.1-2.9,5.4-7.2,3.6c-4.3-1.8-0.9-7.8-3.6-8.9
						c-2.7-1.1-7.9,4.8-14.8,6.3c-6.9,1.4-12.5,2.7-14.1,5.4c-1.4,2.3,0,3,0,3s6.6,3.3,10.8,4c6,1.1,23.3,1.8,25.2-0.2
						C616.4,543.5,619.7,532,618.9,531.5z"/>
					<path id="Path_103" class="st63" d="M578.8,538.1c-1.3,2.1,0.8,3.2,1,3.3l1,0.4c1.9,0.8,6.1,2.5,9.3,3.1
						c5.7,1.1,23.5,1.8,25.5-0.1c0.3-0.3,0.8-1.5,1.2-3.1l-1.2,0.1c-5.9,0.6-19,1.7-25.5,0.2c-5.7-1.4-8.9-3.6-10.3-4.9
						C579.3,537.4,579,537.7,578.8,538.1z"/>
					<path id="Path_104" class="st64" d="M718.1,416.2c0,0,13.3,28-5.4,37.6c-18,9.3-72-1.7-72-1.7s1,7.8,0,14.7
						c-2.5,18.1-14.5,48.2-17,52c-3.5,5.2-14.2,1.3-14.4-3.1c-0.2-4.4,8-60,9.3-70.7c1.2-10.6,5.2-12.2,16.7-15.1
						c2.6-0.7,33.9-8.4,36.8-8.2C696.7,423.7,718.1,416.2,718.1,416.2z"/>
					<path id="Path_105" class="st70" d="M703.6,450.9c-17.8,2-65.1-2.1-67-0.2c-1.8,1.8-1.5,32.9-5.6,50.9l0.6-1.7
						c3.8-10.6,7.8-23.5,9.1-33.1c1-6.9,0-14.7,0-14.7l2.2,0.4c10.3,1.9,54,9.5,69.8,1.3c8.6-4.4,12.1-11.8,10.5-22.1
						C720.5,443.3,714,449.8,703.6,450.9z"/>
				</g>
				<path id="Path_106" class="st66" d="M704.2,338c-12.4,40.5-19.8,98,18.8,88c-20.5-37.8,7.4-54.8,1.1-74.3
					C721.9,345,704.3,337.5,704.2,338z"/>
				<path id="Path_107" class="st44" d="M718.1,354.8c-14,2.1-2.5,26.5-7.1,30.2s-12.6,4.1-13.5,6.3c-1.7,4.5,6.7,15.9,25.2,34.2
					l0.2,0.4c-17.9-32.9,1-50.1,2-66.8C722.9,355.9,720.6,354.5,718.1,354.8z"/>
				<path id="Path_108" class="st66" d="M681,339c-4.7,11.8-7,21.1-9.1,38.5c-1.8,14.5-0.9,44.3-0.9,44.3l-5.8,1.1
					c0,0-4.2-46.1-2.8-52.1c2.3-10,3.9-15.8,7-24.9C671.1,341,681,339,681,339z"/>
			</g>
			<g id="RArm_3">
				
					<linearGradient id="Path_109_00000142895461349286057790000000372080583899774908_" gradientUnits="userSpaceOnUse" x1="703.0648" y1="659.0115" x2="701.5576" y2="698.3954" gradientTransform="matrix(1 0 0 1 0 -294.0001)">
					<stop  offset="0" style="stop-color:#FDC6C6"/>
					<stop  offset="1" style="stop-color:#FAB2B2"/>
				</linearGradient>
				
					<path id="Path_109" style="fill-rule:evenodd;clip-rule:evenodd;fill:url(#Path_109_00000142895461349286057790000000372080583899774908_);" d="
					M701.6,384c0,0-7.6-7.6-10.3-8.5c-2.6-0.9-17.1-1.9-17,0.1c0.1,2.1,9.4,2,10.3,3.1c0.9,1.1,2.1,9.3,5.3,10.1
					c3.2,0.8,10,3.2,10,3.2l29.9,15.5l-3.2-15.5L701.6,384z"/>
				<path id="Path_110" class="st66" d="M724.5,351.7c9.1,12.8,16.8,32.3,19.8,39.9s0,19.1-13.1,16.8c-1.6-0.3-4.1-1.3-4.1-1.3
					c-4.8-6.6-5.7-12.3-3.9-17.3l1.7,0.7c0,0-13-23-16.2-29.2C703.4,351.1,716.5,340.4,724.5,351.7z"/>
				<path id="Path_111" class="st44" d="M724.9,390.7c0,0,6.6,3.2,5.8,1.8c-0.8-1.4-8.3-6.3-8.3-6.3L724.9,390.7z"/>
			</g>
		</g>
		<g id="Example_Ipad1">
			<g id="Group_3_x5F_2">
				
					<linearGradient id="Rectangle_28_00000165919327318809999220000014466600808236968065_" gradientUnits="userSpaceOnUse" x1="598.3444" y1="627.2523" x2="610.2693" y2="675.0792" gradientTransform="matrix(1 0 0 1 0 -294.0001)">
					<stop  offset="0" style="stop-color:#9FF6EC"/>
					<stop  offset="1" style="stop-color:#297DD1"/>
				</linearGradient>
				
					<path id="Rectangle_28" style="fill-rule:evenodd;clip-rule:evenodd;fill:url(#Rectangle_28_00000165919327318809999220000014466600808236968065_);" d="
					M587,348c-0.3-1.3,0.5-2.7,1.8-3l23.5-5.9c1.3-0.3,2.7,0.5,3,1.8l8.5,34.2c0.3,1.3-0.5,2.7-1.8,3l-23.5,5.9
					c-1.3,0.3-2.7-0.5-3-1.8L587,348z"/>
				<path id="Rectangle_29" class="st73" d="M587.9,348.6c-0.3-1.3,0.5-2.7,1.8-3l23.5-5.9c1.3-0.3,2.7,0.5,3,1.8l8.5,34.2
					c0.3,1.3-0.5,2.7-1.8,3l-23.5,5.9c-1.3,0.3-2.7-0.5-3-1.8L587.9,348.6z"/>
				<path id="Rectangle_30" class="st74" d="M588.9,348.9c-0.3-1.2,0.4-2.4,1.6-2.7l22.1-5.5c1.2-0.3,2.4,0.4,2.7,1.6l7.7,30.9
					c0.3,1.2-0.4,2.4-1.6,2.7l-22.1,5.5c-1.2,0.3-2.4-0.4-2.7-1.6L588.9,348.9z"/>
			</g>
		</g>
		<g id="Group_26_x5F_10">
			<g id="Group_25">
				<path id="Rectangle_31" class="st75" d="M384.2,397.9h11.4v144.9h-11.4V397.9z"/>
				<path id="Rectangle_32" class="st76" d="M272.4,402.6h90.2v26.9h-75.2v113.2h-15L272.4,402.6L272.4,402.6z"/>
				<path id="Rectangle_33" class="st77" d="M271.8,402.6h8v140.1h-8V402.6z"/>
			</g>
			<g id="Group_25_x5F_2">
				<path id="Rectangle_34" class="st75" d="M664.4,402.6h16v140.1h-16V402.6z"/>
				<path id="Rectangle_35" class="st77" d="M664.4,397.9h10v144.9h-10V397.9z"/>
				<path id="Rectangle_36" class="st76" d="M532,402.6h139v26.6H550.7v113.6H532V402.6z"/>
				<path id="Rectangle_37" class="st77" d="M283.6,397.9h248.9v40.2H283.6V397.9z"/>
				<path id="Rectangle_38" class="st75" d="M526.8,402.6h11.4v35.5h-11.4V402.6z"/>
				<path id="Rectangle_39" class="st77" d="M532,402.6h9v140.1h-9V402.6z"/>
				<path id="Rectangle_40" class="st75" d="M533.5,405c0-3.9,3.2-7.1,7.1-7.1h145.1c3.9,0,7.1,3.2,7.1,7.1l0,0
					c0,3.9-3.2,7.1-7.1,7.1H540.6C536.7,412.2,533.5,409,533.5,405L533.5,405z"/>
				<path id="Rectangle_41" class="st75" d="M280.7,400.7h248.9V415H280.7V400.7z"/>
				<path id="Rectangle_42" class="st77" d="M259.8,405c0-3.9,3.2-7.1,7.1-7.1h276.5c3.9,0,7.1,3.2,7.1,7.1l0,0
					c0,3.9-3.2,7.1-7.1,7.1H266.9C263,412.2,259.8,409,259.8,405L259.8,405z"/>
			</g>
		</g>
		<g id="Men2.8">
			<g id="RLeg_3">
				<path id="Path_112" class="st78" d="M304.4,507.2l-7.9,25.6l16.6,0.6c0,0-1.9-8.8,0.8-17c2.1-6.6,3.9-9.9,3.9-9.9L304.4,507.2z"
					/>
				<path id="Path_113" class="st79" d="M312.6,526.4c0,0,6.3,5.9,12.4,8s8.4,2.2,8.8,3l0.1,0.2c1.3,2.6,0.5,6-13.4,6.2
					c-3.4,0-6.9-1.9-16.2-4l-0.7,3.6c-5.2-0.1-8.2-0.9-9.1-2.5c-1.3-2.4,0.9-13.9,2.5-14.2c1.5-0.2,1.8,4.5,6,4.6
					C307.2,531.5,312.6,526.4,312.6,526.4z"/>
				<path id="Combined_Shape_x5F_3" class="st80" d="M324.9,534.4c-0.2,0.2-0.4,0.3-0.7,0.5c-0.9,0.6-2.3,1-4.2,0.6
					c-1-0.2-2-0.8-3.1-1.6c-1-0.8-2.1-1.7-3-2.6c-0.9-0.9-1.8-1.8-2.3-2.5c-0.3-0.3-0.5-0.6-0.7-0.8c0,0,0-0.1-0.1-0.1
					c0.1-0.1,0.3-0.2,0.4-0.3c0,0,0,0,0.1,0.1c0.2,0.2,0.4,0.5,0.7,0.8c0.6,0.7,1.4,1.5,2.3,2.4s2,1.8,3,2.6s2,1.3,2.9,1.5
					c1.7,0.4,3,0,3.8-0.5c0.1-0.1,0.3-0.2,0.4-0.3C324.5,534.2,324.7,534.3,324.9,534.4z"/>
				<path id="Path_114_00000097487112677178668510000001650824079126732943_" class="st81" d="M266.6,426.9c0,0,65.8,5.3,74.9,5.5
					c9.1,0.3,16,13.2,9,25.2c-7.9,13.4-29.3,52-33.5,60.9c-3.5,7.5-19.6,4.5-16.7-7.1c3.5-13.8,9.9-44.7,23.7-56.9
					c0,0-33.5,12.1-52.3,0.4C260.8,448.2,266.6,426.9,266.6,426.9z"/>
				<path id="Path_115" class="st82" d="M350.5,457.6l-1,1.8c-4,6.9-10.4,18.5-16.6,29.9l0.3-1c4.8-15.1,12.1-33,15.3-38.4
					c1.1-1.9,2.6-3.9,4.5-5.8C353.8,448.1,353.2,453,350.5,457.6z"/>
			</g>
			<g id="LLeg_4">
				<path id="Path_116" class="st78" d="M376,507.5c0,0,4.4,19.6,10.1,21.7c2.2,0.8-16.9,3.1-16.9,3.1l-4.8-18.8L376,507.5z"/>
				<path id="Path_117" class="st79" d="M366.5,525.6l-0.3,16.5h6.6l0.1-3.7c0,0,5.1,3.1,8.6,4.2c4.7,1.5,23.1,0.7,25.2-1.5
					s2.1-5.8-2.2-6.2c-4.3-0.4-11.4-1.7-14.4-4.1c-3.7-2.8-5.1-7.3-6.2-7.3c-1.6,0-1.8,5.2-10.1,5.3
					C370.6,528.9,366.5,525.6,366.5,525.6z"/>
				<path id="Path_118" class="st80" d="M382.2,525c0,0,4.2,6.6,6.8,7.6c2.5,0.9,4.6-0.1,4.6-0.1s-4.4-1.7-6-4.8
					C383.7,520.9,382.9,524.4,382.2,525z"/>
				<path id="Path_119" class="st81" d="M272.1,432.2c0,0-0.1,21,14,26.3s60.1,3.3,60.1,3.3s14.6,53.7,18.1,58.9s20.1,5.8,19.2-6.3
					c-0.9-12-7.4-56.8-8.6-67.4s-5.2-13.1-16.7-15c-4-0.7-2.3-1.7-28.3-3c-5.6-0.3-14.9,1.8-23.5,2.8
					C297.8,432.8,272.1,432.2,272.1,432.2z"/>
				<path id="Path_120" class="st82" d="M318,432.7v-2.4l1.2-0.2c4.2-0.6,8-1.1,10.8-1l3,0.1c22.8,1.2,21.4,2.2,25.3,2.8l0.7,0.1
					c10.7,1.8,14.5,4.4,15.8,14.2l0.4,3c1.7,13.6,7.5,53.8,8.3,65.1c0.1,0.9,0,1.7-0.1,2.5L380,500c-5-25.1-7.7-40-8.3-44.6l-0.1-1
					c-1.1-8.2-4-18.5-13.5-17.8l-0.8,0.1c-6.7,0.5-19.3-0.8-37.8-3.8L318,432.7z"/>
				
					<ellipse id="Oval_10" transform="matrix(0.225 -0.9744 0.9744 0.225 -138.7898 723.3882)" class="st83" cx="385.3" cy="448.9" rx="6.6" ry="3.8"/>
			</g>
			<g id="RArm_4">
				
					<linearGradient id="Path_121_00000041286891730823896840000012752444919565734830_" gradientUnits="userSpaceOnUse" x1="281.279" y1="691.1042" x2="293.03" y2="717.2243" gradientTransform="matrix(1 0 0 1 0 -294.0001)">
					<stop  offset="0" style="stop-color:#FDC6C6"/>
					<stop  offset="1" style="stop-color:#A47070"/>
				</linearGradient>
				
					<path id="Path_121" style="fill-rule:evenodd;clip-rule:evenodd;fill:url(#Path_121_00000041286891730823896840000012752444919565734830_);" d="
					M282.3,404.3c0,0,15.4,3.6,15.2,5c-0.2,1.4-6.9,1.6-6.9,1.6s12.5,8.1,11.5,9.7s-9.2,3.4-12.6,2.1s-12.2-10.5-12.2-10.5
					L282.3,404.3z"/>
				<path id="Path_122" class="st66" d="M282.4,358.7c-5.2,6.4-22.7,25.8-22.7,25.8s17.6,12.5,22,15.2c7.3,4.3-0.1,15.9-5.4,14.6
					c-7.2-1.7-25.4-14.3-34-19.4s-5.3-13.3,1-20.8c4.9-5.8,15.4-17.5,22.9-27.9C273.6,335.9,292.4,346.4,282.4,358.7z"/>
				<path id="Path_15_00000135693456518278735040000017135470471762056346_" class="st44" d="M259.7,384.5c0,0-4.9,4.8-4.4,5.1
					c0.5,0.4,6.5-3.7,6.5-3.7L259.7,384.5z"/>
			</g>
			<g id="Head_4">
				
					<linearGradient id="Path_123_00000006690166435845799050000013072363477068375210_" gradientUnits="userSpaceOnUse" x1="301.7393" y1="586.3362" x2="298.2633" y2="633.2363" gradientTransform="matrix(1 0 0 1 0 -294.0001)">
					<stop  offset="0" style="stop-color:#FDC6C6"/>
					<stop  offset="1" style="stop-color:#A47070"/>
				</linearGradient>
				
					<path id="Path_123" style="fill-rule:evenodd;clip-rule:evenodd;fill:url(#Path_123_00000006690166435845799050000013072363477068375210_);" d="
					M313.1,312c4.3,0.5,4,8.1-1.2,8.5c-1.1,7.3-4.9,10.8-9.6,11.2l0.3,11.1h-20.7c0,0,5.8-7.8,5.5-18.6c-0.3-10.7,0.2-20.8,0.2-20.8
					l26.8,0.5L313.1,312z"/>
				<path id="Path_124" class="st86" d="M304.6,291.3c15.9,4,9.4,21,9.4,21c-4.8-0.7-9.4,5.2-11.2,10.9c-5.1,5.2-11.7,5.2-16,2.2
					c0,0-6-18.6-4.1-24.8C284.7,294.4,290.1,287.6,304.6,291.3z"/>
			</g>
			<g id="Body_4">
				<path id="Path_125" class="st66" d="M267,345.3c-1.4,2.4-2.5,12.2,0,51.1c1.3,20.1-4.1,40-2.7,48.7s11,9.8,11,9.8l5.6-18.2
					l2.6,18.2c0,0,39.7-3.7,43.2-12.8c3.5-9.1-0.9-30.4-1.9-50.4c-1-20.1-0.3-40.8-2.2-44c-3.8-6.3-13.7-9.2-19.9-10.1
					c-7.8-1.2-17.8-1.2-23.8,0.7C272.9,340.2,268.4,342.9,267,345.3z"/>
				<path id="Path_126" class="st44" d="M307.4,359.1c3.1,23.1,7.3,39.4,12.6,48.7c2.2,3.9,4.4,5.4,6.6,4.8l-0.5-5.1
					c-0.5-5.2-1-10.5-1.3-15.8c-0.2-3.7-0.3-7.4-0.4-10.9L307.4,359.1z"/>
				<path id="Path_127" class="st87" d="M278.9,338.3c-0.4,0.1-0.7,0.2-1.1,0.4c8.6,3.7,22.8,3.2,30.5,0.2c-2-0.6-3.9-1-5.6-1.2
					C294.9,336.4,284.8,336.4,278.9,338.3z"/>
			</g>
			<g id="LArm_4">
				
					<linearGradient id="Path_128_00000060740810037672600410000016898509346299133084_" gradientUnits="userSpaceOnUse" x1="392.2203" y1="638.0091" x2="389.8703" y2="670.648" gradientTransform="matrix(1 0 0 1 0 -294.0001)">
					<stop  offset="0" style="stop-color:#FDC6C6"/>
					<stop  offset="1" style="stop-color:#A47070"/>
				</linearGradient>
				
					<path id="Path_128" style="fill-rule:evenodd;clip-rule:evenodd;fill:url(#Path_128_00000060740810037672600410000016898509346299133084_);" d="
					M384.2,379.2c0,0,12.8-8.5,15-10.2c2.3-1.7,5.1-14.7,3.3-16.5c-0.8-0.9-7.2,5-8.4,5.8c-1.1,0.8-6.9,4.3-6.9,4.3
					s1.6-9.9,0.2-10.7c-1-0.6-3.1,2-3.4,4.7s-3.2,6.2-3.6,10.3c-0.2,1.8-1.9,5.2-1.9,5.2L384.2,379.2z"/>
				<path id="Path_129" class="st66" d="M308,362.8c4.9,10.2,13.2,25.1,17.8,33.8c5.4,10.3,11.9,14.7,24.8,7
					c10.9-6.4,26.6-16.7,34.7-22.3c7.5-5.2-1.4-18.1-8.5-13.8c-9.5,5.8-33.6,17.2-33.6,17.2S330.8,362,325.6,351
					C319,337.2,298.5,343.1,308,362.8z"/>
				<path id="Path_130" class="st44" d="M343.2,384.7c0,0,2.3,8,2.8,7.7s-0.4-8.8-0.4-8.8L343.2,384.7z"/>
			</g>
		</g>
		<g id="Chair8">
			<path id="Path_131" class="st20" d="M292.8,463.2l-11.4,81l6-0.1l11.4-80L292.8,463.2z"/>
			<path id="Path_132" class="st21" d="M330.9,463.2l11.4,81l-6-0.1l-11.4-80L330.9,463.2z"/>
			<path id="Path_133" class="st20" d="M257.9,463.2l-11.4,81l6-0.1l11.4-80L257.9,463.2z"/>
			<path id="Path_134" class="st20" d="M335.3,468c5.2,0,9.4-4.2,9.4-9.4l0,0c0-5.2-4.2-9.4-9.4-9.4h-37.8c-5.7,0-10.5-4.4-11-10
				l-6-64.2c-0.5-5.7-5.3-10.1-11-10.1h-23.7c-6.5,0-11.6,5.5-11.1,11.9l6.2,81c0.4,5.8,5.3,10.2,11.1,10.2H335.3z"/>
			<path id="Combined_Shape_x5F_4" class="st21" d="M344.8,458.5c-0.1,0-0.1,0-0.2,0h-52c-5.8,0-10.6-4.5-11.1-10.2l-6.3-81.9
				c2.9,1.8,5,4.8,5.4,8.5l6,64c0.5,5.7,5.3,10,11,10h37.6c5.2,0,9.4,4.2,9.4,9.4C344.8,458.3,344.8,458.4,344.8,458.5z"/>
		</g>
		<g id="Front_Laptop3">
			
				<linearGradient id="Rectangle_43_00000050656629220779364020000008467303227744538532_" gradientUnits="userSpaceOnUse" x1="516.25" y1="689.207" x2="516.25" y2="692.386" gradientTransform="matrix(1 0 0 1 0 -294.0001)">
				<stop  offset="0" style="stop-color:#9FF6EC"/>
				<stop  offset="1" style="stop-color:#297DD1"/>
			</linearGradient>
			
				<path id="Rectangle_43" style="fill-rule:evenodd;clip-rule:evenodd;fill:url(#Rectangle_43_00000050656629220779364020000008467303227744538532_);" d="
				M559,396.5c0-0.4-0.3-0.7-0.7-0.7h-84.1c-0.4,0-0.7,0.3-0.7,0.7v1.1c0,0.4,0.3,0.7,0.7,0.7h84.1c0.4,0,0.7-0.3,0.7-0.7V396.5z"/>
			<path id="Rectangle_44" class="st73" d="M559,396.5c0-0.4-0.3-0.7-0.7-0.7H526c-0.4,0-0.7,0.3-0.7,0.7v1.1c0,0.4,0.3,0.7,0.7,0.7
				h32.3c0.4,0,0.7-0.3,0.7-0.7V396.5z"/>
			<path id="Rectangle_45" class="st73" d="M565.1,360.4c0.3-2.2-1.4-4.1-3.6-4.1h-55.8c-1.8,0-3.3,1.3-3.6,3.1l-4.2,32.4
				c-0.3,2.2,1.4,4.1,3.6,4.1h55.8c1.8,0,3.3-1.3,3.6-3.1L565.1,360.4z"/>
			
				<linearGradient id="Rectangle_46_00000140009561461403219160000003331778400515771321_" gradientUnits="userSpaceOnUse" x1="530.4" y1="641.282" x2="530.4" y2="689.9091" gradientTransform="matrix(1 0 0 1 0 -294.0001)">
				<stop  offset="0" style="stop-color:#9FF6EC"/>
				<stop  offset="1" style="stop-color:#297DD1"/>
			</linearGradient>
			
				<path id="Rectangle_46" style="fill-rule:evenodd;clip-rule:evenodd;fill:url(#Rectangle_46_00000140009561461403219160000003331778400515771321_);" d="
				M563.4,360.4c0.3-2.2-1.4-4.1-3.6-4.1h-54.6c-1.8,0-3.3,1.3-3.6,3.1l-4.2,32.4c-0.3,2.2,1.4,4.1,3.6,4.1h54.6
				c1.8,0,3.3-1.3,3.6-3.1L563.4,360.4z"/>
			<path id="Rectangle_47" class="st74" d="M561.4,361.8c0.2-1.9-1.3-3.7-3.2-3.7h-51.8c-1.6,0-3,1.2-3.2,2.8l-3.7,29.2
				c-0.2,1.9,1.3,3.7,3.2,3.7h51.8c1.6,0,3-1.2,3.2-2.8L561.4,361.8z"/>
		</g>
		<g id="Wom3.8">
			<g id="RArm_5">
				
					<linearGradient id="Path_135_00000123419674430661360190000000133476614008004781_" gradientUnits="userSpaceOnUse" x1="406.0364" y1="671.9513" x2="426.5814" y2="718.8963" gradientTransform="matrix(1 0 0 1 0 -294.0001)">
					<stop  offset="0" style="stop-color:#FDC6C6"/>
					<stop  offset="1" style="stop-color:#FFCCA1"/>
				</linearGradient>
				
					<path id="Path_135" style="fill-rule:evenodd;clip-rule:evenodd;fill:url(#Path_135_00000123419674430661360190000000133476614008004781_);" d="
					M424.6,406.2c0,0,13.6,3.2,13.5,4.4c-0.1,1.3-6.1,1.4-6.1,1.4s11.1,7.2,10.2,8.6s-8.1,3-11.1,1.9s-10.8-9.4-10.8-9.4l-21.8-11.7
					l7.3-9.6L424.6,406.2z"/>
				<path id="Path_136" class="st92" d="M424.8,365.6c-4.6,5.7-20.1,23-20.1,23l3.1,2.3l-10,12.1c0,0-6.4-3.9-8.5-5.2
					c-7.6-4.5-4.7-11.8,0.9-18.5c4.3-5.1,13.6-15.6,20.2-24.8C417,345.3,433.6,354.6,424.8,365.6z"/>
				<path id="Path_15_x5F_2" class="st44" d="M404.7,388.6c0,0-4.4,4.2-3.9,4.6c0.5,0.3,5.7-3.3,5.7-3.3L404.7,388.6z"/>
				<path id="Path_76_00000150097789048019836970000004401908376356361651_" class="st93" d="M407.1,389.6l-13,12.9l6.5,4.3
					l8.9-15.3L407.1,389.6z"/>
			</g>
			<g id="LLeg_5">
				
					<linearGradient id="Path_137_00000161590866647641784080000010253607247373834648_" gradientUnits="userSpaceOnUse" x1="451.3403" y1="792.0173" x2="448.6433" y2="820.1953" gradientTransform="matrix(1 0 0 1 0 -294.0001)">
					<stop  offset="0" style="stop-color:#FDC6C6"/>
					<stop  offset="1" style="stop-color:#FAB2B2"/>
				</linearGradient>
				
					<path id="Path_137" style="fill-rule:evenodd;clip-rule:evenodd;fill:url(#Path_137_00000161590866647641784080000010253607247373834648_);" d="
					M448.6,505.2l-7,22.6l11.8,0.5c0,0-1.7-7.7,0.7-15c1.9-5.8,3.5-8.7,3.5-8.7L448.6,505.2z"/>
				<path id="Path_138" class="st79" d="M453.5,521.8c0,0-0.2,5.8,1.8,7.6s12.7,8.5,13.6,9.9s-0.4,3-0.4,3s-10.9,1.7-16-0.9
					c-3.7-1.9-6.4-3.5-6.4-3.5l-1.1,2.9l-6-0.9c0,0-1.8-4.6-1-7c0.8-2.3,4.9-13.1,4.9-13.1L453.5,521.8z"/>
				<path id="Path_139" class="st95" d="M414.2,428c8.9,0.9,52.7,11.3,61.7,13.1c9,1.9,16.6,11.9,9.8,23.5
					c-7.7,13-29.5,53.5-29.5,53.5c-0.1,0-0.3,0.1-0.4,0.1c-4.4,0-8.4-0.6-12.2-3.3c0,0,5.8-42.4,19.3-54.3c0,0-34.8,12.5-52.2-1.1
					C400.3,451.5,404.5,427.1,414.2,428z"/>
				<path id="Combined_Shape_x5F_5" class="st82" d="M482.6,444.3l-2.4,30c0.2-0.4,0.4-0.7,0.6-1l2.3-28.6
					C482.9,444.5,482.7,444.4,482.6,444.3z"/>
			</g>
			<g id="RLeg_4">
				
					<linearGradient id="Path_140_00000072249721822669516700000001455406920966205113_" gradientUnits="userSpaceOnUse" x1="516.5628" y1="791.3089" x2="514.3308" y2="817.2909" gradientTransform="matrix(1 0 0 1 0 -294.0001)">
					<stop  offset="0" style="stop-color:#FDC6C6"/>
					<stop  offset="1" style="stop-color:#FAB2B2"/>
				</linearGradient>
				
					<path id="Path_140" style="fill-rule:evenodd;clip-rule:evenodd;fill:url(#Path_140_00000072249721822669516700000001455406920966205113_);" d="
					M514.1,503.4c0,0,3.9,17.3,8.9,19.1c1.9,0.7-12,2.7-12,2.7l-4.2-16.6L514.1,503.4z"/>
				<path id="Path_141" class="st79" d="M509.3,520.5l3.7,21.6l6.4-1l-0.8-5.3c0,0,2.8,4.7,5.9,4.5c3.1-0.2,18.8-2.6,18.8-2.6
					s0.4-5.2-6.8-6.4c-6-1-16.2-12.5-16.2-12.5L509.3,520.5z"/>
				<path id="Path_142" class="st97" d="M421.7,425.2c0,0-12.8,27.2,5.2,36.5c17.4,9,63.8-2.6,63.8-2.6s-0.9,7.5,0,14.3
					c2.4,17.5,14.4,39.1,15.5,42.7c0.5,1.8,13.9-0.9,13.9-3s-6.8-50.5-8-60.8s-5-11.8-16.2-14.6c-2.6-0.6-35.7-8.2-38.5-8
					C433.7,431.5,421.7,425.2,421.7,425.2z"/>
				<path id="Path_143" class="st82" d="M457.5,429.7c2.8-0.2,35.9,7.3,38.5,8l1.8,0.5c9.5,2.5,13,4.3,14.2,13.5l0.3,2.6
					c1,7.6,3.7,25.6,5.9,40.6c-2.4-5.5-4.4-11.6-6-18.3c-3.7-15.6-2.9-28.4-3.9-30.7c-1-2.2-49.5-9.4-57.8-10.9
					c-3.6-0.6-5.7-2.2-6.1-4.8C448.4,430.2,452.8,430,457.5,429.7z"/>
			</g>
			<g id="Head_5">
				
					<linearGradient id="Path_144_00000043427727869118700400000007170235106772414096_" gradientUnits="userSpaceOnUse" x1="441.0991" y1="597.3478" x2="438.0011" y2="639.1448" gradientTransform="matrix(1 0 0 1 0 -294.0001)">
					<stop  offset="0" style="stop-color:#FDC6C6"/>
					<stop  offset="1" style="stop-color:#FFCCA1"/>
				</linearGradient>
				
					<path id="Path_144" style="fill-rule:evenodd;clip-rule:evenodd;fill:url(#Path_144_00000043427727869118700400000007170235106772414096_);" d="
					M451.2,320.9c3.9,0.4,3.6,7.2-1.1,7.6c-1,6.5-4.4,9.7-8.5,10l0.2,9.9h-18.4c0,0,5.2-7,4.9-16.5c-0.3-9.6,0.2-18.5,0.2-18.5
					l23.9,0.4L451.2,320.9z"/>
				<path id="Path_145" class="st99" d="M452,321.4c-4.5-1.8-7.8,5.9-11.2,11.2c-3.4,5.3-12.3,4.4-13.6,0
					c-4.6-9.7-8.6-22.8-3.2-23.9C424.8,294.7,461.3,298,452,321.4z"/>
				<path id="Combined_Shape_x5F_6" class="st35" d="M427,303.2h7.9h0.1l0.1,0.1c7,7.9,8.6,19.4,5.3,29.9c-0.3,0.3-0.5,0.6-0.8,0.9
					c3.7-10.5,2.3-22.4-4.8-30.3h-8.4C426.6,303.5,426.8,303.3,427,303.2z"/>
				<ellipse id="Oval_11" class="st100" cx="431.9" cy="303.4" rx="4.4" ry="4.4"/>
			</g>
			<g id="Body_5">
				<path id="Path_146" class="st101" d="M455.7,350c4.1,6,10.9,26.3,11.3,30.9c0.4,5.3-5.2,13.7-5.3,21.3
					c-0.1,7.6,4.2,26.7,2.9,28.9c-1.3,2.1-43.9,14.6-46.3,13.5c-2.4-1-10.7-12-8.8-16.5c1.9-4.5,9.8-14.6,8.9-20.7
					s-6.1-28.6-8.6-36.2c-2.6-7.7-1.7-15.7,3.1-19c2.4-1.6,8.7-6.3,19.9-6.2C443.9,346,455.4,349.5,455.7,350z"/>
				<path id="Path_147" class="st44" d="M464.9,376l-19.6-14.1v2.6c0.1,15.8,1.1,24.2,17.7,50.2l-0.4-2.6c-0.5-3.8-1-7.4-0.9-9.9
					c0.1-4.8,2.3-9.9,3.9-14.4L464.9,376z"/>
				<path id="Path_68_00000044896754182562778010000007287912388059847588_" class="st102" d="M443,345.5c0,0,0.5,2.6-1.6,2.6
					s-15.9,0.5-17.8-0.4c-1.9-0.8-1.3-2.2-1.3-2.2H443z"/>
			</g>
			<g id="LArm_5">
				
					<linearGradient id="Path_148_00000150085562460222993040000001395939968684737716_" gradientUnits="userSpaceOnUse" x1="504.4586" y1="637.8708" x2="501.4676" y2="691.5488" gradientTransform="matrix(1 0 0 1 0 -294.0001)">
					<stop  offset="0" style="stop-color:#FDC6C6"/>
					<stop  offset="1" style="stop-color:#FFCCA1"/>
				</linearGradient>
				
					<path id="Path_148" style="fill-rule:evenodd;clip-rule:evenodd;fill:url(#Path_148_00000150085562460222993040000001395939968684737716_);" d="
					M512.1,380.9c0,0,11.3-7.5,13.3-9s4.5-12.9,2.9-14.5c-0.7-0.8-6.4,4.4-7.4,5.1s-6.1,3.8-6.1,3.8s1.4-8.7,0.2-9.4
					c-0.9-0.5-2.8,1.7-3,4.1s-2.8,5.5-3.1,9.1c-0.1,1.6-0.7,3.6-0.7,3.6L476.8,387l3.3,14.6L512.1,380.9z"/>
				<path id="Path_149" class="st92" d="M444.9,366.4c4.3,9,11.7,22.1,15.7,29.8c4.8,9.1,10.5,13,21.9,6.2c1.3-0.8,4.2-2.6,4.2-2.6
					l-7.1-15.8l-3.7,1.6c0,0-11-20.1-15.6-29.7C454.6,343.8,436.5,349,444.9,366.4z"/>
				<path id="Path_150" class="st44" d="M476,385.8c0,0,2,7.1,2.5,6.8c0.5-0.3-0.3-7.8-0.3-7.8L476,385.8z"/>
				<path id="Path_75_00000168818709133597332900000001819753221462712723_" class="st93" d="M479.6,383.4l4.9,19.6l7.4-4l-9.7-17.2
					L479.6,383.4z"/>
			</g>
			<path id="Path_151_00000142875650986722106500000008446055121726459549_" class="st99" d="M432.3,300.1c0,0-4.1-5.3-8.9-3.9
				s-9.1,9.9-7.1,18c2,8,0.4,12.6-2.1,18c-6.7,14.6,16.4,23.8,16.4,23.8s-1.8-10.8,1.7-17.3c3.6-6.7,5.7-15.3,5.7-20.6
				C438,309,432.3,300.1,432.3,300.1z"/>
		</g>
		<g id="Chair8_2">
			<path id="Path_152" class="st21" d="M431.7,463.2l11.4,81l-6-0.1l-11.4-80L431.7,463.2z"/>
			<path id="Path_153" class="st21" d="M465,463.2l11.4,81l-6-0.1l-11.4-80L465,463.2z"/>
			<path id="Path_154" class="st20" d="M391.9,463.2l-11.4,81l6-0.1l11.4-80L391.9,463.2z"/>
			<path id="Path_155" class="st20" d="M469.3,468c5.2,0,9.4-4.2,9.4-9.4l0,0c0-5.2-4.2-9.4-9.4-9.4h-37.8c-5.7,0-10.5-4.4-11-10
				l-6-64.2c-0.5-5.7-5.3-10.1-11-10.1h-23.7c-6.5,0-11.5,5.5-11.1,11.9l6.2,81c0.4,5.8,5.3,10.2,11.1,10.2H469.3z"/>
			<path id="Combined_Shape_x5F_7" class="st21" d="M478.8,458.5c-0.1,0-0.1,0-0.2,0h-52c-5.8,0-10.6-4.5-11.1-10.2l-6.3-81.9
				c2.9,1.8,5,4.8,5.4,8.5l6,64c0.5,5.7,5.3,10,11,10h37.6c5.2,0,9.4,4.2,9.4,9.4C478.8,458.3,478.8,458.4,478.8,458.5z"/>
		</g>
	</g>
</g>
</svg>
